<svg width="389" height="60" viewBox="0 0 389 60" fill="none" xmlns="http://www.w3.org/2000/svg">
<path d="M71.32 45V17H79.24V45H71.32ZM75.08 34.8V28.44H89.56V34.8H75.08ZM75.08 23.84V17H91.12V23.84H75.08ZM96.04 45V23.68H103.48V45H96.04ZM99.76 19.64C98.4 19.64 97.3467 19.3333 96.6 18.72C95.8533 18.08 95.48 17.1867 95.48 16.04C95.48 14.9733 95.8533 14.1067 96.6 13.44C97.3733 12.7467 98.4267 12.4 99.76 12.4C101.093 12.4 102.133 12.72 102.88 13.36C103.653 13.9733 104.04 14.8667 104.04 16.04C104.04 17.1067 103.653 17.9733 102.88 18.64C102.107 19.3067 101.067 19.64 99.76 19.64ZM109.316 45V23.68H116.276L116.596 28L115.076 28.48C115.342 27.4667 115.862 26.5733 116.636 25.8C117.409 25 118.329 24.3733 119.396 23.92C120.462 23.4667 121.582 23.24 122.756 23.24C124.356 23.24 125.702 23.5733 126.796 24.24C127.916 24.88 128.756 25.8533 129.316 27.16C129.902 28.44 130.196 30.0133 130.196 31.88V45H122.756V32.48C122.756 31.7867 122.649 31.2133 122.436 30.76C122.222 30.28 121.902 29.92 121.476 29.68C121.049 29.44 120.542 29.3333 119.956 29.36C119.502 29.36 119.076 29.4267 118.676 29.56C118.302 29.6933 117.969 29.9067 117.676 30.2C117.382 30.4667 117.156 30.7733 116.996 31.12C116.862 31.4667 116.796 31.8533 116.796 32.28V45H113.076C112.169 45 111.396 45 110.756 45C110.142 45 109.662 45 109.316 45ZM143.208 45.44C141.422 45.44 139.822 44.9733 138.408 44.04C137.022 43.08 135.928 41.7733 135.128 40.12C134.328 38.44 133.928 36.52 133.928 34.36C133.928 32.2 134.328 30.2933 135.128 28.64C135.955 26.96 137.075 25.64 138.488 24.68C139.902 23.72 141.515 23.24 143.328 23.24C144.262 23.24 145.155 23.3733 146.008 23.64C146.862 23.9067 147.622 24.28 148.288 24.76C148.982 25.24 149.555 25.8 150.008 26.44C150.488 27.08 150.795 27.76 150.928 28.48L149.208 28.96V15.4H156.688V45H149.928L149.408 40.24L150.888 40.52C150.782 41.2133 150.502 41.8533 150.048 42.44C149.595 43.0267 149.022 43.5467 148.328 44C147.662 44.4533 146.875 44.8 145.968 45.04C145.088 45.3067 144.168 45.44 143.208 45.44ZM145.328 39.36C146.182 39.36 146.915 39.16 147.528 38.76C148.142 38.3333 148.608 37.76 148.928 37.04C149.248 36.2933 149.408 35.4 149.408 34.36C149.408 33.32 149.248 32.4267 148.928 31.68C148.608 30.9067 148.142 30.3333 147.528 29.96C146.915 29.56 146.182 29.36 145.328 29.36C144.475 29.36 143.742 29.56 143.128 29.96C142.515 30.3333 142.048 30.9067 141.728 31.68C141.408 32.4267 141.248 33.32 141.248 34.36C141.248 35.4 141.408 36.2933 141.728 37.04C142.048 37.76 142.515 38.3333 143.128 38.76C143.742 39.16 144.475 39.36 145.328 39.36ZM162.492 45V17H169.412L179.612 33.6L174.212 33.56L184.532 17H191.212V45H183.572V37.52C183.572 35.12 183.625 32.96 183.732 31.04C183.865 29.12 184.079 27.2133 184.372 25.32L185.252 27.68L178.092 38.76H175.452L168.452 27.68L169.332 25.32C169.625 27.1067 169.825 28.9467 169.932 30.84C170.065 32.7067 170.132 34.9333 170.132 37.52V45H162.492ZM199.643 54.2L204.763 42.12L204.843 45.4L194.723 23.68H203.043L206.603 32.16C206.897 32.8267 207.15 33.4933 207.363 34.16C207.603 34.8 207.777 35.4133 207.883 36L207.043 36.64C207.15 36.2933 207.31 35.8133 207.523 35.2C207.737 34.5867 207.977 33.88 208.243 33.08L211.483 23.68H219.843L210.603 45L206.883 54.2H199.643Z" fill="#331832"/>
<path d="M223.351 45V17H236.271C238.165 17 239.858 17.3867 241.351 18.16C242.845 18.9333 244.005 19.9867 244.831 21.32C245.685 22.6533 246.111 24.1867 246.111 25.92C246.111 27.7867 245.685 29.44 244.831 30.88C244.005 32.32 242.845 33.4533 241.351 34.28C239.858 35.08 238.165 35.48 236.271 35.48H230.791V45H223.351ZM238.351 45L231.231 32.36L239.351 31.36L247.271 45H238.351ZM230.791 29.8H235.191C235.885 29.8 236.458 29.6667 236.911 29.4C237.391 29.1067 237.751 28.72 237.991 28.24C238.258 27.7333 238.391 27.1467 238.391 26.48C238.391 25.84 238.258 25.2933 237.991 24.84C237.725 24.36 237.325 24 236.791 23.76C236.285 23.4933 235.645 23.36 234.871 23.36H230.791V29.8ZM251.274 45V23.68H258.714V45H251.274ZM254.994 19.64C253.634 19.64 252.581 19.3333 251.834 18.72C251.088 18.08 250.714 17.1867 250.714 16.04C250.714 14.9733 251.088 14.1067 251.834 13.44C252.608 12.7467 253.661 12.4 254.994 12.4C256.328 12.4 257.368 12.72 258.114 13.36C258.888 13.9733 259.274 14.8667 259.274 16.04C259.274 17.1067 258.888 17.9733 258.114 18.64C257.341 19.3067 256.301 19.64 254.994 19.64ZM272.31 45.44C270.523 45.44 268.923 44.9733 267.51 44.04C266.123 43.08 265.03 41.7733 264.23 40.12C263.43 38.44 263.03 36.52 263.03 34.36C263.03 32.2 263.43 30.2933 264.23 28.64C265.057 26.96 266.177 25.64 267.59 24.68C269.003 23.72 270.617 23.24 272.43 23.24C273.363 23.24 274.257 23.3733 275.11 23.64C275.963 23.9067 276.723 24.28 277.39 24.76C278.083 25.24 278.657 25.8 279.11 26.44C279.59 27.08 279.897 27.76 280.03 28.48L278.31 28.96V15.4H285.79V45H279.03L278.51 40.24L279.99 40.52C279.883 41.2133 279.603 41.8533 279.15 42.44C278.697 43.0267 278.123 43.5467 277.43 44C276.763 44.4533 275.977 44.8 275.07 45.04C274.19 45.3067 273.27 45.44 272.31 45.44ZM274.43 39.36C275.283 39.36 276.017 39.16 276.63 38.76C277.243 38.3333 277.71 37.76 278.03 37.04C278.35 36.2933 278.51 35.4 278.51 34.36C278.51 33.32 278.35 32.4267 278.03 31.68C277.71 30.9067 277.243 30.3333 276.63 29.96C276.017 29.56 275.283 29.36 274.43 29.36C273.577 29.36 272.843 29.56 272.23 29.96C271.617 30.3333 271.15 30.9067 270.83 31.68C270.51 32.4267 270.35 33.32 270.35 34.36C270.35 35.4 270.51 36.2933 270.83 37.04C271.15 37.76 271.617 38.3333 272.23 38.76C272.843 39.16 273.577 39.36 274.43 39.36ZM301.353 45.4C298.927 45.4 296.833 44.9333 295.073 44C293.313 43.04 291.953 41.7333 290.993 40.08C290.033 38.4 289.553 36.4933 289.553 34.36C289.553 32.76 289.82 31.28 290.353 29.92C290.887 28.56 291.633 27.3867 292.593 26.4C293.553 25.3867 294.687 24.6133 295.993 24.08C297.327 23.52 298.78 23.24 300.353 23.24C301.9 23.24 303.3 23.5067 304.553 24.04C305.833 24.5733 306.927 25.3333 307.833 26.32C308.767 27.3067 309.473 28.4667 309.953 29.8C310.46 31.1333 310.687 32.6 310.633 34.2L310.593 35.88H293.793L292.873 32.16H304.633L303.913 32.96V32.2C303.913 31.6133 303.753 31.1067 303.433 30.68C303.14 30.2267 302.74 29.88 302.233 29.64C301.727 29.4 301.153 29.28 300.513 29.28C299.607 29.28 298.847 29.4667 298.233 29.84C297.647 30.1867 297.193 30.6933 296.873 31.36C296.553 32.0267 296.393 32.8267 296.393 33.76C296.393 34.8267 296.607 35.7467 297.033 36.52C297.487 37.2933 298.14 37.8933 298.993 38.32C299.873 38.7467 300.94 38.96 302.193 38.96C303.02 38.96 303.74 38.8533 304.353 38.64C304.993 38.4267 305.673 38.0533 306.393 37.52L309.833 42.36C308.9 43.1067 307.953 43.7067 306.993 44.16C306.06 44.5867 305.127 44.8933 304.193 45.08C303.26 45.2933 302.313 45.4 301.353 45.4Z" fill="#EE5B46"/>
<g clip-path="url(#clip0_12_1508)">
<path d="M30 20C24.475 20 20 24.475 20 30C20 35.525 24.475 40 30 40C35.525 40 40 35.525 40 30C40 24.475 35.525 20 30 20ZM52.35 27.5C51.2 17.075 42.925 8.8 32.5 7.65V5C32.5 3.625 31.375 2.5 30 2.5C28.625 2.5 27.5 3.625 27.5 5V7.65C17.075 8.8 8.8 17.075 7.65 27.5H5C3.625 27.5 2.5 28.625 2.5 30C2.5 31.375 3.625 32.5 5 32.5H7.65C8.8 42.925 17.075 51.2 27.5 52.35V55C27.5 56.375 28.625 57.5 30 57.5C31.375 57.5 32.5 56.375 32.5 55V52.35C42.925 51.2 51.2 42.925 52.35 32.5H55C56.375 32.5 57.5 31.375 57.5 30C57.5 28.625 56.375 27.5 55 27.5H52.35ZM30 47.5C20.325 47.5 12.5 39.675 12.5 30C12.5 20.325 20.325 12.5 30 12.5C39.675 12.5 47.5 20.325 47.5 30C47.5 39.675 39.675 47.5 30 47.5Z" fill="#331832"/>
</g>
<defs>
<clipPath id="clip0_12_1508">
<rect width="60" height="60" fill="white"/>
</clipPath>
</defs>
</svg>
