<svg width="217" height="168" viewBox="0 0 217 168" fill="none" xmlns="http://www.w3.org/2000/svg">
<path d="M71.5249 95.0039C64.1393 95.0018 56.9126 92.9418 50.7188 89.0732C44.525 85.2045 39.6295 79.6929 36.6244 73.205C33.6193 66.7171 32.6334 59.5309 33.7858 52.5155C34.9383 45.5 38.1797 38.956 43.1182 33.6749C48.0566 28.3938 54.4805 24.6018 61.6127 22.7577C68.745 20.9135 76.2801 21.0962 83.3066 23.2836C90.3332 25.471 96.5502 29.5694 101.206 35.0831C105.861 40.5968 108.756 47.2896 109.539 54.3519C110.104 59.4784 109.542 64.6619 107.889 69.5659C106.236 74.47 103.53 78.9851 99.9451 82.8183C96.3606 86.6515 91.9781 89.7172 87.082 91.8165C82.1859 93.9158 76.8856 95.0017 71.5249 95.0039ZM71.6148 27.007C70.4408 27.0084 69.2677 27.0688 68.1002 27.1878C59.7154 28.0606 52.0157 32.0455 46.6396 38.2947C41.2635 44.5438 38.6355 52.5638 39.3148 60.648C39.994 68.7322 43.927 76.2423 50.2767 81.5803C56.6264 86.9183 64.8915 89.6627 73.3133 89.2295C81.7351 88.7963 89.6487 85.2197 95.3701 79.2608C101.091 73.3019 104.169 65.4312 103.948 57.3234C103.726 49.2157 100.224 41.511 94.185 35.849C88.1464 30.187 80.0486 27.0147 71.6148 27.007Z" fill="#455A64"/>
<path d="M128.158 128.959C127.744 128.961 127.335 128.876 126.959 128.709C126.583 128.542 126.25 128.297 125.984 127.992L89.8496 87.2224C89.6059 86.9474 89.421 86.6288 89.3054 86.285C89.1897 85.9412 89.1456 85.5789 89.1756 85.2187C89.2056 84.8585 89.3091 84.5075 89.4801 84.1858C89.6511 83.864 89.8864 83.5778 90.1724 83.3435C90.4585 83.1092 90.7897 82.9314 91.1472 82.8202C91.5047 82.709 91.8815 82.6666 92.2561 82.6954C92.6306 82.7242 92.9956 82.8237 93.3301 82.9882C93.6647 83.1527 93.9623 83.3789 94.206 83.654L130.332 124.447C130.69 124.846 130.921 125.335 130.997 125.857C131.073 126.378 130.992 126.91 130.763 127.388C130.534 127.866 130.166 128.271 129.704 128.554C129.242 128.836 128.706 128.985 128.158 128.983V128.959Z" fill="#455A64"/>
<path fill-rule="evenodd" clip-rule="evenodd" d="M182.053 101.032C184.782 101.359 187.454 102.035 189.997 103.045L195.841 98.3286L205.87 105.678L202.715 112.343C204.406 114.435 205.8 116.735 206.859 119.181L214.452 119.826L216.144 131.844L209.008 134.406C208.667 137.032 207.961 139.601 206.908 142.046L211.812 147.666L204.178 157.31L197.222 154.315C195.05 155.94 192.661 157.278 190.12 158.293L189.458 165.594L176.961 167.222L174.296 160.36C171.563 160.031 168.889 159.351 166.344 158.34L160.508 163.056L150.463 155.667L153.626 148.994C151.936 146.907 150.542 144.613 149.482 142.172L141.897 141.527L140.197 129.509L147.341 126.947C147.68 124.319 148.384 121.747 149.433 119.299L144.529 113.687L152.187 104.011L159.118 107.053C161.292 105.428 163.68 104.088 166.221 103.068L166.891 95.7741L179.38 94.1471L182.053 101.009V101.032ZM178.301 117.601C175.511 117.687 172.817 118.601 170.588 120.218C168.359 121.835 166.705 124.075 165.853 126.631C165.001 129.188 164.992 131.935 165.827 134.496C166.663 137.058 168.302 139.308 170.52 140.938C172.738 142.569 175.426 143.499 178.216 143.602C181.005 143.705 183.76 142.975 186.101 141.513C188.442 140.051 190.256 137.928 191.293 135.436C192.33 132.943 192.54 130.203 191.893 127.591C191.172 124.675 189.425 122.088 186.948 120.268C184.471 118.447 181.417 117.505 178.301 117.601Z" fill="#E0E0E0"/>
<path fill-rule="evenodd" clip-rule="evenodd" d="M69.9801 9.30624C72.2595 10.4494 74.3704 11.8794 76.2572 13.5585L82.9675 11.2634L89.2692 20.829L84.2589 25.6786C85.0353 28.0369 85.478 30.4851 85.5748 32.957L92.0072 35.8888L89.4245 46.9399H82.3136C81.127 49.1332 79.6398 51.1634 77.8919 52.9764L80.2785 59.4295L70.3152 65.4974L65.2641 60.6713C62.8128 61.4111 60.2708 61.8366 57.7037 61.9368L54.6469 68.1148L43.1552 65.6389V58.7928C40.877 57.6478 38.7663 56.218 36.8781 54.5405L30.1759 56.8357L23.8661 47.27L28.8927 42.4204C28.1241 40.0603 27.6817 37.6132 27.5768 35.1421L21.1526 32.2103L23.7272 21.1591H30.8462C32.0113 18.9626 33.4824 16.9291 35.2189 15.1148L32.8323 8.66172L42.8119 2.61738L47.8549 7.45128C50.3076 6.70516 52.8529 6.27695 55.4234 6.17796L58.472 0L69.9637 2.47591V9.32196L69.9801 9.30624ZM59.8452 22.3145C57.4082 21.7899 54.8642 21.972 52.5348 22.8376C50.2055 23.7032 48.1953 25.2136 46.7584 27.1778C45.3216 29.142 44.5226 31.4718 44.4625 33.8726C44.4024 36.2734 45.0838 38.6375 46.4207 40.6659C47.7575 42.6943 49.6898 44.296 51.9731 45.2685C54.2565 46.241 56.7884 46.5405 59.2488 46.1293C61.7092 45.7181 63.9875 44.6146 65.7958 42.9583C67.6041 41.3021 68.8611 39.1673 69.408 36.8241C69.7723 35.2675 69.8139 33.6571 69.5303 32.085C69.2468 30.5129 68.6436 29.0099 67.7554 27.6623C66.8672 26.3146 65.7114 25.1485 64.354 24.2309C62.9967 23.3133 61.4645 22.6621 59.8452 22.3145Z" fill="#FF725E"/>
<g opacity="0.8">
<path fill-rule="evenodd" clip-rule="evenodd" d="M69.9801 9.30624C72.2595 10.4494 74.3704 11.8794 76.2572 13.5585L82.9675 11.2634L89.2692 20.829L84.2589 25.6786C85.0353 28.0369 85.478 30.4851 85.5748 32.957L92.0072 35.8888L89.4245 46.9399H82.3136C81.127 49.1332 79.6398 51.1634 77.8919 52.9764L80.2785 59.4295L70.3152 65.4974L65.2641 60.6713C62.8128 61.4111 60.2708 61.8366 57.7037 61.9368L54.6469 68.1148L43.1552 65.6389V58.7928C40.877 57.6478 38.7663 56.218 36.8781 54.5405L30.1759 56.8357L23.8661 47.27L28.8927 42.4204C28.1241 40.0603 27.6817 37.6132 27.5768 35.1421L21.1526 32.2103L23.7272 21.1591H30.8462C32.0113 18.9626 33.4824 16.9291 35.2189 15.1148L32.8323 8.66172L42.8119 2.61738L47.8549 7.45128C50.3076 6.70516 52.8529 6.27695 55.4234 6.17796L58.472 0L69.9637 2.47591V9.32196L69.9801 9.30624ZM59.8452 22.3145C57.4082 21.7899 54.8642 21.972 52.5348 22.8376C50.2055 23.7032 48.1953 25.2136 46.7584 27.1778C45.3216 29.142 44.5226 31.4718 44.4625 33.8726C44.4024 36.2734 45.0838 38.6375 46.4207 40.6659C47.7575 42.6943 49.6898 44.296 51.9731 45.2685C54.2565 46.241 56.7884 46.5405 59.2488 46.1293C61.7092 45.7181 63.9875 44.6146 65.7958 42.9583C67.6041 41.3021 68.8611 39.1673 69.408 36.8241C69.7723 35.2675 69.8139 33.6571 69.5303 32.085C69.2468 30.5129 68.6436 29.0099 67.7554 27.6623C66.8672 26.3146 65.7114 25.1485 64.354 24.2309C62.9967 23.3133 61.4645 22.6621 59.8452 22.3145Z" fill="white"/>
</g>
<path d="M80.1722 108.657C81.1123 108.776 82.0259 109.042 82.8776 109.443C84.8759 110.377 86.5508 111.846 87.7007 113.674C88.8507 115.503 89.4265 117.611 89.359 119.747C89.2944 121.761 88.6677 123.721 87.5445 125.422C86.2997 127.307 84.5022 128.794 82.379 129.698C80.0995 130.672 77.5548 130.917 75.1196 130.397C72.6844 129.876 70.4874 128.617 68.8521 126.805C68.0675 125.955 67.43 124.989 66.9641 123.944C66.4986 122.947 66.198 121.887 66.0732 120.8C65.8129 118.802 66.1179 116.774 66.9559 114.929C67.8464 112.972 69.3045 111.303 71.1555 110.123C73.0066 108.942 75.1722 108.299 77.3933 108.272C78.343 108.248 79.2901 108.376 80.1967 108.649C80.1967 108.727 79.1996 108.46 77.4014 108.523C74.8597 108.628 72.4281 109.55 70.495 111.14C69.0762 112.305 67.983 113.793 67.3149 115.467C66.6468 117.142 66.425 118.951 66.6698 120.73C66.8002 121.751 67.0924 122.748 67.5362 123.685C67.9837 124.672 68.5906 125.584 69.3344 126.389C70.8817 128.105 72.9596 129.3 75.2641 129.8C77.5686 130.299 79.9787 130.076 82.142 129.163C84.1489 128.313 85.8535 126.917 87.046 125.147C88.0591 123.645 88.6648 121.923 88.8076 120.138C88.9503 118.353 88.6257 116.562 87.8633 114.929C86.8208 112.698 85.0348 110.864 82.7877 109.718C81.1857 108.892 80.1722 108.727 80.1722 108.657Z" fill="#263238"/>
<path d="M89.359 96.8902V96.5051C89.359 96.2221 89.359 95.837 89.359 95.3339C89.359 94.2571 89.3181 92.7166 89.2936 90.7044L89.3753 90.7987L78.9625 88.6136L79.1505 88.5272C78.3332 90.2249 77.4014 92.1113 76.4124 94.1314L76.3634 94.2335H76.249C73.9442 94.3313 71.663 94.7225 69.4651 95.3968H69.3425L69.2444 95.3025L64.6673 90.9481H64.9616L55.9709 96.4501L56.0772 96.1592L58.2513 101.984L58.3085 102.133L58.1941 102.251C56.6335 103.876 55.3059 105.695 54.2463 107.658L54.1646 107.808H53.993L47.4788 107.941L47.7649 107.721C47.0375 110.865 46.2447 114.245 45.4437 117.719L45.2802 117.389L51.0914 120.038L51.2631 120.117V120.297C51.3527 122.505 51.7513 124.692 52.4482 126.798L52.5054 126.978L52.3665 127.104L47.8221 131.498L47.8712 131.113L53.5925 139.759L53.2083 139.633L59.2729 137.55L59.4609 137.487L59.6081 137.621C61.2908 139.12 63.1736 140.396 65.2068 141.417L65.3784 141.692V144.789C65.3784 145.827 65.3784 146.856 65.3784 147.878L65.1251 147.572L75.5134 149.812L75.1537 149.985L77.9163 144.396L77.9981 144.223H78.1942C80.4896 144.142 82.7631 143.764 84.9536 143.099L85.1415 143.044L85.2723 143.178L89.833 147.548L89.4489 147.509L98.4396 142.007L98.317 142.352L96.1674 136.512L96.1102 136.355L96.2328 136.23C97.7947 134.605 99.1275 132.789 100.197 130.83L100.27 130.688H106.883L106.613 130.893C107.43 127.379 108.248 124.062 108.967 120.903L109.106 121.178L103.303 118.505L103.172 118.45V118.309C103.089 116.094 102.699 113.9 102.011 111.785L101.97 111.659L102.06 111.573L106.621 107.203V107.43C104.422 104.074 102.534 101.205 100.957 98.7845L101.129 98.8395L95.0476 100.883H94.9904L94.9414 100.844C93.6807 99.7027 92.3126 98.6765 90.8547 97.7784L89.7431 97.1417C89.6151 97.0771 89.4922 97.0036 89.3753 96.9217C89.5094 96.9722 89.6404 97.0299 89.7677 97.0946C90.021 97.2203 90.4052 97.409 90.9038 97.6919C92.4171 98.5486 93.8334 99.5549 95.1294 100.694H95.0231L101.071 98.588H101.186L101.251 98.6823L106.973 107.328L107.054 107.454L106.948 107.556L102.42 111.958L102.469 111.753C103.184 113.902 103.596 116.133 103.695 118.387L103.556 118.191L109.375 120.832L109.563 120.918L109.514 121.107C108.787 124.251 108.019 127.584 107.201 131.105V131.309H106.981H100.548L100.793 131.168C99.7095 133.167 98.3516 135.018 96.7558 136.67L96.8212 136.379L98.9872 142.211L99.0689 142.431L98.8646 142.557L89.8739 148.059L89.6614 148.192L89.4816 148.02L84.9127 143.657L85.2315 143.728C82.9889 144.414 80.6602 144.805 78.3086 144.891L78.5865 144.718L75.8321 150.307L75.7177 150.535L75.4643 150.48L65.0678 148.24L64.8145 148.185V147.933C64.8145 146.911 64.8145 145.882 64.8145 144.844V141.747C65.1659 142.297 64.9125 141.897 64.9861 142.022C62.9068 140.961 60.9829 139.64 59.2648 138.092L59.5999 138.163L53.4535 140.167L53.2002 140.254L53.0612 140.042C51.1078 137.063 49.1707 134.123 47.3399 131.396L47.2091 131.191L47.3889 131.01L51.9333 126.625L51.8597 126.939C51.1538 124.778 50.7497 122.537 50.6583 120.274L50.8299 120.533L45.0268 117.884L44.8062 117.782L44.8634 117.554C45.6807 114.08 46.498 110.7 47.2091 107.556L47.2582 107.336H53.9276L53.6824 107.478C54.7683 105.477 56.1291 103.627 57.7282 101.976L57.671 102.243C56.9272 100.199 56.1916 98.2107 55.5296 96.4029L55.456 96.2142L55.6358 96.1121L64.6428 90.6494L64.8063 90.5472L64.9371 90.673L69.4814 95.0588L69.2689 95.0038C71.5064 94.3355 73.8259 93.9549 76.1672 93.872L76.0038 93.982L78.7827 88.4014L78.8481 88.2835H78.9707L89.3508 90.5786H89.4407V90.6572C89.4407 92.6458 89.4407 94.1785 89.4407 95.2475C89.4407 95.7505 89.4407 96.1435 89.4407 96.4343C89.4268 96.5882 89.3994 96.7407 89.359 96.8902Z" fill="#263238"/>
<path fill-rule="evenodd" clip-rule="evenodd" d="M28.4269 74.4106C29.7526 75.0778 30.9811 75.9103 32.0803 76.8865L35.979 75.5503L39.6488 81.1231L36.731 83.9448C37.1786 85.3183 37.4343 86.743 37.4911 88.1813L41.2345 89.887L39.7387 96.3243H35.5949C34.9011 97.5993 34.0354 98.7806 33.0203 99.8377L34.4097 103.587L28.6148 107.155L25.6806 104.349C24.2522 104.779 22.7708 105.025 21.2752 105.08L19.5016 108.68L12.8076 107.242V103.225C11.4818 102.558 10.2534 101.726 9.15413 100.749L5.24728 102.086L1.57745 96.5129L4.50351 93.6912C4.05774 92.317 3.79949 90.8929 3.73522 89.4547L0 87.749L1.49572 81.3117H5.63143C6.33439 80.03 7.21416 78.8456 8.24689 77.7904L6.85743 74.0333L12.6441 70.5042L15.5866 73.3181C17.0152 72.8881 18.4963 72.6397 19.992 72.5793L21.7656 68.9872L28.4514 70.4256V74.4106H28.4269ZM22.5257 82.0034C21.1061 81.6968 19.6238 81.802 18.2663 82.3056C16.9088 82.8092 15.7371 83.6886 14.8994 84.8327C14.0617 85.9767 13.5956 87.334 13.5601 88.7328C13.5246 90.1316 13.9212 91.5091 14.6998 92.6911C15.4785 93.8731 16.6041 94.8065 17.9344 95.3732C19.2647 95.94 20.7399 96.1146 22.1734 95.875C23.607 95.6354 24.9344 94.9924 25.9878 94.0273C27.0413 93.0621 27.7735 91.8182 28.0917 90.4529C28.5184 88.6226 28.1717 86.7043 27.1279 85.1198C26.0842 83.5354 24.4288 82.4144 22.5257 82.0034Z" fill="#FF725E"/>
<g opacity="0.4">
<path fill-rule="evenodd" clip-rule="evenodd" d="M28.4269 74.4106C29.7526 75.0778 30.9811 75.9103 32.0803 76.8865L35.979 75.5503L39.6488 81.1231L36.731 83.9448C37.1786 85.3183 37.4343 86.743 37.4911 88.1813L41.2345 89.887L39.7387 96.3243H35.5949C34.9011 97.5993 34.0354 98.7806 33.0203 99.8377L34.4097 103.587L28.6148 107.155L25.6806 104.349C24.2522 104.779 22.7708 105.025 21.2752 105.08L19.5016 108.68L12.8076 107.242V103.225C11.4818 102.558 10.2534 101.726 9.15413 100.749L5.24728 102.086L1.57745 96.5129L4.50351 93.6912C4.05774 92.317 3.79949 90.8929 3.73522 89.4547L0 87.749L1.49572 81.3117H5.63143C6.33439 80.03 7.21416 78.8456 8.24689 77.7904L6.85743 74.0333L12.6441 70.5042L15.5866 73.3181C17.0152 72.8881 18.4963 72.6397 19.992 72.5793L21.7656 68.9872L28.4514 70.4256V74.4106H28.4269ZM22.5257 82.0034C21.1061 81.6968 19.6238 81.802 18.2663 82.3056C16.9088 82.8092 15.7371 83.6886 14.8994 84.8327C14.0617 85.9767 13.5956 87.334 13.5601 88.7328C13.5246 90.1316 13.9212 91.5091 14.6998 92.6911C15.4785 93.8731 16.6041 94.8065 17.9344 95.3732C19.2647 95.94 20.7399 96.1146 22.1734 95.875C23.607 95.6354 24.9344 94.9924 25.9878 94.0273C27.0413 93.0621 27.7735 91.8182 28.0917 90.4529C28.5184 88.6226 28.1717 86.7043 27.1279 85.1198C26.0842 83.5354 24.4288 82.4144 22.5257 82.0034Z" fill="white"/>
</g>
</svg>
