<svg width="174" height="154" viewBox="0 0 174 154" fill="none" xmlns="http://www.w3.org/2000/svg">
<path fill-rule="evenodd" clip-rule="evenodd" d="M135.649 7.89192C138.695 8.26713 141.676 9.04548 144.513 10.2062L151.034 4.78216L162.225 13.2346L158.704 20.9005C160.587 23.3044 162.139 25.9462 163.319 28.7562L171.791 29.4975L173.679 43.3197L165.681 46.2758C165.3 49.2956 164.512 52.251 163.337 55.0626L168.809 61.5262L160.291 72.6183L152.548 69.1289C150.124 70.9974 147.459 72.5358 144.623 73.7031L143.884 82.1013L129.94 83.9726L126.967 76.0806C123.917 75.7024 120.933 74.921 118.093 73.7574L111.581 79.1814L100.382 70.738L103.911 63.063C102.025 60.6626 100.47 58.0238 99.2874 55.2163L90.897 54.466L89 40.6438L96.9709 37.6968C97.3495 34.6747 98.1347 31.7164 99.3056 28.9009L93.8336 22.4463L102.361 11.3452L110.049 14.8437C112.474 12.9745 115.139 11.4332 117.974 10.2604L118.722 1.87128L132.657 0L135.64 7.89192H135.649ZM131.463 26.9482C128.348 27.0493 125.341 28.1036 122.855 29.9664C120.369 31.8292 118.525 34.4091 117.578 37.352C116.63 40.2948 116.625 43.4563 117.562 46.4023C118.5 49.3483 120.334 51.9345 122.814 53.8057C125.294 55.6768 128.297 56.7413 131.411 56.8529C134.526 56.9645 137.599 56.1177 140.208 54.4289C142.818 52.7401 144.836 50.292 145.986 47.4207C147.135 44.5495 147.36 41.3959 146.629 38.3929C145.815 35.0471 143.862 32.0819 141.099 29.9972C138.336 27.9125 134.933 26.8356 131.463 26.9482Z" fill="#E0E0E0"/>
<path d="M105.979 90.6082C105.914 90.4789 105.856 90.3461 105.806 90.2105L105.313 88.981C104.866 87.851 104.237 86.2238 103.407 84.1085L103.535 84.1898L91.9888 85.808L92.1438 85.6453C91.9705 87.7516 91.7699 90.093 91.5602 92.597V92.7236H91.4416C89.1144 93.6953 86.9278 94.969 84.939 96.5114L84.8205 96.6018L84.6928 96.5385L78.3088 93.6638L78.6189 93.5824L71.5873 102.794V102.442L76.1473 107.793L76.2659 107.929L76.1929 108.092C75.2346 110.407 74.5936 112.839 74.2869 115.324V115.513L73.9859 115.64L67.3922 118.09L67.6019 117.755C68.0944 121.371 68.6324 125.222 69.1796 129.2L68.8787 128.911L75.892 129.516H76.1017L76.1838 129.706C77.1498 132.007 78.4228 134.169 79.9686 136.134L80.0963 136.296L80.0051 136.486C79.0931 138.484 78.099 140.654 77.0867 142.814L76.9864 142.398L86.2614 149.386H85.8145L91.2136 144.866L91.3777 144.731L91.5784 144.812C93.9146 145.763 96.3681 146.402 98.8744 146.71L99.1662 146.936V146.991V147.09L99.2483 147.298L99.4033 147.714L99.7134 148.537L100.324 150.173L101.556 153.436L101.173 153.21L112.728 151.655L112.418 151.972C112.624 149.627 112.831 147.31 113.038 145.02V144.812L113.238 144.731C115.556 143.77 117.736 142.512 119.723 140.988L119.887 140.853L120.078 140.943L126.462 143.845L126.052 143.944L133.266 134.85V135.257L128.706 129.905L128.578 129.751L128.66 129.571C129.621 127.255 130.268 124.823 130.585 122.339V122.158L130.758 122.086L137.361 119.654L137.169 119.97C136.622 115.947 136.111 112.142 135.628 108.526L135.874 108.752L128.861 108.128H128.706L128.642 107.992C127.679 105.681 126.409 103.507 124.866 101.529L124.784 101.411L124.839 101.284L127.785 94.9565L127.849 95.2096L118.674 88.1765H118.875L113.448 92.6332H113.393H113.33C111.564 91.9015 109.731 91.3385 107.858 90.9518L106.471 90.6896C106.313 90.6763 106.157 90.646 106.006 90.5992H106.48C106.791 90.5992 107.256 90.6896 107.885 90.7981C109.774 91.1384 111.622 91.6684 113.403 92.3801H113.284L118.656 87.8601L118.747 87.7787L118.856 87.8601L128.159 94.8118L128.295 94.9203L128.223 95.074L125.322 101.402V101.158C126.906 103.16 128.209 105.365 129.198 107.712L128.989 107.558L136.002 108.146H136.221V108.354C136.731 111.97 137.251 115.776 137.817 119.807V120.033L137.598 120.124L131.004 122.574L131.205 122.33C130.885 124.857 130.229 127.331 129.253 129.688L129.198 129.363L133.758 134.714L133.932 134.913L133.767 135.121L126.718 144.324L126.554 144.541L126.307 144.423L119.923 141.531H120.279C118.245 143.098 116.009 144.39 113.631 145.373L113.849 145.083C113.649 147.379 113.439 149.694 113.238 152.035V152.315H112.956L101.346 153.997H101.054L100.963 153.726L99.7316 150.471L99.1115 148.826L98.8014 148.003L98.6464 147.596L98.5643 147.388V147.289V147.235L98.8562 147.461C96.3034 147.138 93.8044 146.485 91.4233 145.517L91.7973 145.454L86.3891 149.974L86.1702 150.164L85.8419 149.992L76.5669 142.986L76.3389 142.814L76.4574 142.561C77.4698 140.373 78.4729 138.204 79.3849 136.233L79.4305 136.586C77.8521 134.569 76.5517 132.353 75.5636 129.996L75.8464 130.203L68.8331 129.58H68.5595V129.318C68.0123 125.34 67.4925 121.462 67 117.864V117.611L67.2371 117.52L73.8309 115.089L73.6393 115.342C73.9581 112.812 74.6208 110.337 75.6093 107.983V108.281L71.0949 102.921L70.9489 102.749L71.0857 102.577L78.172 93.3926L78.2905 93.2298L78.482 93.3202L84.866 96.2311H84.6198C86.6496 94.6787 88.8794 93.4019 91.25 92.4343L91.1224 92.6061C91.3504 90.102 91.5693 87.7606 91.7699 85.6543V85.5097H91.9158L103.498 84H103.589V84.0904L105.359 88.9539L105.806 90.2195C105.873 90.3446 105.931 90.4745 105.979 90.6082Z" fill="#263238"/>
<path d="M100.11 106.221C101.128 105.998 102.176 105.944 103.211 106.058C106.076 106.324 108.76 107.563 110.808 109.566C112.229 110.944 113.301 112.635 113.936 114.502C114.671 116.656 114.807 118.967 114.329 121.191C113.782 123.655 112.513 125.904 110.681 127.655C108.724 129.539 106.209 130.752 103.506 131.116C100.803 131.48 98.0534 130.977 95.6599 129.68C94.517 129.081 93.4817 128.299 92.5956 127.366C91.7273 126.492 90.9985 125.492 90.4342 124.4C89.379 122.384 88.8906 120.123 89.0205 117.856C89.1315 115.888 89.7096 113.973 90.7078 112.269C92.1337 109.779 94.3916 107.861 97.0918 106.845C98.0545 106.462 99.0744 106.239 100.11 106.185C99.1228 106.437 98.1487 106.738 97.1921 107.089C94.6217 108.176 92.4928 110.086 91.1455 112.513C90.1534 114.28 89.6229 116.266 89.6022 118.288C89.5815 120.311 90.0713 122.306 91.0269 124.093C92.1554 126.198 93.884 127.927 95.9973 129.065C98.265 130.291 100.869 130.767 103.428 130.422C105.988 130.077 108.369 128.93 110.225 127.149C111.964 125.498 113.168 123.37 113.681 121.038C114.122 119.064 114.056 117.012 113.491 115.069C112.925 113.127 111.878 111.356 110.443 109.918C108.492 107.932 105.921 106.658 103.147 106.302C102.137 106.225 101.124 106.198 100.11 106.221Z" fill="#263238"/>
<path fill-rule="evenodd" clip-rule="evenodd" d="M32.0476 53.4692C34.1405 53.7298 36.1891 54.2648 38.1398 55.0602L42.6086 51.3448L50.2876 57.1394L47.8709 62.4098C49.1684 64.0691 50.2358 65.8934 51.0446 67.8338L56.854 68.34L58.1491 77.823L52.6771 79.8479C52.4153 81.9197 51.8756 83.9475 51.072 85.8776L54.8203 90.3162L48.9744 97.9279L43.6574 95.5323C41.9834 96.8185 40.143 97.8766 38.1854 98.6782L37.7112 104.392L28.1443 105.675L26.1014 100.251C24.0113 99.9918 21.9655 99.4567 20.0184 98.6602L15.5405 102.376L7.86144 96.581L10.2782 91.3106C8.98064 89.6513 7.91324 87.827 7.10446 85.8866L1.29502 85.3804L0 75.8974L5.472 73.8725C5.73486 71.798 6.27457 69.7673 7.07707 67.8338L3.32877 63.4042L9.17472 55.7925L14.4916 58.1881C16.1657 56.9019 18.0061 55.8439 19.9636 55.0422L20.4744 49.2837L30.0413 48L32.0842 53.424L32.0476 53.4692ZM29.184 66.5501C27.0453 66.6167 24.9799 67.3381 23.2715 68.6152C21.5631 69.8922 20.2954 71.6623 19.6428 73.6822C18.9901 75.7021 18.9845 77.8728 19.6266 79.896C20.2687 81.9193 21.527 83.6958 23.2287 84.9816C24.9304 86.2674 26.992 86.9994 29.1303 87.077C31.2687 87.1546 33.3787 86.5741 35.1708 85.4151C36.9628 84.2561 38.3489 82.5755 39.1385 80.6042C39.9281 78.6329 40.0826 76.4677 39.5808 74.4058C39.0223 72.1116 37.6837 70.0781 35.7902 68.6473C33.8967 67.2166 31.5638 66.4759 29.184 66.5501Z" fill="#263238"/>
</svg>
