<svg width="629" height="443" viewBox="0 0 629 443" fill="none" xmlns="http://www.w3.org/2000/svg">
<path d="M575.711 158.302C576.739 159.503 577.526 160.91 578.028 162.44C578.529 163.97 578.734 165.591 578.63 167.206C578.401 170.439 577.471 173.574 575.912 176.367C573.061 181.843 567.727 186.29 562.611 189.436C559.676 183.234 561.487 175.41 562.611 171.512C564.431 165.31 571.275 155.36 575.678 158.302" fill="#EBEBEB"/>
<path d="M564.247 201.219C564.573 199.443 565.338 197.789 566.465 196.426C567.592 195.063 569.04 194.039 570.662 193.458C572.29 192.903 574.007 192.695 575.711 192.847C577.416 192.999 579.075 193.508 580.592 194.344C582.001 195.088 583.393 196.222 583.737 197.888C583.848 198.66 583.764 199.45 583.493 200.176C583.222 200.903 582.774 201.541 582.194 202.026C581.019 202.984 579.624 203.595 578.152 203.798C573.12 204.684 568.18 204.613 564.247 201.246" fill="#EBEBEB"/>
<path d="M551.532 216.273C551.709 215.885 551.917 215.515 552.153 215.165L553.948 212.224C555.491 209.778 557.621 206.243 561.026 203.364C563.878 200.868 567.309 199.222 570.964 198.597C572.075 198.425 573.201 198.395 574.319 198.508C574.62 198.534 574.92 198.578 575.216 198.641C575.426 198.641 575.527 198.703 575.527 198.721C574.026 198.626 572.52 198.691 571.031 198.916C567.445 199.639 564.092 201.313 561.286 203.78C557.931 206.571 555.801 210.035 554.199 212.436C553.403 213.65 552.757 214.634 552.287 215.298C552.067 215.648 551.814 215.975 551.532 216.273Z" fill="#E0E0E0"/>
<path d="M571.132 166.391C571.096 166.575 571.045 166.756 570.981 166.931L570.495 168.446C570.059 169.766 569.404 171.654 568.582 173.984C566.905 178.644 564.565 185.05 561.806 192.058C559.047 199.066 556.413 205.348 554.443 209.885C553.461 212.144 552.648 213.96 552.078 215.201C551.801 215.785 551.574 216.264 551.407 216.636C551.335 216.807 551.248 216.97 551.147 217.123C551.186 216.942 551.246 216.767 551.323 216.6C551.482 216.219 551.675 215.714 551.927 215.121L554.166 209.734C556.061 205.18 558.653 198.88 561.412 191.872C564.171 184.864 566.578 178.485 568.297 173.851L570.335 168.367C570.57 167.764 570.755 167.268 570.906 166.887C570.963 166.713 571.039 166.547 571.132 166.391Z" fill="#E0E0E0"/>
<path d="M554.971 201.281C555.775 197.56 555.727 193.689 554.832 189.991C553.936 186.293 552.219 182.874 549.822 180.017C548.597 178.573 546.794 177.209 545.066 177.864C543.339 178.52 542.785 180.797 542.752 182.737C542.747 186.787 543.878 190.747 546 194.12C548.122 197.492 551.141 200.126 554.677 201.689" fill="#EBEBEB"/>
<path d="M548.488 185.803C548.784 186.066 549.052 186.363 549.285 186.689C549.588 187.031 549.868 187.395 550.123 187.779C550.434 188.231 550.82 188.709 551.163 189.312C551.562 189.947 551.929 190.603 552.262 191.279C552.66 192.045 553.016 192.835 553.327 193.644C554.043 195.508 554.555 197.452 554.854 199.439C555.123 201.428 555.173 203.444 555.004 205.446C554.928 206.318 554.802 207.185 554.627 208.042C554.488 208.791 554.306 209.531 554.082 210.257C553.914 210.858 553.715 211.45 553.486 212.029C553.33 212.473 553.145 212.905 552.933 213.322C552.785 213.695 552.603 214.051 552.388 214.385C552.296 214.385 553.076 212.817 553.797 210.159C553.994 209.439 554.153 208.709 554.275 207.971C554.43 207.124 554.542 206.27 554.61 205.41C554.758 203.44 554.698 201.458 554.434 199.501C554.136 197.552 553.644 195.643 552.967 193.804C552.631 192.962 552.321 192.165 551.952 191.447C551.634 190.773 551.285 190.116 550.903 189.48C549.494 187.123 548.371 185.865 548.488 185.803Z" fill="#E0E0E0"/>
<path d="M54.5636 103.077C54.5636 103.077 46.8479 105.735 54.3288 123.189C61.8097 140.644 67.152 149.397 67.152 149.397C67.152 149.397 68.4352 153.429 65.2483 153.889C62.0613 154.35 55.1843 152.835 53.574 156.849C51.8967 161.004 54.6643 165.142 60.4092 168.942C66.154 172.743 78.4573 181.541 79.5643 182.339C80.6713 183.136 81.6945 184.997 79.5643 185.706C77.4341 186.414 61.7259 187.336 62.5981 195.186C63.4703 203.036 81.1326 210.868 83.028 211.754C84.9234 212.64 85.3679 213.526 85.1582 214.66C84.9485 215.794 79.6398 215.546 75.1781 216.042C70.7164 216.538 65.6257 217.867 66.4895 222.351C67.3533 226.834 77.5767 236.677 103.29 240.629L115.317 241.639L122.345 231.211C136.116 207.935 135.612 193.334 132.937 189.737C130.262 186.14 125.976 189.365 122.764 192.661C119.552 195.957 116.256 200.369 115.317 199.811C114.377 199.253 114 198.331 114.587 196.214C115.174 194.096 120.969 174.826 115.862 169.049C110.754 163.272 99.9271 175.322 98.0485 176.598C96.1699 177.873 95.4906 175.8 95.6248 174.409C95.759 173.018 97.3524 157.398 98.3253 150.31C99.2981 143.222 98.0821 138.349 94.0145 137.02C90.0896 135.709 86.7181 142.247 84.3279 144.515C81.9377 146.784 79.8578 143.142 79.8578 143.142C79.8578 143.142 76.998 133.201 69.2152 115.871C61.4323 98.5409 54.3959 103.21 54.3959 103.21" fill="#EBEBEB"/>
<path d="M115.82 244.642C110.15 231.884 100.439 209.043 92.0017 189.48C83.5647 169.917 75.9161 152.215 70.3054 139.439L63.6548 124.306L61.8517 120.195L61.3904 119.114C61.3271 118.988 61.2711 118.857 61.2227 118.724C61.2227 118.724 61.2898 118.839 61.4072 119.078L61.902 120.142C62.3297 121.09 62.9587 122.463 63.7722 124.226C65.3908 127.77 67.6972 132.918 70.5319 139.288C76.2012 152.038 83.8918 169.722 92.3372 189.285C100.783 208.848 110.452 231.742 116.063 244.536" fill="#E0E0E0"/>
<path d="M63.1516 159.374C63.4393 159.443 63.7202 159.541 63.9903 159.666C64.5103 159.87 65.265 160.198 66.1876 160.605C68.0326 161.429 70.557 162.634 73.3246 164.016L80.3862 167.56L82.5332 168.624C82.8028 168.739 83.0611 168.881 83.3048 169.049C83.0151 168.992 82.7333 168.897 82.4661 168.765C81.9377 168.561 81.1913 168.234 80.2688 167.817C78.4237 166.931 75.9161 165.735 73.1569 164.353L66.0702 160.809L63.9232 159.755C63.6532 159.659 63.3944 159.531 63.1516 159.374Z" fill="#E0E0E0"/>
<path d="M84.1518 168.34C84.0596 168.34 86.1814 162.687 88.8903 155.821C91.5992 148.954 93.9223 143.417 93.9726 143.417C94.0229 143.417 91.9514 149.069 89.2341 155.945C86.5169 162.82 84.2524 168.34 84.1518 168.34Z" fill="#E0E0E0"/>
<path d="M95.826 198.951C95.9765 198.681 96.1536 198.429 96.3544 198.198C96.757 197.658 97.2686 196.993 97.8724 196.205C99.1472 194.521 100.908 192.182 102.762 189.533C104.615 186.884 106.217 184.439 107.366 182.649L108.725 180.531C108.879 180.264 109.055 180.012 109.253 179.778C109.152 180.074 109.014 180.354 108.842 180.611C108.557 181.143 108.129 181.887 107.584 182.8C106.494 184.634 104.926 187.123 103.055 189.772C101.185 192.421 99.4072 194.743 98.0737 196.382C97.4027 197.197 96.8576 197.853 96.4634 198.296C96.2771 198.541 96.063 198.761 95.826 198.951Z" fill="#E0E0E0"/>
<path d="M75.1445 195.31C75.4251 195.29 75.7069 195.308 75.9832 195.363L78.2057 195.655C80.0759 195.93 82.659 196.329 85.5105 196.789C88.3619 197.25 90.9366 197.675 92.7985 198.03L95.0042 198.455C95.2766 198.488 95.5442 198.557 95.8009 198.659C95.5203 198.678 95.2386 198.661 94.9622 198.606L92.7481 198.313C90.8695 198.039 88.2864 197.64 85.435 197.179C82.5835 196.719 80.0088 196.293 78.147 195.939L75.9497 195.514C75.6749 195.478 75.4049 195.409 75.1445 195.31Z" fill="#E0E0E0"/>
<path d="M82.1893 223.759C82.5404 223.75 82.8915 223.777 83.2377 223.839L86.0891 224.211C88.4877 224.539 91.8005 225.017 95.457 225.576C99.1136 226.134 102.426 226.657 104.817 227.064L107.651 227.551C108.001 227.602 108.346 227.682 108.683 227.791C108.329 227.8 107.975 227.773 107.626 227.711L104.783 227.339C102.384 227.011 99.0633 226.524 95.4067 225.965C91.7501 225.407 88.4374 224.885 86.0472 224.486L83.2209 223.99C82.871 223.947 82.5256 223.87 82.1893 223.759Z" fill="#E0E0E0"/>
<path d="M108.079 227.507C108.266 227.16 108.482 226.831 108.725 226.524C109.194 225.85 109.815 224.982 110.561 223.928C112.113 221.73 114.243 218.691 116.508 215.263C118.772 211.834 120.751 208.68 122.16 206.403L123.838 203.683C124.027 203.34 124.243 203.014 124.483 202.708C124.337 203.075 124.16 203.428 123.955 203.762C123.594 204.427 123.058 205.384 122.378 206.544C121.02 208.883 119.074 212.073 116.801 215.502C114.528 218.931 112.373 221.961 110.763 224.114C109.924 225.186 109.295 226.054 108.825 226.639C108.604 226.953 108.354 227.244 108.079 227.507Z" fill="#E0E0E0"/>
<path d="M303.991 207.9C282.505 196.479 274.42 170.413 271.904 146.261C271.485 142.23 270.487 138.065 271.812 134.273C273.137 130.481 277.02 127.425 280.651 128.603C283.662 129.569 285.365 132.847 287.361 135.469C289.99 138.973 293.506 141.618 297.5 143.098C300.1 144.055 303.203 144.409 305.4 142.655C308.411 140.245 308.143 135.407 307.573 131.42C306.51 123.984 305.448 116.553 304.386 109.129C303.815 105.142 303.253 101.075 303.908 97.1056C304.562 93.1363 306.675 89.2291 310.122 87.6165C313.569 86.004 318.316 87.5102 319.607 91.3023C320.144 92.8794 320.06 94.6159 320.396 96.255C320.731 97.8941 321.704 99.613 323.256 99.8522C324.807 100.091 326.191 98.727 327.155 97.3803C330.51 92.7642 332.439 87.1647 334.209 81.6272C335.978 76.0897 337.647 70.437 340.583 65.502C343.518 60.567 347.938 56.3407 353.297 55.1889C358.656 54.0371 364.912 56.6863 367.042 62.0909C369.173 67.4955 366.858 73.6886 364.099 78.7565C360.025 86.2839 354.94 93.1479 349.003 99.1345C347.929 100.207 346.772 101.367 346.487 102.918C346.034 105.7 348.776 107.977 351.385 108.473C354.337 109.031 357.347 108.26 360.342 108.172C363.336 108.083 366.715 108.978 368.233 111.716C370.338 115.561 367.697 120.328 364.879 123.615C359.285 130.194 352.661 135.706 345.296 139.908C342.662 141.406 339.87 142.797 337.907 145.224C335.945 147.652 335.089 151.426 336.825 154.022C338.561 156.618 342.159 156.999 344.994 155.98C347.829 154.961 350.202 152.897 352.827 151.373C357.733 148.511 364.485 147.829 368.46 152.091C371.068 154.873 371.856 159.179 371.261 163.068C370.665 166.958 368.862 170.484 366.883 173.798C359.972 185.378 350.462 195.31 339.023 201.556C327.583 207.802 316.597 210.7 304 207.909" fill="#F5F5F5"/>
<path d="M307.791 191.934C309.78 178.266 312.507 164.73 315.959 151.391L318.626 140.874C319.507 137.427 320.379 134.007 321.427 130.72C323.452 124.409 325.806 118.221 328.481 112.185C330.997 106.409 333.571 101.022 336.029 95.9981C338.486 90.9745 340.876 86.3496 343.208 82.2297C346.865 75.7088 351.007 69.5051 355.595 63.6768C357.213 61.6124 358.522 60.0531 359.419 59.0165L360.442 57.8381C360.554 57.6967 360.677 57.5662 360.811 57.4482C360.723 57.6047 360.619 57.7503 360.501 57.8824L359.52 59.1139C358.681 60.186 357.389 61.7719 355.804 63.8629C351.312 69.7356 347.241 75.955 343.627 82.4689C341.321 86.5976 338.972 91.2314 336.54 96.255C334.108 101.279 331.55 106.674 329.059 112.442C326.403 118.475 324.063 124.656 322.048 130.96C321.008 134.238 320.144 137.622 319.264 141.078C318.383 144.533 317.511 148.042 316.613 151.586C313.163 164.898 310.422 178.404 308.403 192.041" fill="#E0E0E0"/>
<path d="M321.62 130.667C321.362 130.143 321.16 129.59 321.016 129.019C320.673 127.947 320.178 126.361 319.675 124.439C318.601 120.54 317.284 115.118 315.859 109.129C314.433 103.139 313.041 97.7435 311.917 93.8806C311.355 91.9491 310.885 90.3897 310.55 89.3177C310.343 88.7691 310.191 88.1989 310.097 87.6165C310.389 88.1178 310.625 88.6529 310.801 89.2113C311.221 90.2568 311.758 91.7985 312.387 93.7211C313.636 97.5486 315.104 102.944 316.538 108.943L320.153 124.297C320.594 126.14 320.972 127.687 321.285 128.94C321.459 129.5 321.571 130.08 321.62 130.667Z" fill="#E0E0E0"/>
<path d="M368.862 113.665C368.245 113.908 367.608 114.089 366.959 114.205C365.734 114.515 363.948 114.95 361.767 115.561C357.389 116.748 351.393 118.609 344.868 120.966C338.343 123.322 332.523 125.759 328.363 127.628C326.275 128.514 324.606 129.347 323.449 129.888C322.864 130.209 322.252 130.47 321.62 130.667C322.147 130.264 322.709 129.914 323.298 129.622C324.421 129.002 326.065 128.133 328.128 127.141C332.255 125.139 338.067 122.64 344.608 120.257C350.189 118.212 355.866 116.473 361.616 115.047C363.822 114.498 365.625 114.161 366.875 113.922C367.528 113.769 368.194 113.682 368.862 113.665Z" fill="#E0E0E0"/>
<path d="M308.269 190.898C308.105 190.729 307.964 190.539 307.849 190.331C307.556 189.861 307.204 189.285 306.767 188.559C305.828 187.052 304.528 184.837 302.96 182.082C299.815 176.562 295.697 168.792 291.261 160.153C286.824 151.515 282.773 143.753 279.737 138.216L276.131 131.624L275.158 129.852C275.031 129.648 274.93 129.428 274.856 129.197C275.021 129.366 275.162 129.56 275.276 129.772L276.357 131.544C277.297 133.051 278.597 135.266 280.165 138.03C283.31 143.55 287.436 151.32 291.906 159.958C296.376 168.597 300.385 176.385 303.421 181.967L307.027 188.567C307.422 189.285 307.74 189.888 308 190.339C308.11 190.514 308.2 190.701 308.269 190.898Z" fill="#E0E0E0"/>
<path d="M369.785 159.081C369.599 159.232 369.396 159.357 369.181 159.453L367.403 160.366L360.82 163.786C355.259 166.683 347.619 170.768 339.19 175.304C330.762 179.84 323.071 183.845 317.452 186.618C314.643 188 312.361 189.099 310.743 189.825L308.906 190.641C308.698 190.756 308.475 190.837 308.244 190.88C308.431 190.732 308.633 190.607 308.847 190.508L310.625 189.56L317.217 186.14C322.778 183.251 330.41 179.167 338.846 174.622C347.283 170.077 354.957 166.081 360.576 163.308C363.386 161.925 365.667 160.827 367.286 160.1L369.122 159.285C369.332 159.182 369.556 159.113 369.785 159.081Z" fill="#E0E0E0"/>
<path d="M476.547 98.9219C476.547 84.4624 462.172 75.31 447.513 82.5486C444.2 84.19 441.489 86.9355 439.797 90.3631C436.115 97.9119 437.742 106.524 441.088 113.683L452.494 144.223C452.854 145.197 453.483 146.034 454.3 146.624C455.117 147.214 456.084 147.53 457.073 147.53C458.063 147.53 459.03 147.214 459.847 146.624C460.664 146.034 461.293 145.197 461.652 144.223L472.84 113.514C476.707 104.132 476.547 98.9219 476.547 98.9219ZM462.776 111.503C452.922 117.554 442.933 106.364 448.334 95.3247C449.039 93.852 450.127 92.6224 451.471 91.7807C461.325 85.7294 471.306 96.9195 465.905 107.959C465.203 109.431 464.117 110.661 462.776 111.503Z" fill="#F5F5F5"/>
<path d="M595.453 393.455C595.453 393.588 469.653 393.685 314.55 393.685C159.447 393.685 33.597 393.588 33.597 393.455C33.597 393.322 159.347 393.225 314.55 393.225C469.754 393.225 595.453 393.331 595.453 393.455Z" fill="#263238"/>
<path d="M271.862 393.455L160.387 392.914C153.951 392.872 147.793 390.137 143.263 385.308C138.732 380.478 136.198 373.949 136.216 367.15L137.399 71.9078C137.436 65.1056 140.026 58.5968 144.599 53.8085C149.173 49.0202 155.357 46.3432 161.796 46.3644L273.271 46.9048C279.704 46.947 285.859 49.6799 290.389 54.5054C294.919 59.3309 297.455 65.8559 297.442 72.652L296.259 367.894C296.226 374.699 293.638 381.212 289.064 386.004C284.491 390.797 278.304 393.476 271.862 393.455Z" fill="#455A64"/>
<path d="M273.112 57.0938L251.499 56.9875C250.076 57.0155 248.722 57.6383 247.733 58.7196C246.744 59.8008 246.202 61.2521 246.224 62.7554V66.9019C246.235 67.6461 246.107 68.3854 245.848 69.0773C245.588 69.7693 245.202 70.4003 244.711 70.9344C244.22 71.4685 243.635 71.8951 242.988 72.1898C242.341 72.4846 241.645 72.6416 240.941 72.652L198.806 72.4482C197.384 72.4042 196.036 71.7672 195.057 70.6764C194.078 69.5857 193.547 68.1299 193.581 66.6272V62.4807C193.606 60.9879 193.073 59.5448 192.099 58.4636C191.124 57.3825 189.786 56.7504 188.373 56.704H180.775L161.863 56.5534C157.353 56.5298 153.02 58.3991 149.814 61.7503C146.609 65.1014 144.795 69.6601 144.771 74.424L143.622 362.604C143.602 367.368 145.373 371.946 148.547 375.33C151.721 378.714 156.037 380.629 160.546 380.652L271.803 381.193C274.037 381.203 276.251 380.749 278.318 379.855C280.385 378.962 282.266 377.647 283.852 375.986C285.439 374.325 286.7 372.35 287.564 370.174C288.428 367.998 288.877 365.664 288.887 363.304L290.036 75.1328C290.046 72.7744 289.616 70.4369 288.771 68.254C287.926 66.0711 286.682 64.0854 285.11 62.4103C283.539 60.7352 281.67 59.4036 279.612 58.4914C277.553 57.5792 275.344 57.1043 273.112 57.0938Z" fill="#FAFAFA"/>
<path d="M144.636 109.022H162.869L179.139 126.22L162.223 144.09L144.829 125.706L144.636 109.022Z" fill="#EBEBEB"/>
<path d="M182.854 118.671L173.713 109.022H194.277L182.854 118.671Z" fill="#EBEBEB"/>
<path d="M190.847 126.556L206.857 109.642H262.796C262.796 109.642 271.359 150.044 237.636 175.986L190.847 126.556Z" fill="#EBEBEB"/>
<path d="M183.995 131.943L166.87 150.044L214.263 200.112L231.388 181.408L183.995 131.943Z" fill="#EBEBEB"/>
<path d="M144.427 160.304L155.162 148.538L144.636 137.419L144.427 160.304Z" fill="#EBEBEB"/>
<path d="M161.586 155.475L145.098 172.894V197.1L179.139 233.895L207.981 205.543L161.586 155.475Z" fill="#EBEBEB"/>
<path d="M244.052 181.063C244.052 181.063 279.377 153.703 267.954 109.642H289.919L289.65 234.001L244.052 181.063Z" fill="#EBEBEB"/>
<path d="M237.41 188.24L220.335 207.076L272.701 262.407L288.719 244.474L237.41 188.24Z" fill="#EBEBEB"/>
<path d="M213.197 212.232L186.352 240.39L240.043 296.713L266.839 269.344L213.197 212.232Z" fill="#EBEBEB"/>
<path d="M199.125 353.31L240.169 308.372L279.209 350.413L199.125 353.31Z" fill="#EBEBEB"/>
<path d="M246.568 302.569L289.34 257.826C289.34 259.811 288.971 350.599 288.971 350.599L246.568 302.569Z" fill="#EBEBEB"/>
<path d="M209.977 277.442L234.223 303.056L186.352 355.242L164.236 327.218L209.977 277.442Z" fill="#EBEBEB"/>
<path d="M144.469 330.85C146.758 330.611 205.389 272.604 205.389 272.604L144.469 205.915V330.85Z" fill="#EBEBEB"/>
<path d="M143.622 344.069L157.736 330.85L177.286 355.242H143.622V345.912" fill="#EBEBEB"/>
<path d="M161.863 91.4618C160.371 90.299 158.969 89.0133 157.669 87.6165C157.669 86.9432 157.669 87.4305 157.669 87.2799L157.728 87.2267L157.829 87.1292L158.038 86.9255L158.441 86.5268L159.204 85.7825L160.521 84.5421C160.92 84.1117 161.371 83.7392 161.863 83.4346C161.563 83.9164 161.202 84.3518 160.789 84.7282L159.531 86.0395L158.785 86.8014L158.382 87.209L158.181 87.4128L158.072 87.5102L158.022 87.5634V87.2267C159.404 88.5306 160.689 89.9466 161.863 91.4618Z" fill="#263238"/>
<path d="M277.808 84.7016C277.81 84.8933 277.758 85.0813 277.658 85.2414C277.558 85.4016 277.415 85.5268 277.248 85.6009C277.081 85.6751 276.896 85.695 276.718 85.658C276.54 85.6211 276.376 85.5289 276.248 85.3933C276.119 85.2577 276.032 85.0848 275.997 84.8967C275.962 84.7085 275.981 84.5136 276.051 84.3368C276.121 84.1599 276.24 84.0092 276.392 83.9038C276.543 83.7983 276.721 83.743 276.903 83.7447C277.143 83.7447 277.373 83.8455 277.543 84.025C277.713 84.2044 277.808 84.4478 277.808 84.7016Z" fill="#263238"/>
<path d="M277.548 87.333C277.676 87.468 277.764 87.6401 277.799 87.8275C277.834 88.0149 277.816 88.2091 277.747 88.3857C277.678 88.5623 277.561 88.7132 277.411 88.8194C277.26 88.9256 277.083 88.9823 276.903 88.9823C276.722 88.9823 276.545 88.9256 276.395 88.8194C276.244 88.7132 276.127 88.5623 276.058 88.3857C275.989 88.2091 275.971 88.0149 276.006 87.8275C276.042 87.6401 276.129 87.468 276.257 87.333C276.429 87.1544 276.661 87.0544 276.903 87.0544C277.144 87.0544 277.376 87.1544 277.548 87.333Z" fill="#263238"/>
<path d="M277.808 91.32C277.787 91.5591 277.681 91.781 277.513 91.9424C277.345 92.1039 277.126 92.1934 276.898 92.1934C276.671 92.1934 276.452 92.1039 276.284 91.9424C276.115 91.781 276.01 91.5591 275.988 91.32C275.976 91.186 275.991 91.0508 276.031 90.9231C276.071 90.7953 276.136 90.6779 276.222 90.5782C276.307 90.4786 276.412 90.399 276.528 90.3445C276.645 90.29 276.771 90.2619 276.898 90.2619C277.026 90.2619 277.152 90.29 277.268 90.3445C277.385 90.399 277.489 90.4786 277.575 90.5782C277.661 90.6779 277.726 90.7953 277.766 90.9231C277.806 91.0508 277.821 91.186 277.808 91.32Z" fill="#263238"/>
<path d="M238.508 88.6266H199.276V92.082H238.508V88.6266Z" fill="#263238"/>
<path d="M234.24 150.62C234.24 134.477 218.188 124.253 201.817 132.342C198.113 134.17 195.082 137.237 193.195 141.069C189.077 149.495 190.897 159.117 194.629 167.108L207.377 201.228C207.78 202.316 208.483 203.249 209.396 203.907C210.309 204.566 211.388 204.918 212.493 204.918C213.598 204.918 214.677 204.566 215.59 203.907C216.503 203.249 217.206 202.316 217.609 201.228L230.097 166.931C234.424 156.476 234.24 150.62 234.24 150.62ZM218.892 164.707C207.889 171.468 196.734 158.975 202.764 146.642C203.559 145.015 204.771 143.658 206.262 142.726C217.273 135.966 228.428 148.458 222.389 160.791C221.598 162.42 220.385 163.778 218.892 164.707Z" fill="#FF725E"/>
<path d="M567.836 273.88H102.527V346.01H567.836V273.88Z" fill="#FF725E"/>
<g opacity="0.5">
<path d="M567.836 273.88H102.527V346.01H567.836V273.88Z" fill="black"/>
</g>
<path d="M168.071 392.813C192.796 391.055 211.49 368.456 209.826 342.336C208.162 316.216 186.77 296.467 162.046 298.225C137.322 299.982 118.628 322.582 120.291 348.701C121.955 374.821 143.347 394.57 168.071 392.813Z" fill="#263238"/>
<path d="M120.198 344.716C120.198 344.76 120.198 344.805 120.198 344.84C120.112 351.065 121.188 357.246 123.364 363.032C125.54 368.817 128.774 374.093 132.88 378.559C136.986 383.024 141.884 386.591 147.295 389.057C152.706 391.522 158.524 392.838 164.416 392.928C170.309 393.018 176.16 391.881 181.636 389.582C187.113 387.283 192.107 383.868 196.334 379.53C200.561 375.192 203.937 370.017 206.271 364.301C208.605 358.584 209.85 352.438 209.935 346.213C209.935 346.169 209.935 346.125 209.935 346.089L120.198 344.716Z" fill="#263238"/>
<path d="M133.558 345.044C133.465 351.626 135.223 358.089 138.608 363.615C141.993 369.142 146.853 373.484 152.575 376.092C158.296 378.7 164.62 379.456 170.749 378.267C176.877 377.077 182.534 373.994 187.003 369.407C191.472 364.82 194.554 358.936 195.858 352.5C197.161 346.063 196.629 339.362 194.327 333.245C192.026 327.128 188.059 321.869 182.928 318.134C177.797 314.399 171.733 312.355 165.502 312.262C157.152 312.136 149.096 315.519 143.106 321.666C137.116 327.814 133.681 336.222 133.558 345.044Z" fill="#FAFAFA"/>
<path d="M165.502 312.253C157.151 312.125 149.094 315.507 143.104 321.655C137.113 327.803 133.679 336.213 133.558 345.035L196.55 346.001C196.669 337.176 193.464 328.663 187.642 322.334C181.819 316.005 173.856 312.379 165.502 312.253Z" fill="#E0E0E0"/>
<path d="M145.869 345.23C145.813 349.239 146.884 353.176 148.946 356.543C151.009 359.909 153.97 362.554 157.455 364.143C160.94 365.731 164.793 366.192 168.526 365.467C172.259 364.741 175.705 362.863 178.427 360.069C181.15 357.274 183.026 353.69 183.82 349.769C184.614 345.847 184.289 341.766 182.887 338.039C181.484 334.313 179.068 331.11 175.942 328.835C172.816 326.56 169.122 325.316 165.326 325.259C162.808 325.221 160.306 325.707 157.965 326.689C155.624 327.672 153.489 329.132 151.682 330.987C149.875 332.841 148.432 335.054 147.435 337.498C146.437 339.941 145.905 342.569 145.869 345.23Z" fill="#263238"/>
<path d="M510.77 392.796C535.509 391.28 554.4 368.865 552.965 342.73C551.53 316.595 530.312 296.637 505.573 298.153C480.834 299.669 461.943 322.085 463.378 348.22C464.813 374.355 486.031 394.312 510.77 392.796Z" fill="#263238"/>
<path d="M463.296 344.716C463.296 344.76 463.296 344.805 463.296 344.84C463.211 351.065 464.287 357.246 466.463 363.032C468.639 368.817 471.872 374.093 475.978 378.559C480.084 383.024 484.983 386.591 490.394 389.057C495.805 391.522 501.623 392.838 507.515 392.928C513.407 393.018 519.259 391.881 524.735 389.582C530.211 387.283 535.205 383.868 539.432 379.53C543.659 375.192 547.036 370.017 549.369 364.301C551.703 358.584 552.948 352.438 553.034 346.213C553.034 346.169 553.034 346.125 553.034 346.089L463.296 344.716Z" fill="#263238"/>
<path d="M476.656 345.044C476.564 351.626 478.321 358.089 481.706 363.615C485.092 369.142 489.952 373.484 495.673 376.092C501.394 378.7 507.719 379.456 513.847 378.267C519.975 377.077 525.632 373.994 530.102 369.407C534.571 364.82 537.652 358.936 538.956 352.5C540.26 346.063 539.727 339.362 537.426 333.245C535.124 327.128 531.157 321.869 526.026 318.134C520.895 314.399 514.831 312.355 508.601 312.262C500.251 312.136 492.195 315.519 486.205 321.666C480.214 327.814 476.78 336.222 476.656 345.044Z" fill="#FAFAFA"/>
<path d="M508.601 312.253C500.25 312.125 492.193 315.507 486.202 321.655C480.211 327.803 476.778 336.213 476.656 345.035L539.648 346.001C539.767 337.176 536.563 328.663 530.74 322.334C524.918 316.005 516.954 312.379 508.601 312.253Z" fill="#E0E0E0"/>
<path d="M488.943 345.23C488.887 349.239 489.957 353.176 492.02 356.543C494.082 359.909 497.043 362.554 500.528 364.143C504.013 365.731 507.866 366.192 511.599 365.467C515.332 364.741 518.778 362.863 521.501 360.069C524.223 357.274 526.1 353.69 526.894 349.769C527.687 345.847 527.363 341.766 525.96 338.039C524.558 334.313 522.141 331.11 519.015 328.835C515.889 326.56 512.195 325.316 508.4 325.259C505.881 325.221 503.379 325.707 501.038 326.689C498.697 327.672 496.562 329.132 494.756 330.987C492.949 332.841 491.505 335.054 490.508 337.498C489.511 339.941 488.979 342.569 488.943 345.23Z" fill="#263238"/>
<path d="M223.865 233.302C223.865 233.302 157.795 238.449 133.289 244.252C116.03 248.337 82.7512 255.398 83.1538 277.513L85.7956 293.372C85.7956 293.372 73.4588 299.326 73.4588 314.53C73.4588 329.734 70.448 353.301 99.2646 354.249C104.011 354.4 113.027 354.249 113.027 354.249C113.027 354.249 107.5 289.412 163.875 287.516C221.232 285.584 217.424 353.656 217.424 353.656H456.805C456.805 353.656 446.976 287.339 508.718 287.206C570.461 287.073 561.068 354.09 561.068 354.09C561.068 354.09 583.779 356.163 594.346 335.998C604.913 315.832 602.171 301.444 602.171 301.444L601.819 288.694C601.752 286.602 600.935 284.614 599.534 283.134C598.133 281.654 596.251 280.791 594.271 280.72C594.271 280.72 598.397 248.629 592.065 243.074C585.733 237.519 551.038 204.002 551.038 204.002L552.715 202.912C553.337 202.496 553.834 201.904 554.15 201.202C554.466 200.5 554.587 199.718 554.499 198.946C554.411 198.175 554.118 197.445 553.654 196.842C553.19 196.239 552.573 195.788 551.876 195.54C538.701 190.756 512.652 181.284 506.529 179.025C505.613 178.681 504.657 178.466 503.686 178.387C500.03 178.095 489.681 177.404 470.685 177.191C447.546 176.925 355.679 177.191 355.679 177.191C355.679 177.191 324.061 179.938 306.449 188.124C287.981 196.736 223.865 233.302 223.865 233.302Z" fill="#FF725E"/>
<g opacity="0.4">
<path d="M90.2154 312.758C87.8168 312.244 84.1434 312.2 82.3151 313.91C80.9565 315.186 80.5959 317.25 80.3946 319.155C80.0094 321.764 80.0662 324.425 80.5623 327.014C80.8153 328.307 81.3184 329.53 82.04 330.608C82.7615 331.686 83.6861 332.595 84.7557 333.278C86.953 334.536 89.9554 334.332 91.6579 332.392C93.2178 330.62 93.3939 327.962 93.3352 325.596C93.2765 322.176 93.5365 319.279 92.941 315.921C92.8097 315.208 92.5225 314.538 92.1024 313.963C91.8935 313.619 91.6122 313.33 91.2806 313.12C90.949 312.909 90.5758 312.783 90.1902 312.749" fill="black"/>
</g>
<path d="M85.8124 293.372C92.8236 293.372 99.6252 292.965 106.628 292.486C107.391 292.522 108.142 292.281 108.758 291.804C109.04 291.434 109.25 291.008 109.375 290.552C109.5 290.096 109.538 289.618 109.488 289.146C109.488 285.177 109.337 280.658 106.486 278.071C104.741 276.494 102.351 275.998 100.061 275.776C94.3757 275.127 88.6244 275.731 83.1706 277.548L85.8124 293.372Z" fill="#FAFAFA"/>
<path d="M231.472 351.627C231.472 351.627 231.472 351.414 231.422 350.989C231.371 350.564 231.355 349.935 231.304 349.128C231.22 347.48 231.095 345.079 230.935 341.978C230.776 338.877 230.575 335.076 230.155 330.682C229.722 325.706 228.895 320.777 227.681 315.948C226.15 310.114 223.879 304.526 220.93 299.335C217.589 293.341 213.15 288.112 207.872 283.954C196.558 275.449 181.269 270.664 165.276 270.434C149.283 270.203 133.985 275.546 122.949 284.503C117.658 288.638 113.024 293.636 109.22 299.309C105.898 304.234 103.197 309.595 101.185 315.257C99.5256 319.936 98.3858 324.803 97.7885 329.76C97.3208 333.498 97.1833 337.274 97.3776 341.039C97.5152 343.418 97.7953 345.786 98.2163 348.127C98.3504 348.916 98.4595 349.527 98.5266 349.952C98.5937 350.378 98.6188 350.581 98.6188 350.581C98.6188 350.581 98.5685 350.378 98.4846 349.97L98.124 348.198C97.6676 345.86 97.3649 343.492 97.2182 341.11C96.9902 337.333 97.1025 333.542 97.5537 329.787C98.1317 324.805 99.2575 319.91 100.908 315.203C102.913 309.497 105.614 304.091 108.943 299.122C112.756 293.404 117.411 288.367 122.73 284.202C133.818 275.2 149.148 269.805 165.268 270.026C181.387 270.248 196.701 275.076 208.107 283.662C213.416 287.861 217.879 293.139 221.232 299.184C224.178 304.415 226.436 310.046 227.941 315.921C229.148 320.771 229.959 325.721 230.365 330.717C230.759 335.147 230.935 338.922 231.069 342.023C231.204 345.124 231.296 347.533 231.363 349.181C231.363 349.988 231.413 350.608 231.43 351.042C231.447 351.476 231.472 351.627 231.472 351.627Z" fill="white"/>
<path d="M233.988 352.725V352.194L233.938 350.626C233.896 349.226 233.837 347.179 233.753 344.503C233.611 339.125 233.401 331.267 233.133 321.264C232.864 311.261 232.554 299.114 232.193 285.203C232.101 281.721 232.017 278.115 231.916 274.439C231.858 272.56 231.936 270.679 232.151 268.812L232.529 265.959L233.082 263.098C233.951 259.188 235.201 255.384 236.814 251.748C238.475 247.936 240.528 244.329 242.937 240.992L284.392 213.402L295.588 205.96C299.362 203.31 303.324 200.973 307.438 198.969C311.646 196.876 315.964 195.039 320.371 193.467C322.568 192.652 324.824 191.987 327.08 191.279C329.336 190.57 331.634 189.985 333.965 189.507C342.757 187.52 351.694 186.334 360.677 185.963C369.297 185.526 377.933 185.556 386.55 186.051H386.793L386.734 186.308L375.597 238.945C373.539 242.515 371.852 246.308 370.565 250.26C369.298 254.007 368.728 257.979 368.888 261.955C369.173 265.844 369.273 269.654 369.366 273.349C369.458 277.043 369.5 280.623 369.567 284.105C369.76 298.015 369.81 310.144 369.844 320.138C369.877 330.132 369.844 337.991 369.844 343.36C369.844 346.018 369.844 348.083 369.844 349.483C369.844 350.165 369.844 350.688 369.844 351.051C369.844 351.414 369.844 351.583 369.844 351.583C369.844 351.583 369.844 351.396 369.844 351.051C369.844 350.705 369.844 350.165 369.844 349.483C369.844 348.083 369.844 346.036 369.844 343.36C369.844 337.991 369.768 330.132 369.709 320.147C369.651 310.162 369.567 297.997 369.34 284.105C369.273 280.632 369.201 277.049 369.122 273.358C369.022 269.663 368.921 265.871 368.628 261.981C368.457 257.955 369.027 253.933 370.305 250.136C371.584 246.152 373.271 242.328 375.337 238.733V238.795C378.75 222.59 382.482 204.905 386.432 186.149L386.625 186.414C378.027 185.925 369.411 185.901 360.811 186.344C351.849 186.71 342.935 187.896 334.167 189.888C331.844 190.375 329.579 191.057 327.306 191.66C325.034 192.262 322.811 193.033 320.597 193.839C316.19 195.413 311.872 197.253 307.665 199.35C303.571 201.341 299.628 203.663 295.873 206.296L284.669 213.739L243.213 241.267V241.222C240.81 244.537 238.762 248.124 237.108 251.916C235.497 255.525 234.249 259.302 233.384 263.186C231.497 270.779 232.445 278.248 232.462 285.203L233.3 321.264C233.527 331.258 233.703 339.125 233.82 344.495C233.879 347.153 233.913 349.226 233.946 350.626C233.946 351.305 233.946 351.828 233.946 352.194C233.988 352.548 233.988 352.725 233.988 352.725Z" fill="#263238"/>
<path d="M386.248 187.513H386.642L387.791 187.469L392.244 187.354L408.758 187.017L464.428 186.007H464.538L464.605 186.095L472.404 196.187C480.304 206.438 487.836 216.184 494.679 225.044L497.195 228.322C498.01 229.421 498.71 230.609 499.283 231.866C500.323 234.197 500.887 236.733 500.94 239.309C500.994 241.885 500.535 244.445 499.594 246.822L497.078 253.024L489.379 271.843L487.265 276.946L486.703 278.275C486.578 278.567 486.502 278.718 486.502 278.718C486.502 278.718 486.553 278.558 486.662 278.257C486.771 277.956 486.963 277.486 487.182 276.91C487.66 275.723 488.339 273.987 489.219 271.772L496.767 252.9C498.21 248.895 500.751 244.678 500.575 239.539C500.538 236.927 499.965 234.355 498.898 231.999C498.335 230.776 497.649 229.62 496.851 228.553L494.335 225.274L472.035 196.444L464.244 186.352L464.412 186.441L408.733 187.327L392.219 187.531H387.766H386.625L386.248 187.513Z" fill="#263238"/>
<path d="M358.111 265.729C358.111 265.729 358.346 265.729 358.773 265.623C359.402 265.505 360.002 265.251 360.534 264.879C361.38 264.296 362.012 263.428 362.329 262.415C362.521 261.787 362.601 261.126 362.564 260.466C362.544 259.731 362.366 259.01 362.044 258.358C361.669 257.615 361.113 256.993 360.433 256.555C359.753 256.117 358.974 255.88 358.178 255.868H352.525H339.568C338.473 255.87 337.42 256.306 336.616 257.091C335.831 257.845 335.33 258.874 335.207 259.988C335.079 261.064 335.267 262.155 335.743 263.115C336.23 264.017 336.985 264.724 337.89 265.127C338.787 265.452 339.738 265.575 340.683 265.49H343.426H348.357L355.494 265.561L357.431 265.605C357.659 265.6 357.886 265.618 358.111 265.658C357.885 265.686 357.658 265.701 357.431 265.703H355.494L348.357 265.773H343.426H340.683C340.205 265.773 339.744 265.773 339.232 265.773C338.719 265.74 338.215 265.618 337.739 265.41C336.745 264.979 335.915 264.208 335.383 263.222C334.851 262.185 334.642 260.998 334.787 259.828C334.919 258.585 335.479 257.437 336.361 256.602C337.242 255.767 338.384 255.304 339.568 255.301H352.525H358.186C359.042 255.32 359.877 255.583 360.603 256.061C361.33 256.54 361.92 257.217 362.312 258.021C362.648 258.719 362.829 259.489 362.841 260.271C362.868 260.963 362.774 261.654 362.564 262.309C362.209 263.362 361.526 264.256 360.627 264.843C360.072 265.216 359.444 265.449 358.79 265.525C358.572 265.622 358.344 265.69 358.111 265.729Z" fill="#263238"/>
<path d="M482.233 265.729C482.233 265.729 482.468 265.729 482.896 265.623C483.525 265.505 484.125 265.251 484.657 264.879C485.502 264.296 486.135 263.428 486.452 262.415C486.644 261.787 486.724 261.126 486.687 260.466C486.667 259.731 486.489 259.01 486.167 258.358C485.792 257.615 485.235 256.993 484.555 256.555C483.875 256.117 483.097 255.88 482.3 255.868H476.648H463.69C462.596 255.87 461.542 256.306 460.738 257.091C459.953 257.845 459.453 258.874 459.329 259.988C459.202 261.064 459.389 262.155 459.866 263.115C460.353 264.017 461.107 264.724 462.013 265.127C462.91 265.452 463.861 265.575 464.806 265.49H467.548H472.48L479.617 265.561L481.554 265.605C481.782 265.6 482.009 265.618 482.233 265.658C482.008 265.686 481.781 265.701 481.554 265.703H479.617L472.48 265.773H467.548H464.806C464.328 265.773 463.867 265.773 463.355 265.773C462.842 265.74 462.337 265.618 461.862 265.41C460.868 264.979 460.038 264.208 459.506 263.222C458.973 262.185 458.765 260.998 458.91 259.828C459.042 258.585 459.602 257.437 460.483 256.602C461.365 255.767 462.506 255.304 463.69 255.301H476.648H482.309C483.165 255.32 484 255.583 484.726 256.061C485.452 256.54 486.043 257.217 486.435 258.021C486.771 258.719 486.952 259.489 486.963 260.271C486.991 260.963 486.897 261.654 486.687 262.309C486.332 263.362 485.649 264.256 484.749 264.843C484.195 265.216 483.566 265.449 482.913 265.525C482.695 265.622 482.467 265.69 482.233 265.729Z" fill="#263238"/>
<path d="M591 244.341H566.176C564.507 244.341 562.869 244.821 561.44 245.732C560.011 246.642 558.844 247.947 558.066 249.506C557.426 250.797 557.069 252.223 557.023 253.678C556.976 255.134 557.241 256.582 557.797 257.915L567.526 281.278L592.384 281.021C592.384 281.021 597.676 251.403 591 244.341Z" fill="#FAFAFA"/>
<path d="M246.233 241.036L374.322 238.538L457.686 236.925L485.177 220.153C485.7 219.832 486.152 219.397 486.503 218.877C486.855 218.357 487.097 217.764 487.216 217.137C487.334 216.511 487.324 215.865 487.188 215.242C487.052 214.619 486.793 214.035 486.427 213.526L469.31 189.772C468.43 188.549 467.297 187.556 465.997 186.867C464.697 186.179 463.266 185.815 461.812 185.803L368.569 185.006C368.569 185.006 333.462 182.844 305.795 199.182C276.701 216.432 246.233 241.036 246.233 241.036Z" fill="#263238"/>
<path d="M304.931 187.46C304.931 187.46 311.355 190.552 307.178 193.414C303.002 196.276 238.106 239.486 238.106 239.486L223.186 232.354C249.612 216.822 276.299 201.716 304.931 187.46Z" fill="#455A64"/>
<path d="M240.203 240.584L239.8 240.691L238.617 240.965L234.063 241.958C230.105 242.791 224.368 243.96 217.29 245.254C203.033 247.841 183.307 250.853 161.359 252.856C155.866 253.361 150.457 253.742 145.324 254.131C140.192 254.521 135.143 254.831 130.396 255.283C120.894 256.169 112.39 257.622 105.479 259.793C99.9863 261.406 94.7001 263.721 89.7373 266.686C87.951 267.678 86.6762 268.653 85.7788 269.238L84.7557 269.92L84.395 270.141C84.5026 270.05 84.6146 269.964 84.7305 269.884L85.7285 269.158C86.6175 268.547 87.8755 267.545 89.6535 266.5C94.5861 263.454 99.8605 261.073 105.353 259.412C112.281 257.188 120.81 255.691 130.32 254.796C135.076 254.317 140.074 253.981 145.257 253.617C150.44 253.254 155.799 252.829 161.284 252.324C183.224 250.322 202.974 247.362 217.206 244.855C224.327 243.606 230.063 242.489 234.03 241.71L238.601 240.824L239.792 240.593L240.203 240.584Z" fill="#263238"/>
<path d="M600.921 301.178C600.921 301.311 592.384 301.408 581.859 301.408C571.333 301.408 562.787 301.311 562.787 301.178C562.787 301.045 571.325 300.948 581.859 300.948C592.392 300.948 600.921 301.054 600.921 301.178Z" fill="#263238"/>
<path d="M444.737 324.196C444.737 324.329 396.547 324.427 337.11 324.427C277.674 324.427 229.476 324.329 229.476 324.196C229.476 324.063 277.657 323.966 337.11 323.966C396.564 323.966 444.737 324.072 444.737 324.196Z" fill="#263238"/>
<path d="M107.349 301.94C107.349 302.073 100.531 302.17 92.1275 302.17C83.7241 302.17 76.9057 302.073 76.9057 301.94C76.9057 301.807 83.7241 301.71 92.1275 301.71C100.531 301.71 107.349 301.816 107.349 301.94Z" fill="#263238"/>
<path d="M550.392 203.08C550.392 203.08 544.672 209.84 546.92 214.802C549.167 219.763 572.407 237.147 572.407 237.147L589.272 240.487L550.392 203.08Z" fill="#455A64"/>
<path d="M390.039 190.968L386.248 234.241L454.113 232.194L481.462 215.395L463.758 190.968H390.039Z" fill="#455A64"/>
<path d="M262.301 236.456C262.301 236.456 303.245 205.215 319.398 199.004C334.989 193.015 343.115 191.509 357.758 191.03C371.756 190.605 380.285 191.03 380.285 191.03L369.466 235.02L262.301 236.456Z" fill="#455A64"/>
<path d="M256.313 236.562C256.314 235.217 256.653 233.896 257.295 232.735C257.938 231.573 258.861 230.613 259.97 229.952L269.38 224.371C272.06 222.777 275.085 221.94 278.161 221.943C280.055 221.946 281.937 222.263 283.738 222.882C285.698 223.599 287.405 224.93 288.631 226.698C289.857 228.467 290.543 230.588 290.598 232.779C290.651 234.25 290.422 235.718 289.926 237.094C289.429 238.47 288.674 239.726 287.707 240.787C286.74 241.847 285.58 242.691 284.297 243.266C283.014 243.842 281.634 244.138 280.24 244.137H263.467C261.568 244.133 259.749 243.332 258.408 241.912C257.066 240.492 256.313 238.568 256.313 236.562Z" fill="#FF725E"/>
<path d="M256.313 236.562C256.313 236.562 256.313 236.899 256.422 237.519C256.549 238.431 256.833 239.311 257.261 240.115C257.939 241.381 258.938 242.421 260.146 243.118C260.899 243.535 261.718 243.805 262.561 243.916C263.524 243.991 264.49 244.012 265.455 243.978L279.804 243.925C281.164 243.963 282.519 243.729 283.796 243.234C285.144 242.701 286.37 241.873 287.394 240.804C288.417 239.735 289.215 238.449 289.734 237.032C290.262 235.536 290.477 233.937 290.363 232.345C290.251 230.776 289.813 229.252 289.081 227.882C288.349 226.511 287.341 225.328 286.128 224.415C284.957 223.56 283.637 222.957 282.245 222.643C278.42 221.687 274.404 222.096 270.822 223.804C269.74 224.317 268.751 224.964 267.77 225.522L264.968 227.17L260.146 229.988C258.933 230.678 257.932 231.72 257.261 232.991C256.838 233.797 256.554 234.676 256.422 235.587C256.338 236.208 256.347 236.544 256.322 236.544C256.29 236.22 256.29 235.894 256.322 235.57C256.416 234.64 256.678 233.738 257.093 232.912C257.753 231.588 258.764 230.498 260.003 229.775L264.792 226.896L267.577 225.221C268.549 224.654 269.539 223.999 270.646 223.449C274.295 221.674 278.401 221.238 282.312 222.209C283.754 222.512 285.126 223.114 286.346 223.981C287.614 224.93 288.668 226.163 289.434 227.592C290.199 229.02 290.657 230.61 290.774 232.247C290.897 233.908 290.674 235.578 290.12 237.138C289.579 238.619 288.745 239.962 287.675 241.077C286.605 242.192 285.323 243.054 283.914 243.606C282.589 244.11 281.187 244.347 279.779 244.306L265.43 244.261C264.453 244.283 263.476 244.251 262.503 244.164C261.62 244.034 260.767 243.734 259.987 243.278C258.751 242.548 257.738 241.459 257.068 240.141C256.658 239.314 256.399 238.412 256.305 237.483C256.285 237.177 256.287 236.868 256.313 236.562Z" fill="#263238"/>
<path d="M571.753 352.026C571.753 352.026 571.753 351.822 571.753 351.414C571.753 351.007 571.82 350.395 571.87 349.642C571.92 348.889 572.004 347.87 572.055 346.718C572.105 345.567 572.138 344.22 572.18 342.723C572.222 341.225 572.18 339.542 572.18 337.717C572.18 335.891 572.055 333.898 571.82 331.772C571.439 326.952 570.627 322.182 569.396 317.525C568.671 314.808 567.777 312.144 566.721 309.551C565.599 306.749 564.246 304.057 562.678 301.506C559.183 295.881 554.737 290.986 549.562 287.064C543.865 282.695 537.507 279.381 530.759 277.265C523.764 275.006 516.149 274.182 508.4 274.12C500.841 274.046 493.317 275.203 486.091 277.548C482.67 278.69 479.348 280.14 476.161 281.881C473.123 283.586 470.238 285.579 467.54 287.835C462.525 291.984 458.057 296.823 454.255 302.223C452.584 304.702 451.108 307.321 449.844 310.056C448.691 312.59 447.672 315.19 446.791 317.844C444.111 325.841 442.48 334.187 441.944 342.652C441.81 345.655 441.826 347.968 441.902 349.58C441.944 350.36 441.977 350.953 441.994 351.352C442.011 351.751 441.994 351.963 441.994 351.963C441.994 351.963 441.994 351.76 441.927 351.352C441.86 350.945 441.843 350.333 441.784 349.58C441.673 347.269 441.673 344.954 441.784 342.643C442.248 334.131 443.837 325.73 446.506 317.684C447.387 315.019 448.401 312.404 449.542 309.852C450.817 307.097 452.298 304.455 453.97 301.949C457.784 296.514 462.266 291.64 467.297 287.454C470.011 285.181 472.913 283.17 475.969 281.447C479.177 279.692 482.521 278.23 485.965 277.079C493.232 274.706 500.803 273.537 508.408 273.615C516.191 273.677 523.84 274.501 530.893 276.786C537.686 278.923 544.084 282.266 549.813 286.674C552.466 288.737 554.947 291.038 557.227 293.55C559.393 295.906 561.324 298.492 562.989 301.267C564.561 303.841 565.917 306.557 567.039 309.382C568.093 311.974 568.982 314.638 569.698 317.356C570.922 322.038 571.716 326.832 572.071 331.674C572.298 333.8 572.298 335.794 572.39 337.628C572.482 339.462 572.39 341.172 572.39 342.643C572.39 344.114 572.264 345.487 572.214 346.647C572.164 347.808 572.055 348.774 571.987 349.571C571.92 350.369 571.87 350.945 571.836 351.343C571.803 351.742 571.753 352.026 571.753 352.026Z" fill="white"/>
<path d="M367.479 241.036H366.908L364.719 241.089L356.677 241.24C349.883 241.373 340.507 241.639 330.141 241.94C319.775 242.241 310.391 242.445 303.597 242.498C300.201 242.498 297.45 242.498 295.546 242.498H293.357H292.795C292.729 242.512 292.661 242.512 292.594 242.498C292.661 242.487 292.729 242.487 292.795 242.498H293.357L295.546 242.445L303.589 242.294C310.382 242.162 319.767 241.896 330.133 241.603C340.499 241.311 349.883 241.089 356.677 241.036C360.031 241.036 362.824 241.036 364.719 241.036H366.908H367.479Z" fill="white"/>
<path d="M356.551 254.353C354.109 254.586 351.655 254.663 349.204 254.583C346.753 254.663 344.3 254.586 341.857 254.353C344.3 254.125 346.753 254.048 349.204 254.123C351.655 254.048 354.108 254.125 356.551 254.353Z" fill="white"/>
<path d="M359.251 206.943C359.293 207.058 350.177 211.072 338.88 215.9C327.583 220.729 318.391 224.557 318.341 224.433C318.291 224.309 327.415 220.304 338.712 215.475C350.009 210.647 359.201 206.828 359.251 206.943Z" fill="white"/>
<path d="M340.767 209.982C340.817 210.106 332.129 214.146 321.369 219.01C310.609 223.874 301.853 227.729 301.803 227.613C301.752 227.498 310.441 223.458 321.201 218.585C331.961 213.712 340.717 209.849 340.767 209.982Z" fill="white"/>
<path d="M457.979 205.268C458.029 205.384 448.905 209.397 437.608 214.226C426.311 219.055 417.119 222.873 417.069 222.758C417.019 222.643 426.143 218.629 437.449 213.801C448.754 208.972 457.912 205.144 457.979 205.268Z" fill="white"/>
<path d="M439.461 208.29C439.512 208.414 430.823 212.454 420.071 217.318C409.32 222.182 400.547 226.036 400.497 225.921C400.447 225.806 409.135 221.766 419.895 216.893C430.655 212.02 439.461 208.21 439.461 208.29Z" fill="white"/>
<path d="M459.765 240.992C459.765 241.116 441.625 241.338 419.249 241.479C396.874 241.621 378.733 241.63 378.733 241.479C378.733 241.329 396.865 241.134 419.249 241.001C441.633 240.868 459.765 240.895 459.765 240.992Z" fill="white"/>
<path d="M479.852 253.617C479.852 253.742 474.769 253.892 468.488 253.954C462.206 254.016 457.124 253.954 457.124 253.839C457.124 253.724 462.206 253.555 468.488 253.493C474.769 253.431 479.852 253.485 479.852 253.617Z" fill="white"/>
<path d="M132.509 247.061C132.349 247.118 132.183 247.154 132.015 247.167L130.597 247.362C129.977 247.433 129.222 247.531 128.35 247.69C127.477 247.85 126.479 247.965 125.389 248.195C123.2 248.603 120.609 249.205 117.774 249.967C114.703 250.862 111.677 251.921 108.708 253.139C105.555 254.459 102.628 255.903 100.011 257.33C97.3944 258.756 95.13 260.192 93.3017 261.476C92.354 262.088 91.5321 262.708 90.7857 263.248C90.0393 263.789 89.427 264.232 88.9238 264.622L87.7581 265.508C87.6246 265.617 87.4813 265.712 87.3304 265.791C87.4415 265.66 87.5652 265.541 87.6994 265.437L88.8232 264.489C89.3096 264.081 89.9135 263.603 90.6431 263.045C91.3727 262.486 92.1695 261.866 93.1591 261.273C95.0042 259.952 97.2853 258.508 99.8684 257.029C105.524 253.835 111.513 251.352 117.715 249.63C120.567 248.851 123.175 248.275 125.381 247.912C126.479 247.699 127.477 247.593 128.358 247.469C129.239 247.345 130.035 247.265 130.614 247.221L132.048 247.105C132.201 247.079 132.355 247.064 132.509 247.061Z" fill="white"/>
<path d="M282.278 226.16C282.278 226.16 282.035 225.815 281.44 225.336C280.635 224.686 279.679 224.278 278.672 224.158C277.163 224.025 275.643 224.196 274.194 224.663C269.087 226.022 264.344 228.601 260.331 232.203C258.335 233.975 257.278 235.277 257.219 235.215C257.422 234.877 257.658 234.562 257.924 234.276C258.617 233.462 259.35 232.687 260.121 231.955C262.683 229.544 265.593 227.582 268.742 226.143C270.471 225.343 272.265 224.712 274.101 224.255C275.598 223.796 277.165 223.651 278.714 223.83C279.767 223.983 280.753 224.46 281.549 225.203C281.76 225.404 281.949 225.63 282.111 225.877C282.245 226.054 282.295 226.151 282.278 226.16Z" fill="white"/>
<path d="M552.296 202.761C551.127 203.06 549.925 203.191 548.723 203.151C547.312 203.106 545.908 202.922 544.53 202.602C542.71 202.15 540.925 201.557 539.187 200.83C537.25 200.059 535.187 199.058 532.956 198.074L529.475 196.595C528.276 196.09 527.01 195.655 525.735 195.159C520.137 193.157 514.429 191.514 508.643 190.242C498.123 187.929 487.442 186.53 476.707 186.06C474.643 185.945 472.782 185.945 471.138 185.901H466.944L464.294 185.963H463.363C463.441 185.947 463.521 185.947 463.598 185.963L464.286 185.909L466.944 185.759L471.138 185.679C472.815 185.679 474.643 185.679 476.707 185.785C487.472 186.157 498.186 187.52 508.727 189.861C514.525 191.119 520.243 192.765 525.844 194.787C527.119 195.283 528.36 195.726 529.593 196.24L533.073 197.755C535.304 198.774 537.359 199.766 539.279 200.555C540.993 201.285 542.757 201.877 544.555 202.327C545.914 202.671 547.301 202.879 548.698 202.947C549.579 202.979 550.462 202.947 551.339 202.85L552.019 202.761H552.296Z" fill="#263238"/>
<path d="M148.788 203.984C145.433 184.598 143.177 181.621 141.282 174.95C139.386 168.278 136.376 163.945 132.627 162.413C130.111 161.385 117.472 156.574 113.077 158.169C108.778 159.784 104.685 161.956 100.892 164.637C97.9481 166.699 95.7174 169.715 94.5345 173.231L87.8252 193.228L99.6336 205.632L105.555 192.342L111.979 208.29L111.031 224.371L147.874 234.843C151.195 229.173 150.692 214.979 148.788 203.984Z" fill="#FF725E"/>
<g opacity="0.2">
<path d="M139.219 182.835C137.592 192.927 137.332 194.353 135.705 204.409C135.143 207.873 133.507 213.269 131.176 215.785C129.448 217.637 127.754 219.418 125.347 220.02C123.116 220.579 119.72 220.641 117.623 219.666C115.526 218.691 113.732 214.35 114.595 212.126C117.724 212.835 118.688 213.898 121.38 212.126C123.729 210.549 127.066 207.058 128.341 204.444C133.717 193.458 135.201 193.068 139.244 182.835" fill="black"/>
</g>
<path d="M112.524 202.389C111.928 201.541 111.385 200.653 110.897 199.731L107.106 193.148L103.215 186.671C102.635 185.8 102.111 184.888 101.646 183.942C101.848 184.136 102.026 184.357 102.175 184.598C102.493 185.032 102.938 185.679 103.466 186.485C104.54 188.098 105.982 190.357 107.475 192.9C108.968 195.443 110.268 197.799 111.165 199.527C111.618 200.413 112.004 201.087 112.205 201.583C112.351 201.832 112.458 202.104 112.524 202.389Z" fill="#263238"/>
<path d="M138.237 220.49C137.97 220.637 137.689 220.752 137.399 220.835C137.055 220.957 136.705 221.058 136.35 221.137C135.887 221.269 135.417 221.373 134.941 221.447C133.712 221.678 132.466 221.799 131.218 221.81C129.686 221.813 128.156 221.674 126.647 221.394C125.139 221.094 123.66 220.652 122.227 220.074C121.068 219.595 119.946 219.02 118.873 218.355C118.403 218.08 118.034 217.779 117.665 217.54C117.36 217.33 117.066 217.102 116.784 216.857C116.529 216.672 116.295 216.455 116.088 216.211C116.139 216.14 117.179 216.999 119.024 218.071C120.105 218.687 121.226 219.223 122.378 219.675C125.209 220.79 128.205 221.369 131.226 221.385C132.457 221.386 133.687 221.3 134.908 221.128C136.954 220.818 138.212 220.401 138.237 220.49Z" fill="#263238"/>
<path d="M123.452 190.286C123.385 190.632 119.426 198.96 119.426 198.96L100.741 188.559L98.8369 180.053C98.5227 178.687 97.7092 177.508 96.5745 176.774C95.4397 176.04 94.076 175.811 92.7817 176.137L87.2717 178.52C87.0444 178.614 86.8427 178.766 86.6847 178.962C86.5266 179.159 86.4171 179.393 86.3659 179.645C86.2904 180.071 86.3659 180.531 87.0955 180.434C88.4626 180.319 91.2889 180 91.2889 180L89.9889 184.846C89.6458 186.116 89.7779 187.477 90.358 188.647L91.1966 190.322L93.0165 193.432H92.9746C92.9746 193.432 111.14 213.145 121.338 214.43C127.469 215.201 134.413 197.046 134.413 197.046L123.452 190.286Z" fill="#B78876"/>
<path d="M91.1547 180.328C91.1547 180.328 91.2973 180.124 91.6076 179.902C92.0231 179.597 92.5186 179.436 93.0249 179.442C93.2893 179.457 93.5448 179.548 93.7646 179.704C93.9845 179.86 94.1606 180.075 94.2745 180.328C94.4507 180.726 94.3332 180.992 94.2745 180.974C94.2158 180.957 94.2745 180.726 94.0733 180.425C93.9496 180.234 93.7864 180.075 93.5961 179.96C93.4059 179.844 93.1934 179.776 92.9746 179.761C92.5207 179.767 92.075 179.889 91.6747 180.115C91.4147 180.248 91.1799 180.363 91.1547 180.328Z" fill="#AA6550"/>
<path d="M93.5113 183.349C93.5113 183.349 93.3855 183.189 93.2094 182.95C92.9843 182.645 92.6859 182.409 92.3451 182.267C92.0043 182.125 91.6338 182.083 91.2721 182.144C90.987 182.144 90.8108 182.25 90.7941 182.215C90.7773 182.179 90.9282 182.046 91.2302 181.94C91.6292 181.817 92.0556 181.837 92.4426 181.998C92.8296 182.158 93.1553 182.449 93.3688 182.826C93.5197 183.127 93.5365 183.34 93.5113 183.349Z" fill="#AA6550"/>
<path d="M127.326 163.999L122.294 189.329L135.713 197.844L140.862 182.277C140.862 182.277 138.699 163.37 127.326 163.999Z" fill="#FF725E"/>
<path d="M134.556 164.442C134.556 164.442 134.447 164.539 134.212 164.672C133.977 164.805 133.642 165 133.197 165.239C132.308 165.717 131 166.391 129.364 167.162C125.113 169.215 120.636 170.703 116.038 171.592C111.41 172.465 106.661 172.296 102.099 171.095C100.734 170.717 99.4037 170.21 98.124 169.58C97.6627 169.377 97.2853 169.155 97.0924 169.031C96.9721 168.968 96.8571 168.894 96.7486 168.81C97.2397 168.985 97.7213 169.189 98.1911 169.421C99.4945 169.977 100.834 170.433 102.2 170.785C106.727 171.88 111.416 172.001 115.988 171.14C120.555 170.251 125.012 168.816 129.272 166.86C130.949 166.134 132.233 165.505 133.147 165.088C133.602 164.84 134.073 164.624 134.556 164.442Z" fill="#EBEBEB"/>
<path d="M138.086 167.241C137.972 167.351 137.845 167.446 137.709 167.525L136.602 168.278C136.017 168.683 135.412 169.055 134.791 169.394C134.069 169.793 133.264 170.28 132.316 170.723L130.857 171.432C130.346 171.68 129.792 171.884 129.23 172.123C128.115 172.611 126.874 173.009 125.582 173.452C119.919 175.257 114.001 175.997 108.096 175.641C106.737 175.525 105.446 175.446 104.255 175.242C103.651 175.144 103.072 175.082 102.519 174.976L100.934 174.639C99.9271 174.453 99.0298 174.17 98.2414 173.957C97.5635 173.784 96.8944 173.574 96.237 173.328L94.9874 172.867C94.8378 172.825 94.694 172.763 94.5597 172.681C94.7143 172.69 94.8669 172.723 95.0126 172.779L96.2873 173.151C96.8325 173.328 97.5034 173.532 98.3001 173.709C99.0969 173.886 99.9775 174.161 101.001 174.321L102.577 174.622C103.122 174.728 103.701 174.781 104.255 174.861C105.446 175.047 106.771 175.118 108.071 175.215C113.932 175.53 119.801 174.796 125.431 173.045C126.714 172.619 127.947 172.238 129.062 171.76C129.616 171.53 130.169 171.335 130.681 171.104L132.149 170.422C133.096 170.015 133.902 169.536 134.665 169.164C135.428 168.792 136.015 168.429 136.501 168.127L137.659 167.454C137.792 167.363 137.936 167.292 138.086 167.241Z" fill="#EBEBEB"/>
<path d="M135.68 197.844C135.304 197.676 134.939 197.481 134.589 197.259L131.637 195.487L121.573 189.347L121.447 189.267V189.117C121.808 187.23 122.194 185.192 122.596 183.101C123.2 179.947 123.787 176.952 124.274 174.241C124.55 172.876 124.777 171.583 125.028 170.351C125.256 169.213 125.617 168.109 126.102 167.064C126.805 165.513 128.049 164.309 129.574 163.706C129.987 163.556 130.421 163.481 130.857 163.485C131.007 163.474 131.158 163.492 131.302 163.538C130.729 163.558 130.164 163.672 129.624 163.875C128.184 164.516 127.023 165.705 126.37 167.206C125.917 168.238 125.582 169.324 125.372 170.44C125.146 171.654 124.911 172.956 124.659 174.312C124.139 177.058 123.569 180.053 122.982 183.172C122.58 185.271 122.185 187.3 121.825 189.188L121.724 188.957L131.729 195.239L134.623 197.1C134.994 197.316 135.348 197.565 135.68 197.844Z" fill="#263238"/>
<path d="M139.781 181.524C139.854 182.312 139.832 183.107 139.713 183.889C139.538 185.783 139.218 187.658 138.757 189.498C138.297 191.339 137.703 193.14 136.979 194.885C136.717 195.626 136.365 196.329 135.931 196.976C136.136 196.219 136.391 195.479 136.694 194.761C137.967 191.235 138.878 187.576 139.412 183.845C139.488 183.064 139.611 182.288 139.781 181.524Z" fill="#263238"/>
<path d="M67.0262 322.424L66.8753 335.945C66.8753 335.945 53.8089 340.33 53.5573 342.829L78.365 344.069L79.4217 323.009L67.0262 322.424Z" fill="#455A64"/>
<path d="M74.6413 335.192C74.8768 335.28 75.0729 335.458 75.1921 335.69C75.3112 335.922 75.3451 336.193 75.2871 336.45C75.2132 336.702 75.0499 336.915 74.8312 337.044C74.6125 337.173 74.3553 337.207 74.113 337.141C73.8644 337.044 73.6579 336.855 73.5327 336.608C73.4075 336.362 73.3722 336.075 73.4337 335.803C73.539 335.549 73.7332 335.349 73.9756 335.243C74.2179 335.137 74.4895 335.135 74.7336 335.236" fill="#E0E0E0"/>
<path d="M78.365 344.069V341.943L54.5637 341.544C54.5637 341.544 53.4315 341.996 53.5237 342.829L78.365 344.069Z" fill="#E0E0E0"/>
<path d="M66.4811 335.794C66.4811 335.918 67.085 336.007 67.6553 336.45C68.2256 336.893 68.4939 337.442 68.6449 337.398C68.7959 337.353 68.6449 336.609 67.8985 336.086C67.1521 335.564 66.456 335.67 66.4811 335.794Z" fill="#263238"/>
<path d="M63.8225 336.795C63.8225 336.919 64.309 337.167 64.6612 337.725C65.0134 338.284 65.1392 338.868 65.265 338.868C65.3908 338.868 65.4915 338.151 64.9967 337.46C64.5019 336.769 63.8309 336.68 63.8225 336.795Z" fill="#263238"/>
<path d="M62.1955 340.011C62.3046 340.011 62.5058 339.418 62.1955 338.7C61.8852 337.982 61.3569 337.681 61.3065 337.814C61.2562 337.947 61.5833 338.31 61.8014 338.904C62.0194 339.497 62.0614 339.994 62.1955 340.011Z" fill="#263238"/>
<path d="M66.8334 332.711C66.8837 332.835 67.4456 332.711 68.1333 332.764C68.821 332.817 69.3326 333.109 69.3997 333.003C69.4668 332.897 68.9803 332.409 68.1752 332.321C67.3701 332.232 66.783 332.613 66.8334 332.711Z" fill="#263238"/>
<g opacity="0.3">
<path d="M67.0011 325.1L66.9675 327.51L79.1701 328.006L79.2792 325.835L67.0011 325.1Z" fill="black"/>
</g>
<path d="M66.9172 329.982C67.3177 330.123 67.7472 330.144 68.1585 330.044C68.6101 329.982 69.0526 329.86 69.4752 329.681C69.7276 329.581 69.9717 329.46 70.2048 329.317C70.3497 329.246 70.4828 329.15 70.599 329.034C70.6831 328.946 70.737 328.832 70.7522 328.708C70.7674 328.584 70.743 328.459 70.6828 328.352C70.6252 328.26 70.5483 328.183 70.4581 328.128C70.3679 328.073 70.2669 328.04 70.1629 328.033C70.0051 328.024 69.847 328.039 69.6932 328.077C69.4269 328.131 69.1658 328.211 68.9133 328.316C68.4864 328.497 68.0878 328.745 67.7307 329.052C67.1269 329.592 66.8921 330.062 66.9508 330.088C67.0095 330.115 67.303 329.743 67.9069 329.308C68.262 329.059 68.6451 328.856 69.0475 328.706C69.2827 328.621 69.5238 328.556 69.7687 328.511C70.0371 328.449 70.2635 328.458 70.3222 328.582C70.3809 328.706 70.3222 328.653 70.3222 328.733C70.2354 328.815 70.1397 328.886 70.0371 328.945C69.8106 329.078 69.5842 329.202 69.3661 329.308C68.971 329.489 68.5611 329.631 68.1417 329.734C67.7289 329.788 67.3199 329.871 66.9172 329.982Z" fill="#263238"/>
<path d="M67.0934 330.177C67.3427 329.814 67.475 329.376 67.4708 328.928C67.5173 328.444 67.4832 327.955 67.3701 327.483C67.3025 327.202 67.207 326.929 67.085 326.668C67.026 326.492 66.9247 326.334 66.7909 326.212C66.6571 326.089 66.4955 326.005 66.3218 325.968C66.2122 325.964 66.1038 325.993 66.0099 326.053C65.9161 326.113 65.8408 326.201 65.7934 326.305C65.7194 326.455 65.6684 326.616 65.6425 326.783C65.6005 327.077 65.6005 327.376 65.6425 327.669C65.6883 328.164 65.8497 328.639 66.1121 329.052C66.565 329.76 67.0682 329.938 67.0766 329.893C67.085 329.849 66.7076 329.565 66.3637 328.892C66.167 328.506 66.0525 328.08 66.0283 327.643C66.0148 327.387 66.0345 327.131 66.087 326.881C66.1373 326.606 66.2463 326.385 66.3469 326.42C66.4476 326.456 66.6656 326.642 66.7579 326.872C66.8716 327.104 66.9643 327.348 67.0347 327.599C67.1551 328.027 67.2172 328.472 67.2192 328.919C67.1521 329.681 67.0011 330.15 67.0934 330.177Z" fill="#263238"/>
<path d="M117.598 224.512C117.598 224.512 78.8347 207.324 66.8418 206.606C59.2938 206.146 53.6244 211.249 54.6475 219.471C55.1591 223.591 65.8689 271.745 65.8689 271.745L82.1894 263.877L74.3394 230.573L106.209 246.928L117.598 224.512Z" fill="#263238"/>
<path d="M69.4668 222.147C69.341 222.262 70.6241 224.007 71.9828 226.32C73.3414 228.632 74.2472 230.626 74.3981 230.564C74.5491 230.502 73.853 228.366 72.4692 226.01C71.0854 223.653 69.6093 222.04 69.4668 222.147Z" fill="#455A64"/>
<path d="M66.2966 224.061C66.2127 224.211 68.1668 225.522 70.4899 227.312C72.813 229.102 74.5575 230.67 74.6833 230.546C74.8091 230.422 73.1317 228.588 70.8002 226.816C68.4688 225.044 66.3637 223.919 66.2966 224.061Z" fill="#455A64"/>
<path d="M147.832 234.843C147.832 234.843 142.959 241.479 138.313 243.296C132.442 245.573 89.2845 267.094 89.2845 267.094C89.2845 267.094 81.4513 328.573 82.0719 326.004L63.9987 325.543L65.9611 268.919C66.196 261.671 71.6976 253.343 77.6102 249.639L117.598 224.512L147.832 234.843Z" fill="#263238"/>
<path d="M65.6173 279.285C65.6747 279.03 65.7 278.767 65.6928 278.505C65.6928 277.938 65.7599 277.203 65.8018 276.281C65.9045 273.556 66.1452 270.838 66.523 268.139C67.0525 264.151 68.3913 260.331 70.448 256.94C71.7206 254.991 73.2907 253.278 75.0942 251.872C77.0514 250.366 79.0992 248.995 81.2249 247.77C89.9218 242.507 97.4279 237.138 102.98 233.461C105.747 231.6 108.012 230.121 109.555 229.111L111.35 227.941C111.567 227.815 111.772 227.666 111.962 227.498C111.731 227.587 111.509 227.699 111.299 227.835C110.872 228.074 110.243 228.428 109.446 228.907C107.844 229.855 105.563 231.29 102.737 233.098C97.126 236.695 89.578 242.002 80.9313 247.274C78.7839 248.513 76.7163 249.902 74.742 251.429C72.8933 252.878 71.2886 254.645 69.9951 256.656C67.9263 260.136 66.6064 264.053 66.1289 268.13C65.7835 270.847 65.6042 273.584 65.5921 276.326C65.5921 277.212 65.5921 277.982 65.5921 278.558C65.58 278.801 65.5884 279.044 65.6173 279.285Z" fill="#455A64"/>
<path d="M131.88 241.32C131.545 240.771 131.176 240.247 130.773 239.752C129.94 238.472 129.362 237.027 129.074 235.504C128.785 233.98 128.793 232.411 129.096 230.892C129.282 230.268 129.428 229.631 129.532 228.987C129.125 229.5 128.838 230.107 128.693 230.759C128.264 232.332 128.201 233.992 128.509 235.596C128.81 237.201 129.478 238.704 130.455 239.973C131.218 240.992 131.847 241.373 131.88 241.32Z" fill="#455A64"/>
<path d="M70.6409 325.543C70.6705 325.442 70.6875 325.338 70.6912 325.233C70.6912 324.985 70.7583 324.684 70.8003 324.303C70.8925 323.417 71.0099 322.247 71.1609 320.759C71.4544 317.604 71.8738 313.112 72.3937 307.584C72.6369 304.802 72.9137 301.754 73.2324 298.485C73.5511 295.215 73.8446 291.715 74.0711 288.03C74.2975 284.344 74.6665 280.49 75.3039 276.512C75.9263 272.431 77.0542 268.454 78.6586 264.684C80.334 260.958 82.5464 257.53 85.2169 254.521C87.7193 251.722 90.4592 249.172 93.4023 246.902C98.4464 243.149 103.685 239.697 109.094 236.562C113.681 233.78 117.338 231.405 119.762 229.616C120.986 228.73 121.909 228.012 122.529 227.507L123.225 226.931C123.382 226.801 123.457 226.73 123.452 226.719C123.358 226.758 123.271 226.812 123.192 226.878L122.462 227.41C121.825 227.879 120.877 228.57 119.644 229.43C117.179 231.149 113.505 233.461 108.892 236.199C103.44 239.288 98.1636 242.714 93.092 246.459C90.1097 248.734 87.3355 251.3 84.806 254.123C82.0878 257.172 79.8381 260.651 78.1386 264.436C76.5275 268.252 75.3996 272.277 74.7839 276.405C74.1549 280.392 73.8362 284.264 73.5762 287.923C73.3163 291.583 73.0563 295.109 72.7376 298.378C72.4189 301.648 72.2176 304.695 71.9912 307.486C71.5467 313.024 71.1525 317.516 70.9428 320.679C70.831 322.203 70.7471 323.384 70.6912 324.223C70.6912 324.604 70.6493 324.914 70.6325 325.153C70.6158 325.392 70.6241 325.543 70.6409 325.543Z" fill="#455A64"/>
<path d="M113.22 126.999C112.611 125.343 111.464 123.971 109.984 123.128C108.504 122.285 106.788 122.028 105.144 122.401C104.42 122.68 103.664 122.853 102.896 122.915C101.965 122.746 101.05 122.491 100.162 122.153C99.1553 121.98 98.124 122.21 97.2684 122.796C96.4128 123.382 95.7941 124.283 95.5325 125.325C94.7448 125.122 93.9247 125.104 93.1295 125.271C92.3344 125.438 91.5832 125.786 90.9283 126.29C90.2861 126.816 89.8301 127.554 89.6338 128.387C89.4375 129.22 89.5124 130.098 89.8464 130.88C90.1735 131.527 90.685 132.041 91.0121 132.705C91.5069 133.795 91.2805 135.106 91.6243 136.249C91.9471 137.08 92.4848 137.799 93.176 138.322C93.8672 138.845 94.6838 139.152 95.5325 139.208C97.2401 139.301 98.9486 139.045 100.565 138.455" fill="#263238"/>
<path d="M105.412 162.041C105.202 160.322 105.068 159.117 105.068 159.117C105.068 159.117 99.6588 159.117 97.5202 152.029C96.4383 148.485 95.717 142.566 95.2809 137.676C95.1856 136.634 95.2909 135.582 95.5906 134.585C95.8903 133.587 96.3781 132.664 97.0246 131.871C97.6711 131.077 98.463 130.431 99.3524 129.97C100.242 129.509 101.211 129.243 102.2 129.188L116.558 128.399L116.868 130.747L120.651 159.914C120.787 160.972 120.725 162.047 120.467 163.079C120.209 164.111 119.76 165.079 119.147 165.927C118.533 166.775 117.767 167.487 116.893 168.021C116.018 168.555 115.052 168.901 114.05 169.04C113.048 169.182 112.029 169.113 111.051 168.838C110.074 168.563 109.158 168.086 108.355 167.436C107.552 166.785 106.879 165.974 106.374 165.048C105.869 164.122 105.542 163.1 105.412 162.041Z" fill="#B78876"/>
<path d="M97.2853 141.849C97.3207 142.091 97.4435 142.309 97.628 142.458C97.8126 142.607 98.0444 142.674 98.275 142.646C98.3891 142.638 98.5006 142.606 98.6025 142.552C98.7044 142.497 98.7947 142.421 98.8677 142.328C98.9408 142.235 98.9951 142.127 99.0273 142.011C99.0595 141.895 99.0689 141.774 99.0549 141.654C99.0237 141.409 98.9019 141.188 98.7163 141.039C98.5308 140.889 98.2966 140.824 98.0653 140.856C97.9512 140.864 97.8397 140.896 97.7378 140.951C97.6358 141.005 97.5456 141.082 97.4725 141.175C97.3995 141.267 97.3452 141.375 97.313 141.491C97.2808 141.607 97.2714 141.729 97.2853 141.849Z" fill="#263238"/>
<path d="M96.9163 140.537C97.0421 140.635 97.6292 140.006 98.5937 139.846C99.5581 139.687 100.271 140.077 100.397 139.935C100.523 139.793 100.296 139.669 99.9607 139.492C99.5059 139.256 98.9921 139.179 98.493 139.27C97.9993 139.348 97.5429 139.594 97.1931 139.97C96.9163 140.254 96.8492 140.493 96.9163 140.537Z" fill="#263238"/>
<path d="M106.276 140.236C106.311 140.478 106.434 140.695 106.619 140.843C106.804 140.99 107.036 141.055 107.265 141.025C107.38 141.018 107.491 140.987 107.593 140.933C107.696 140.88 107.787 140.805 107.86 140.712C107.934 140.62 107.989 140.513 108.023 140.398C108.056 140.282 108.067 140.161 108.054 140.041C108.018 139.799 107.896 139.58 107.711 139.432C107.527 139.283 107.295 139.216 107.064 139.244C106.949 139.25 106.837 139.281 106.734 139.336C106.631 139.39 106.54 139.466 106.466 139.559C106.392 139.652 106.337 139.76 106.304 139.877C106.272 139.993 106.262 140.115 106.276 140.236Z" fill="#263238"/>
<path d="M106.259 139.155C106.385 139.261 106.972 138.624 107.936 138.473C108.901 138.322 109.614 138.694 109.74 138.553C109.865 138.411 109.639 138.296 109.303 138.11C108.846 137.882 108.335 137.805 107.836 137.888C107.344 137.972 106.889 138.217 106.536 138.588C106.259 138.872 106.2 139.102 106.259 139.155Z" fill="#263238"/>
<path d="M103.936 147.165C103.41 147.09 102.877 147.09 102.351 147.165C102.108 147.165 101.873 147.165 101.806 146.996C101.729 146.74 101.729 146.464 101.806 146.208C101.94 145.552 102.083 144.861 102.233 144.143C102.643 142.382 102.923 140.59 103.072 138.783C102.523 140.517 102.105 142.295 101.823 144.099C101.688 144.826 101.554 145.517 101.437 146.181C101.32 146.509 101.32 146.872 101.437 147.2C101.486 147.284 101.552 147.355 101.63 147.409C101.708 147.463 101.797 147.497 101.89 147.51C102.029 147.529 102.17 147.529 102.309 147.51C102.863 147.468 103.41 147.352 103.936 147.165Z" fill="#263238"/>
<path d="M105.068 159.117C108.309 158.625 111.358 157.193 113.874 154.979C113.874 154.979 112.381 160.366 105.412 160.818L105.068 159.117Z" fill="#AA6550"/>
<path d="M103.596 152.338C103.97 152.47 103.928 151.296 105.976 151.052C108.025 150.808 110.679 151.686 110.705 151.537C110.731 151.387 110.109 151.138 108.986 150.814C107.543 150.391 106.148 150.227 105.06 150.353C104 150.461 103.337 150.864 103.215 151.473C103.135 151.93 103.433 152.298 103.596 152.338Z" fill="#263238"/>
<path d="M105.42 135.274C105.555 135.531 106.486 135.274 107.618 135.195C108.75 135.115 109.698 135.319 109.807 135.053C109.916 134.787 109.664 134.699 109.262 134.495C108.728 134.249 108.147 134.136 107.566 134.165C106.984 134.194 106.416 134.365 105.907 134.663C105.538 134.902 105.362 135.15 105.42 135.274Z" fill="#263238"/>
<path d="M96.8241 137.578C97.0254 137.773 97.6627 137.427 98.4259 137.286C99.1891 137.144 99.902 137.197 100.019 136.931C100.07 136.807 99.9271 136.595 99.6084 136.435C99.1794 136.234 98.7017 136.178 98.2414 136.276C97.7821 136.361 97.3598 136.597 97.0337 136.949C96.7905 137.233 96.7318 137.481 96.8241 137.578Z" fill="#263238"/>
<path d="M94.5261 134.477C94.5261 134.477 98.3253 135.833 102.686 132.749C105.546 130.729 109.018 129.462 109.882 130.012C110.746 130.561 111.308 133.857 114.453 134.442C114.453 134.442 115.006 140.821 117.38 140.272C119.057 139.882 118.084 132.847 117.38 128.833C117.233 128.057 116.844 127.356 116.275 126.84C115.707 126.325 114.992 126.025 114.243 125.989L109.823 125.803L104.305 127.433L98.384 129.135L93.872 131.128L94.5261 134.477Z" fill="#263238"/>
<path d="M116.851 137.676C116.935 137.614 120.6 135.576 121.28 139.802C121.959 144.028 117.808 143.869 117.774 143.753C117.74 143.638 116.851 137.676 116.851 137.676Z" fill="#B78876"/>
<path d="M118.738 141.928C118.738 141.928 118.822 141.973 118.948 142.008C119.125 142.052 119.311 142.024 119.468 141.928C119.696 141.708 119.866 141.429 119.96 141.118C120.054 140.807 120.07 140.476 120.005 140.156C119.956 139.793 119.833 139.445 119.644 139.137C119.583 139.013 119.495 138.905 119.387 138.824C119.279 138.742 119.155 138.689 119.024 138.668C118.94 138.66 118.857 138.684 118.788 138.734C118.719 138.784 118.669 138.858 118.646 138.943C118.646 139.067 118.646 139.146 118.646 139.164C118.646 139.182 118.554 139.102 118.554 138.925C118.561 138.816 118.602 138.713 118.671 138.632C118.768 138.525 118.9 138.462 119.04 138.455C119.211 138.459 119.378 138.508 119.525 138.6C119.672 138.692 119.794 138.822 119.879 138.978C120.108 139.313 120.255 139.702 120.307 140.112C120.39 140.485 120.366 140.876 120.237 141.234C120.109 141.593 119.882 141.902 119.585 142.123C119.483 142.174 119.372 142.201 119.258 142.201C119.145 142.201 119.034 142.174 118.931 142.123C118.764 142.035 118.73 141.946 118.738 141.928Z" fill="#AA6550"/>
<path d="M96.4467 123.765C96.4467 123.765 96.5809 123.996 96.866 124.332C97.2744 124.81 97.7953 125.164 98.3756 125.36C99.2378 125.654 100.159 125.697 101.043 125.484C102.141 125.202 103.22 124.841 104.271 124.403C105.36 123.95 106.523 123.73 107.693 123.756C108.683 123.794 109.619 124.239 110.301 124.997C110.766 125.491 111.049 126.145 111.098 126.84C111.133 127.092 111.092 127.349 110.981 127.575C110.939 127.575 110.981 127.309 110.93 126.857C110.826 126.23 110.532 125.655 110.092 125.218C109.446 124.564 108.588 124.194 107.693 124.182C106.576 124.183 105.47 124.405 104.431 124.837C103.362 125.287 102.259 125.642 101.135 125.901C100.186 126.108 99.2 126.028 98.2917 125.67C97.6752 125.431 97.1386 125.006 96.7486 124.448C96.4467 124.04 96.4467 123.774 96.4467 123.765Z" fill="#455A64"/>
<path d="M109.958 127.814C109.958 127.814 109.756 127.593 109.337 127.283C108.739 126.896 108.051 126.694 107.349 126.698C106.286 126.694 105.238 126.965 104.297 127.487C103.12 128.158 101.904 128.75 100.657 129.259C99.4732 129.647 98.2267 129.774 96.9947 129.632C95.7627 129.49 94.5714 129.083 93.4946 128.435C92.8432 128.047 92.2473 127.564 91.725 126.999C91.5216 126.807 91.3514 126.579 91.2218 126.326C91.9643 127.019 92.7739 127.628 93.6372 128.142C95.7579 129.318 98.2319 129.563 100.523 128.824C101.752 128.299 102.956 127.707 104.129 127.052C105.13 126.517 106.246 126.267 107.366 126.326C108.128 126.357 108.861 126.639 109.463 127.132C109.683 127.308 109.854 127.544 109.958 127.814Z" fill="#455A64"/>
<path d="M97.5369 199.811L78.0631 182.277L71.6389 183.81C71.6389 183.81 78.407 198.677 83.3048 204.126C83.3048 204.126 88.1439 210.965 96.128 208.006C104.112 205.047 97.5369 199.811 97.5369 199.811Z" fill="#B78876"/>
<path d="M76.5871 162.962H68.3094C67.9971 162.98 67.6924 163.071 67.4176 163.229C67.1428 163.387 66.9048 163.608 66.7209 163.875C66.5369 164.142 66.4117 164.449 66.3543 164.774C66.2968 165.099 66.3087 165.433 66.3889 165.753L74.7168 182.879C74.8747 183.205 75.115 183.479 75.4111 183.67C75.7071 183.861 76.0474 183.961 76.3942 183.96H86.4582C86.6948 183.932 86.9212 183.843 87.1171 183.7C87.3131 183.557 87.4726 183.366 87.5814 183.142C87.6902 182.918 87.7449 182.67 87.7406 182.418C87.7363 182.167 87.6732 181.92 87.5568 181.701L79.5308 164.929C79.2576 164.348 78.8386 163.857 78.3195 163.51C77.8004 163.163 77.2012 162.974 76.5871 162.962Z" fill="#455A64"/>
<path d="M76.0335 163.999H67.7559C67.5183 163.997 67.2844 164.06 67.0766 164.182C66.8687 164.303 66.6941 164.48 66.5694 164.693C66.4447 164.907 66.3741 165.151 66.3646 165.402C66.355 165.652 66.4067 165.901 66.5147 166.125L74.6413 182.879C74.8007 183.204 75.0414 183.477 75.3371 183.667C75.6328 183.858 75.9723 183.959 76.3187 183.96H86.2988C86.4358 183.954 86.5694 183.913 86.6877 183.839C86.806 183.766 86.9056 183.663 86.9776 183.54C87.0496 183.417 87.0919 183.277 87.1008 183.132C87.1096 182.988 87.0848 182.843 87.0284 182.711L78.994 165.948C78.7226 165.363 78.3012 164.87 77.7779 164.526C77.2545 164.181 76.6502 163.998 76.0335 163.999Z" fill="#263238"/>
<path d="M75.3291 170.998L70.2971 173.124L69.2236 177.413L71.6473 183.792L80.512 185.174L77.9122 182.365L78.2392 179.911C78.2392 179.911 80.7552 179.087 80.7552 178.688C80.7552 178.29 80.4449 176.916 80.0675 176.872C79.0747 177.112 78.1015 177.435 77.1574 177.838C77.1574 177.838 80.2353 175.26 80.1514 174.843C80.0675 174.427 79.7321 173.372 79.1198 173.248C78.5076 173.124 73.5259 175.614 73.5259 175.614L72.6873 177.554L71.9828 174.445C71.9828 174.445 76.4193 173.133 75.3291 170.998Z" fill="#B78876"/>
<path d="M75.9664 181.063C75.9664 181.063 75.8406 180.886 75.7903 180.531C75.7373 180.08 75.7856 179.622 75.9313 179.194C76.077 178.766 76.316 178.381 76.629 178.068C76.8806 177.838 77.0735 177.758 77.0903 177.785C76.7075 178.232 76.3934 178.741 76.1593 179.291C76.01 179.868 75.945 180.465 75.9664 181.063Z" fill="#AA6550"/>
<path d="M73.5678 180.133C73.6661 179.675 73.7333 179.21 73.7691 178.742C73.7895 178.218 73.8741 177.7 74.0207 177.2C74.1165 176.879 74.2838 176.586 74.5085 176.348C74.7332 176.109 75.0088 175.93 75.3123 175.827C76.5116 175.366 77.6018 174.994 78.3902 174.719C78.8117 174.551 79.2468 174.423 79.6901 174.338C79.2997 174.574 78.8863 174.764 78.4573 174.905C77.6773 175.224 76.587 175.632 75.4045 176.084C75.1283 176.184 74.8764 176.347 74.6665 176.562C74.4803 176.771 74.3374 177.018 74.2472 177.289C74.0936 177.768 73.9951 178.264 73.9536 178.768C73.9374 179.25 73.8046 179.72 73.5678 180.133Z" fill="#AA6550"/>
<path d="M72.4105 179.176C72.3311 178.829 72.3311 178.468 72.4105 178.121C72.5027 177.554 72.6286 177.111 72.704 177.12C72.7827 177.467 72.7827 177.828 72.704 178.175C72.6118 178.742 72.486 179.185 72.4105 179.176Z" fill="#AA6550"/>
<path d="M72.2763 167.232C72.2763 167.453 72.3383 167.669 72.4544 167.853C72.5705 168.036 72.7355 168.179 72.9286 168.264C73.1217 168.348 73.3342 168.37 73.5392 168.327C73.7442 168.284 73.9325 168.178 74.0802 168.022C74.228 167.866 74.3287 167.667 74.3694 167.45C74.4102 167.234 74.3893 167.009 74.3093 166.805C74.2293 166.601 74.0939 166.427 73.9201 166.304C73.7463 166.182 73.542 166.116 73.333 166.116C73.1939 166.115 73.056 166.143 72.9273 166.199C72.7986 166.254 72.6817 166.337 72.5833 166.44C72.485 166.544 72.4072 166.668 72.3545 166.804C72.3018 166.94 72.2752 167.086 72.2763 167.232Z" fill="#FAFAFA"/>
</svg>
