<svg width="635" height="560" viewBox="0 0 635 560" fill="none" xmlns="http://www.w3.org/2000/svg">
<path d="M119.697 181.798H114.617C114.095 181.757 113.569 181.807 113.068 181.944C112.674 182.086 112.327 182.315 112.063 182.609C111.798 182.903 111.624 183.253 111.557 183.624C111.525 183.892 111.525 184.162 111.557 184.43V185.259C111.573 185.548 111.552 185.837 111.493 186.122C111.425 186.42 111.288 186.703 111.092 186.953C110.895 187.204 110.643 187.416 110.35 187.578C110.043 187.749 109.696 187.857 109.334 187.891C108.966 187.891 108.61 187.891 108.242 187.891H89.4842C89.2364 187.897 88.9889 187.874 88.7476 187.824C88.2509 187.718 87.8058 187.475 87.4776 187.13C87.1339 186.788 86.9168 186.362 86.8553 185.909C86.8553 185.674 86.8553 185.45 86.8553 185.226V184.542C86.9005 184.094 86.8488 183.641 86.7029 183.21C86.5321 182.776 86.2051 182.403 85.7718 182.148C85.3384 181.893 84.8225 181.771 84.3026 181.798H72.39C71.205 181.764 70.0259 181.959 68.9356 182.37C67.8195 182.813 66.8301 183.471 66.04 184.296C65.2489 185.134 64.692 186.123 64.4144 187.186C64.3382 187.454 64.3128 187.734 64.262 188.003C64.2112 188.272 64.262 188.462 64.262 188.698V300.16C64.2172 301.314 64.5019 302.459 65.09 303.49C65.678 304.522 66.5506 305.406 67.6275 306.062C69.1216 306.953 70.9078 307.382 72.7075 307.283H119.38C121.044 307.283 122.72 307.283 124.346 307.283C125.976 307.2 127.535 306.667 128.803 305.76C129.428 305.312 129.972 304.784 130.416 304.192C130.854 303.607 131.184 302.964 131.394 302.288C131.609 301.614 131.712 300.916 131.699 300.216V289.778C131.699 267.837 131.699 248.08 131.699 231.538C131.699 214.995 131.699 201.522 131.699 192.237V188.944C131.723 187.986 131.528 187.034 131.127 186.144C130.777 185.378 130.269 184.676 129.629 184.072C129.112 183.563 128.508 183.128 127.838 182.784C126.94 182.3 125.936 181.987 124.892 181.866C124.536 181.866 124.269 181.866 124.092 181.798H119.697Z" fill="#FAFAFA"/>
<path d="M566.318 181.798H561.175C560.653 181.758 560.127 181.808 559.626 181.944C559.234 182.09 558.891 182.321 558.627 182.614C558.363 182.908 558.187 183.255 558.114 183.624C558.095 183.893 558.095 184.162 558.114 184.43V185.259C558.146 185.546 558.146 185.835 558.114 186.122C558.044 186.421 557.906 186.705 557.707 186.955C557.508 187.205 557.254 187.417 556.959 187.578C556.656 187.749 556.313 187.856 555.955 187.891C555.587 187.891 555.231 187.891 554.863 187.891H536.118C535.866 187.896 535.614 187.873 535.369 187.824C534.872 187.718 534.427 187.474 534.099 187.13C533.757 186.786 533.536 186.362 533.464 185.909C533.464 185.674 533.464 185.45 533.464 185.226V184.542C533.509 184.094 533.457 183.641 533.311 183.21C533.14 182.776 532.813 182.403 532.38 182.148C531.947 181.893 531.431 181.771 530.911 181.798H519.049C517.848 181.755 516.651 181.955 515.55 182.382C514.45 182.809 513.474 183.452 512.699 184.262C511.908 185.1 511.351 186.09 511.073 187.152C510.985 187.421 510.972 187.701 510.908 187.97C510.845 188.238 510.908 188.429 510.908 188.664V300.16C510.876 300.916 510.979 301.672 511.213 302.4C511.725 303.907 512.805 305.215 514.274 306.107C515.767 307 517.554 307.429 519.354 307.328H566.039C567.703 307.328 569.366 307.328 571.005 307.328C572.634 307.243 574.193 306.71 575.462 305.805C576.084 305.354 576.627 304.826 577.075 304.237C577.513 303.652 577.843 303.009 578.053 302.333C578.268 301.659 578.371 300.961 578.358 300.261V289.822C578.358 267.882 578.358 248.125 578.358 231.582C578.358 215.04 578.358 201.566 578.358 192.282C578.358 191.162 578.358 190.042 578.358 189C578.406 187.201 577.664 185.456 576.288 184.128C575.769 183.621 575.165 183.187 574.497 182.84C573.594 182.356 572.586 182.043 571.538 181.922C571.195 181.922 570.929 181.922 570.738 181.854H566.23L566.318 181.798Z" fill="#FAFAFA"/>
<path fill-rule="evenodd" clip-rule="evenodd" d="M274.714 92.7696C275.073 94.7589 275.128 96.7817 274.879 98.784L280.137 101.92L276.327 110.533L270.104 109.76C268.766 111.395 267.186 112.864 265.405 114.128L266.675 119.594L257.099 123.346L253.289 118.866C251.034 119.188 248.739 119.237 246.469 119.011L242.938 123.648L233.172 120.288L234.086 114.766C232.239 113.58 230.578 112.183 229.146 110.611L222.936 111.731L218.694 103.286L223.774 99.9264C223.415 97.9371 223.359 95.9143 223.609 93.912L218.351 90.8096L222.161 82.1856L228.422 82.992C229.759 81.3601 231.34 79.8946 233.121 78.6352L231.851 73.1584L241.402 69.44L245.212 73.92C247.468 73.609 249.761 73.5601 252.032 73.7744L255.562 69.1376L265.328 72.4976L264.414 78.0192C266.264 79.1984 267.926 80.5923 269.354 82.1632L275.565 81.0432L279.806 89.4768L274.726 92.8368L274.714 92.7696ZM259.69 92.7024C258.788 90.9095 257.303 89.393 255.423 88.3447C253.543 87.2965 251.352 86.7637 249.129 86.8138C246.906 86.8639 244.749 87.4946 242.932 88.6261C241.116 89.7577 239.72 91.3391 238.923 93.1702C238.126 95.0014 237.963 96.9999 238.454 98.9129C238.946 100.826 240.07 102.567 241.684 103.917C243.298 105.266 245.33 106.162 247.523 106.493C249.715 106.823 251.969 106.573 254 105.773C255.348 105.245 256.564 104.488 257.58 103.545C258.596 102.603 259.39 101.492 259.919 100.278C260.447 99.0642 260.699 97.7702 260.66 96.4702C260.62 95.1702 260.291 93.8898 259.69 92.7024Z" fill="#E0E0E0"/>
<path fill-rule="evenodd" clip-rule="evenodd" d="M267.094 42.6944C267.328 44.0097 267.367 45.3463 267.208 46.6704L270.675 48.7312L268.135 54.4208L263.995 53.8944C263.109 54.9727 262.062 55.9409 260.883 56.7728L261.696 60.3904L255.346 62.8656L252.806 59.9088C251.315 60.1155 249.799 60.1494 248.298 60.0096L245.974 63.0672L239.509 60.8272L240.119 57.176C238.895 56.392 237.793 55.4694 236.842 54.432L232.74 55.1488L229.934 49.5488L233.286 47.3088C233.05 45.9935 233.016 44.6561 233.185 43.3328L229.87 41.44L232.41 35.7392L236.55 36.2768C237.436 35.1985 238.483 34.2303 239.662 33.3984L238.76 29.7248L245.11 27.2496L247.65 30.2064C249.141 29.9941 250.657 29.9602 252.159 30.1056L254.495 27.0368L260.947 29.2768L260.337 32.928C261.564 33.709 262.666 34.632 263.614 35.672L267.716 34.9552L270.523 40.5552L267.17 42.7952L267.094 42.6944ZM257.162 42.6944C256.569 41.5096 255.591 40.5064 254.351 39.8117C253.112 39.1169 251.666 38.7617 250.198 38.791C248.73 38.8203 247.304 39.2328 246.102 39.9762C244.899 40.7197 243.973 41.7609 243.441 42.9681C242.909 44.1754 242.795 45.4947 243.113 46.7592C243.43 48.0238 244.166 49.1769 245.227 50.0728C246.287 50.9688 247.625 51.5675 249.072 51.7931C250.518 52.0188 252.007 51.8614 253.352 51.3408C254.254 50.9959 255.07 50.4962 255.751 49.8709C256.432 49.2456 256.965 48.5071 257.32 47.6984C257.674 46.8896 257.843 46.0268 257.816 45.16C257.789 44.2933 257.567 43.4399 257.162 42.6496V42.6944Z" fill="#F5F5F5"/>
<path fill-rule="evenodd" clip-rule="evenodd" d="M447.98 413.358C448.402 415.696 448.47 418.072 448.183 420.426L454.343 424.066L449.923 434.146L442.582 433.205C441.014 435.118 439.16 436.836 437.071 438.312L438.506 444.741L427.279 449.12L422.91 443.901C420.264 444.273 417.573 444.333 414.909 444.08L410.769 449.512L399.339 445.614L400.418 439.141C398.247 437.755 396.296 436.121 394.614 434.28L387.337 435.546L382.27 425.6L388.214 421.691C387.789 419.358 387.725 416.984 388.023 414.635L381.851 411.04L386.271 400.96L393.611 401.912C395.187 399.997 397.045 398.276 399.136 396.794L397.701 390.376L408.94 385.952L413.372 391.194C416.023 390.819 418.718 390.763 421.386 391.026L425.514 385.582L436.944 389.48L435.877 395.954C438.047 397.341 439.995 398.979 441.668 400.826L448.958 399.56L453.936 409.45L447.98 413.358ZM430.365 413.28C429.309 411.18 427.571 409.403 425.369 408.174C423.168 406.945 420.603 406.32 417.999 406.377C415.394 406.434 412.868 407.17 410.738 408.494C408.609 409.818 406.972 411.668 406.036 413.812C405.099 415.956 404.905 418.297 405.477 420.538C406.049 422.78 407.362 424.821 409.25 426.404C411.138 427.987 413.516 429.041 416.083 429.432C418.65 429.823 421.291 429.534 423.672 428.602C426.863 427.352 429.36 425.036 430.615 422.163C431.87 419.29 431.78 416.095 430.365 413.28Z" fill="#E0E0E0"/>
<path fill-rule="evenodd" clip-rule="evenodd" d="M418.338 473.334C418.579 474.694 418.617 476.076 418.452 477.445L422.046 479.562L419.506 485.453L415.226 484.904C414.31 486.019 413.23 487.02 412.013 487.883L412.852 491.624L406.311 494.178L403.771 491.12C402.23 491.338 400.662 491.372 399.11 491.221L396.697 494.39L390.017 492.15L390.652 488.387C389.385 487.578 388.249 486.621 387.274 485.542L383.032 486.282L380.047 480.48L383.515 478.24C383.268 476.881 383.229 475.498 383.4 474.13L379.806 472.002L382.346 466.122L386.626 466.67C387.557 465.549 388.655 464.543 389.89 463.68L389.052 459.939L395.592 457.386L398.132 460.443C399.673 460.22 401.242 460.186 402.793 460.342L405.206 457.173L411.874 459.413L411.251 463.187C412.515 463.995 413.651 464.948 414.63 466.021L418.871 465.282L421.78 471.05L418.313 473.29L418.338 473.334ZM408.076 473.334C407.453 472.131 406.441 471.116 405.167 470.418C403.893 469.719 402.413 469.368 400.913 469.408C399.413 469.448 397.961 469.878 396.737 470.643C395.513 471.409 394.572 472.476 394.033 473.71C393.494 474.945 393.38 476.293 393.706 477.585C394.032 478.876 394.783 480.054 395.865 480.971C396.947 481.888 398.312 482.502 399.788 482.738C401.265 482.973 402.787 482.819 404.165 482.294C405.095 481.933 405.935 481.413 406.636 480.763C407.337 480.114 407.885 479.348 408.249 478.511C408.613 477.674 408.785 476.781 408.755 475.885C408.726 474.989 408.495 474.107 408.076 473.29V473.334Z" fill="#F5F5F5"/>
<path fill-rule="evenodd" clip-rule="evenodd" d="M309.169 70.4144C309.386 71.5995 309.42 72.8052 309.27 73.9984L312.42 75.8576L310.172 80.9984L306.438 80.5168C305.634 81.4895 304.691 82.3666 303.632 83.1264L304.355 86.3968L298.64 88.6368L296.393 85.9712C295.044 86.1573 293.673 86.1874 292.316 86.0608L290.195 88.816L284.366 86.8336L284.912 83.4736C283.803 82.7885 282.803 81.9748 281.94 81.0544L278.232 81.704L275.692 76.664L278.714 74.6704C278.503 73.481 278.469 72.2724 278.613 71.0752L275.476 69.2272L277.724 64.0752L281.534 64.5568C282.331 63.5824 283.275 62.7083 284.34 61.9584L283.604 58.688L289.319 56.448L291.579 59.1248C292.927 58.9329 294.299 58.9028 295.656 59.0352L297.764 56.2688L303.53 58.24L303.009 61.6C304.108 62.3096 305.099 63.1416 305.956 64.0752L309.664 63.4368L312.204 68.4768L309.169 70.4704V70.4144ZM300.203 70.4144C299.659 69.3498 298.771 68.4507 297.649 67.8306C296.528 67.2105 295.223 66.897 293.9 66.9296C292.577 66.9622 291.294 67.3396 290.214 68.014C289.133 68.6885 288.303 69.6299 287.828 70.7196C287.353 71.8094 287.255 72.9987 287.545 74.1377C287.835 75.2767 288.502 76.3145 289.459 77.1202C290.417 77.9259 291.624 78.4636 292.928 78.6654C294.232 78.8673 295.574 78.7243 296.786 78.2544C297.603 77.9404 298.341 77.4859 298.956 76.9175C299.572 76.3492 300.053 75.6783 300.371 74.9442C300.689 74.2101 300.838 73.4275 300.809 72.642C300.78 71.8565 300.574 71.084 300.203 70.3696V70.4144Z" fill="#EBEBEB"/>
<path d="M546.608 515.2C546.608 515.312 536.893 515.402 524.916 515.402C512.94 515.402 503.212 515.312 503.212 515.2C503.212 515.088 512.928 515.01 524.916 515.01C536.905 515.01 546.608 515.133 546.608 515.2Z" fill="#F5F5F5"/>
<path d="M189.446 134.747H181.242C180.386 134.673 179.522 134.753 178.702 134.982C177.875 135.278 177.189 135.816 176.759 136.506C176.536 136.855 176.378 137.233 176.289 137.626C176.25 138.05 176.25 138.477 176.289 138.902V140.224C176.311 140.685 176.277 141.147 176.187 141.602C176.073 142.078 175.853 142.529 175.539 142.929C175.225 143.329 174.823 143.669 174.358 143.931C173.866 144.22 173.306 144.408 172.72 144.48C172.136 144.48 171.577 144.48 170.98 144.48H141.262C140.865 144.496 140.467 144.462 140.081 144.379C139.283 144.204 138.568 143.812 138.036 143.259C137.492 142.707 137.143 142.025 137.033 141.299C137.006 140.926 137.006 140.552 137.033 140.179V139.059C137.104 138.342 137.018 137.62 136.779 136.931C136.506 136.246 135.995 135.654 135.319 135.24C134.624 134.825 133.794 134.625 132.956 134.669H113.995C112.073 134.598 110.158 134.917 108.396 135.6C106.635 136.283 105.075 137.313 103.835 138.611C102.592 139.949 101.722 141.526 101.295 143.214C101.186 143.643 101.101 144.077 101.041 144.514C101.041 144.883 101.041 145.253 101.041 145.634V323.49C101.006 324.674 101.177 325.857 101.549 326.995C102.364 329.398 104.085 331.484 106.426 332.909C108.788 334.313 111.608 334.994 114.452 334.846H189.052C191.707 334.846 194.374 334.846 196.977 334.846C199.577 334.71 202.063 333.86 204.089 332.416C205.07 331.698 205.926 330.856 206.629 329.918C207.329 328.981 207.86 327.953 208.204 326.872C208.543 325.778 208.701 324.646 208.674 323.512V307.048C208.674 272.048 208.674 240.542 208.737 214.088C208.801 187.634 208.737 166.208 208.813 151.368V146.126C208.854 144.594 208.543 143.07 207.899 141.646C207.335 140.43 206.531 139.311 205.524 138.342C204.694 137.536 203.731 136.845 202.667 136.293C201.23 135.517 199.625 135.017 197.955 134.826C197.534 134.769 197.11 134.735 196.685 134.725H196.253H189.497L189.446 134.747Z" fill="#FAFAFA"/>
<path d="M196.342 134.87H196.774C197.199 134.881 197.622 134.911 198.044 134.96C200.97 135.302 203.666 136.538 205.664 138.454C206.688 139.437 207.501 140.575 208.064 141.814C208.716 143.237 209.035 144.761 209.004 146.294C209.004 147.941 209.004 149.654 209.004 151.536C209.004 166.342 209.004 187.757 209.004 214.256C209.004 240.755 209.004 272.238 209.004 307.216V323.859C209.024 324.994 208.861 326.125 208.521 327.219C208.205 328.341 207.695 329.414 207.01 330.4C206.279 331.362 205.393 332.226 204.381 332.965C202.311 334.447 199.765 335.316 197.104 335.451C194.462 335.518 191.846 335.451 189.192 335.451H173.114H140.183H114.783C111.906 335.568 109.063 334.861 106.68 333.435C104.255 331.973 102.464 329.829 101.6 327.354C101.207 326.13 101.032 324.861 101.079 323.59V304.987C101.079 295.154 101.079 285.469 101.079 275.934C101.079 256.894 101.079 238.526 101.079 221.054C101.079 203.582 101.079 186.928 101.079 171.36C101.079 163.587 101.079 156.083 101.079 148.848V146.149C101.079 145.701 101.079 145.253 101.156 144.805C101.232 144.357 101.283 143.909 101.41 143.472C101.862 141.742 102.772 140.13 104.064 138.768C105.316 137.453 106.893 136.408 108.674 135.713C110.455 135.018 112.392 134.691 114.338 134.758H133.35C134.25 134.713 135.143 134.929 135.89 135.374C136.6 135.813 137.137 136.435 137.427 137.155C137.667 137.882 137.753 138.641 137.681 139.395V140.515C137.655 140.866 137.655 141.217 137.681 141.568C137.78 142.259 138.107 142.909 138.621 143.438C139.128 143.954 139.801 144.321 140.551 144.491C140.921 144.566 141.302 144.597 141.681 144.581H147.32H163.932H171.26C171.831 144.581 172.415 144.581 172.974 144.581C173.519 144.523 174.043 144.363 174.511 144.11C174.958 143.858 175.344 143.53 175.647 143.146C175.95 142.761 176.164 142.328 176.276 141.87C176.367 141.423 176.401 140.969 176.378 140.515V139.194C176.36 138.76 176.382 138.325 176.441 137.894C176.527 137.478 176.69 137.077 176.924 136.707C177.361 135.992 178.072 135.436 178.93 135.139C179.749 134.903 180.614 134.823 181.47 134.904H189.649H194.666H181.432C180.601 134.832 179.763 134.912 178.968 135.139C178.144 135.438 177.459 135.975 177.025 136.662C176.807 137.012 176.653 137.39 176.568 137.782C176.508 138.206 176.486 138.633 176.505 139.059V140.381C176.532 140.841 176.502 141.303 176.416 141.758C176.303 142.233 176.083 142.683 175.768 143.081C175.454 143.48 175.052 143.818 174.587 144.077C174.105 144.351 173.557 144.523 172.987 144.581C172.403 144.581 171.844 144.581 171.26 144.581H141.605C141.208 144.592 140.811 144.558 140.424 144.48C139.627 144.303 138.912 143.912 138.379 143.36C137.843 142.808 137.499 142.131 137.389 141.411C137.362 141.038 137.362 140.664 137.389 140.291V139.171C137.458 138.454 137.372 137.732 137.135 137.043C136.858 136.363 136.347 135.775 135.674 135.363C134.986 134.945 134.158 134.744 133.325 134.792H114.44C112.518 134.748 110.611 135.093 108.864 135.802C107.118 136.511 105.58 137.564 104.369 138.88C103.123 140.221 102.253 141.802 101.829 143.494C101.702 143.92 101.664 144.357 101.575 144.794C101.486 145.23 101.575 145.667 101.575 146.115V323.59C101.526 324.831 101.698 326.07 102.083 327.264C102.897 329.662 104.606 331.746 106.934 333.178C109.292 334.58 112.108 335.261 114.948 335.115H140.348H173.279H189.319C191.961 335.115 194.615 335.115 197.218 335.115C199.805 334.982 202.28 334.136 204.292 332.696C205.271 331.975 206.126 331.134 206.832 330.198C207.526 329.259 208.053 328.232 208.394 327.152C208.739 326.059 208.898 324.926 208.864 323.792V320.432C208.864 315.952 208.864 311.472 208.864 307.149C208.864 272.149 208.864 240.632 208.864 214.189C208.864 187.746 208.864 166.309 208.928 151.469C208.928 149.621 208.928 147.874 208.928 146.227C208.967 144.694 208.651 143.169 208.001 141.747C207.442 140.534 206.642 139.419 205.638 138.454C203.663 136.545 200.996 135.302 198.095 134.938C197.675 134.874 197.25 134.841 196.825 134.837L196.342 134.87Z" fill="#263238"/>
<path d="M198.78 152.869C198.78 152.869 196.698 152.969 194.132 152.991C191.567 153.014 189.484 152.991 189.484 152.991C189.484 152.991 191.554 152.891 194.132 152.869C196.71 152.846 198.78 152.824 198.78 152.869Z" fill="#263238"/>
<path d="M198.806 154.974C198.806 154.974 196.723 155.075 194.145 155.086C191.567 155.097 189.497 155.086 189.497 155.086C189.497 155.086 191.579 154.985 194.145 154.963C196.71 154.941 198.806 154.918 198.806 154.974Z" fill="#263238"/>
<path d="M198.819 157.069C198.819 157.069 196.736 157.169 194.17 157.191C191.605 157.214 189.522 157.191 189.522 157.191C189.522 157.191 191.605 157.091 194.17 157.069C196.736 157.046 198.819 157.024 198.819 157.069Z" fill="#263238"/>
<path d="M114.173 159.466H114.364H114.91H116.891C116.891 159.074 116.891 158.659 116.891 158.2C116.891 157.965 116.891 157.741 116.891 157.461C116.925 157.32 117.008 157.192 117.129 157.096C117.25 156.999 117.402 156.939 117.564 156.923H118.504C118.688 156.945 118.856 157.025 118.978 157.149C119.1 157.273 119.166 157.431 119.164 157.595C119.164 158.189 119.164 158.805 119.164 159.454L119.063 159.376H121.603L121.501 159.454C121.501 158.57 121.501 157.651 121.501 156.699C121.501 156.464 121.501 156.229 121.501 156.005C121.492 155.9 121.456 155.798 121.397 155.707C121.338 155.616 121.256 155.538 121.158 155.478L120.053 154.526L118.999 153.608L118.491 153.16C118.313 153.014 118.173 152.858 117.97 152.824C117.873 152.801 117.772 152.797 117.673 152.813C117.575 152.828 117.481 152.863 117.399 152.914C117.246 153.026 117.081 153.194 116.929 153.317L116.027 154.123C115.468 154.638 114.872 155.109 114.452 155.557C114.321 155.817 114.277 156.104 114.325 156.386V157.158C114.325 157.64 114.325 158.054 114.325 158.413C114.325 158.771 114.325 159.006 114.325 159.219C114.338 159.316 114.338 159.414 114.325 159.51C114.32 159.421 114.32 159.331 114.325 159.242C114.325 159.029 114.325 158.771 114.325 158.458V157.192C114.325 156.934 114.325 156.677 114.325 156.397V155.96C114.328 155.799 114.376 155.641 114.465 155.501C114.935 154.997 115.481 154.549 116.053 154.022L116.942 153.216C117.107 153.082 117.234 152.936 117.424 152.79C117.529 152.724 117.65 152.678 117.777 152.657C117.904 152.636 118.035 152.639 118.161 152.667C118.395 152.745 118.601 152.876 118.758 153.048L119.278 153.485L120.333 154.403L121.425 155.355C121.53 155.434 121.624 155.524 121.704 155.624C121.788 155.734 121.836 155.861 121.844 155.994V156.699C121.844 157.64 121.844 158.57 121.844 159.454V159.544H118.923V159.466C118.923 158.827 118.923 158.2 118.923 157.606C118.925 157.478 118.875 157.353 118.782 157.255C118.688 157.156 118.558 157.09 118.415 157.069C118.135 157.069 117.792 157.069 117.513 157.069C117.382 157.082 117.259 157.132 117.161 157.21C117.063 157.288 116.995 157.392 116.967 157.506C116.967 157.718 116.967 157.987 116.967 158.211C116.967 158.67 116.967 159.085 116.967 159.477H114.173V159.466Z" fill="#263238"/>
<path d="M177.343 232.96C177.343 233.274 167.373 233.531 155.08 233.531C142.786 233.531 132.829 233.274 132.829 232.96C132.829 232.646 142.786 232.389 155.08 232.389C167.373 232.389 177.343 232.669 177.343 232.96Z" fill="#263238"/>
<path d="M126.536 181.571L126.295 219.673L183.787 219.956L184.028 181.854L126.536 181.571Z" fill="#FF725E"/>
<path d="M126.289 219.677L146.52 196.09L158.864 210.974L167.348 203.09L183.782 219.957L126.289 219.677Z" fill="#FF725E"/>
<path d="M164.249 193.278C164.242 194.066 163.969 194.835 163.467 195.487C162.964 196.138 162.254 196.644 161.426 196.94C160.598 197.236 159.689 197.309 158.813 197.149C157.938 196.99 157.136 196.605 156.509 196.044C155.881 195.483 155.456 194.771 155.288 193.997C155.119 193.223 155.215 192.422 155.562 191.696C155.909 190.97 156.493 190.35 157.239 189.916C157.985 189.482 158.86 189.253 159.753 189.258C160.348 189.26 160.936 189.367 161.485 189.571C162.033 189.774 162.53 190.072 162.947 190.445C163.365 190.819 163.695 191.261 163.918 191.747C164.142 192.234 164.254 192.754 164.249 193.278Z" fill="#FF725E"/>
<g opacity="0.2">
<path d="M126.289 219.677L146.52 196.09L158.864 210.974L167.348 203.09L183.782 219.957L126.289 219.677Z" fill="black"/>
</g>
<g opacity="0.2">
<path d="M164.249 193.278C164.242 194.066 163.969 194.835 163.467 195.487C162.964 196.138 162.254 196.644 161.426 196.94C160.598 197.236 159.689 197.309 158.813 197.149C157.938 196.99 157.136 196.605 156.509 196.044C155.881 195.483 155.456 194.771 155.288 193.997C155.119 193.223 155.215 192.422 155.562 191.696C155.909 190.97 156.493 190.35 157.239 189.916C157.985 189.482 158.86 189.253 159.753 189.258C160.348 189.26 160.936 189.367 161.485 189.571C162.033 189.774 162.53 190.072 162.947 190.445C163.365 190.819 163.695 191.261 163.918 191.747C164.142 192.234 164.254 192.754 164.249 193.278Z" fill="black"/>
</g>
<path d="M194.666 247.005C194.666 247.33 176.987 247.587 155.207 247.587C133.426 247.587 115.735 247.33 115.735 247.005C115.735 246.68 133.35 246.4 155.207 246.4C177.063 246.4 194.666 246.691 194.666 247.005Z" fill="#263238"/>
<path d="M194.666 256.704C194.666 257.029 176.987 257.286 155.207 257.286C133.426 257.286 115.735 257.029 115.735 256.704C115.735 256.379 133.401 256.133 155.207 256.133C177.013 256.133 194.666 256.39 194.666 256.704Z" fill="#263238"/>
<path d="M194.666 266.414C194.666 266.728 176.987 266.986 155.207 266.986C133.426 266.986 115.735 266.728 115.735 266.414C115.735 266.101 133.401 265.832 155.207 265.832C177.013 265.832 194.666 266.09 194.666 266.414Z" fill="#263238"/>
<path d="M194.666 276.114C194.666 276.427 176.987 276.685 155.207 276.685C133.426 276.685 115.735 276.427 115.735 276.114C115.735 275.8 133.35 275.52 155.207 275.52C177.063 275.52 194.666 275.8 194.666 276.114Z" fill="#263238"/>
<path d="M194.666 285.813C194.666 286.138 176.987 286.395 155.207 286.395C133.426 286.395 115.735 286.138 115.735 285.813C115.735 285.488 133.401 285.242 155.207 285.242C177.013 285.242 194.666 285.499 194.666 285.813Z" fill="#263238"/>
<path d="M177.686 294.672C177.686 294.829 175.146 294.974 171.056 295.075C166.967 295.176 161.29 295.243 155.029 295.243C148.768 295.243 143.116 295.187 139.014 295.075C134.912 294.963 132.385 294.829 132.385 294.672C132.385 294.515 134.925 294.37 139.014 294.269C143.104 294.168 148.78 294.101 155.029 294.101C161.277 294.101 166.954 294.157 171.056 294.269C175.158 294.381 177.686 294.56 177.686 294.672Z" fill="#263238"/>
<path d="M268.338 118.462H259.22C258.316 118.388 257.404 118.476 256.54 118.72C255.613 119.047 254.845 119.649 254.368 120.422C254.115 120.822 253.943 121.258 253.86 121.71C253.79 122.182 253.765 122.658 253.784 123.133C253.784 123.626 253.784 124.118 253.784 124.622C253.802 125.136 253.764 125.65 253.67 126.157C253.542 126.685 253.296 127.186 252.947 127.63C252.599 128.074 252.154 128.453 251.638 128.744C251.095 129.044 250.483 129.235 249.847 129.304C249.199 129.304 248.577 129.304 247.917 129.304H214.897C214.47 129.312 214.043 129.275 213.627 129.192C212.742 128.994 211.948 128.56 211.353 127.949C210.738 127.317 210.352 126.537 210.249 125.709C210.217 125.306 210.217 124.902 210.249 124.499V123.301C210.327 122.502 210.237 121.696 209.982 120.926C209.676 120.162 209.102 119.503 208.344 119.045C207.578 118.577 206.656 118.352 205.727 118.406H184.493C182.365 118.331 180.246 118.687 178.3 119.448C176.353 120.209 174.631 121.355 173.266 122.797C171.861 124.289 170.87 126.049 170.37 127.938C170.231 128.408 170.193 128.901 170.091 129.382C169.989 129.864 170.091 130.211 170.028 130.626V329.09C169.989 330.406 170.178 331.72 170.586 332.987C171.493 335.665 173.406 337.991 176.009 339.584C178.624 341.146 181.746 341.909 184.899 341.757H213.17H249.898H267.792C270.739 341.757 273.698 341.757 276.593 341.757C279.482 341.607 282.244 340.663 284.493 339.058C285.591 338.252 286.553 337.313 287.35 336.269C288.118 335.232 288.705 334.099 289.09 332.909C289.464 331.705 289.643 330.461 289.624 329.213V310.621C289.624 271.589 289.624 236.443 289.7 206.92C289.776 177.397 289.7 153.518 289.776 137.01C289.776 134.938 289.776 132.989 289.776 131.163C289.817 129.454 289.467 127.755 288.747 126.168C288.121 124.815 287.226 123.571 286.106 122.494C285.186 121.591 284.115 120.817 282.931 120.198C281.337 119.336 279.553 118.782 277.698 118.574C277.227 118.507 276.752 118.466 276.276 118.451H275.793H273.888L268.338 118.462Z" fill="#FAFAFA"/>
<path d="M275.946 118.339H276.428C276.904 118.339 277.38 118.369 277.851 118.429C281.106 118.821 284.105 120.199 286.334 122.326C287.465 123.409 288.368 124.66 289.001 126.022C289.736 127.622 290.094 129.337 290.055 131.062C290.055 132.888 290.055 134.837 290.055 136.898C290.055 153.418 290.055 177.296 290.055 206.819C290.055 236.342 290.055 271.488 290.055 310.509V329.09C290.087 330.364 289.907 331.636 289.522 332.864C289.126 334.103 288.518 335.281 287.718 336.358C286.907 337.434 285.923 338.399 284.797 339.226C282.486 340.873 279.649 341.844 276.682 342.003C273.736 342.082 270.815 342.003 267.792 342.003H185.026C181.783 342.152 178.573 341.366 175.882 339.763C173.209 338.12 171.245 335.728 170.307 332.976C169.867 331.615 169.67 330.202 169.723 328.787V308.067C169.723 297.099 169.723 286.298 169.723 275.666C169.723 254.386 169.723 233.946 169.723 214.424C169.723 194.902 169.723 176.344 169.723 159.006C169.723 150.33 169.723 141.956 169.723 133.885V130.883C169.723 130.379 169.723 129.875 169.799 129.382C169.875 128.89 169.939 128.386 170.091 127.904C170.593 125.972 171.607 124.172 173.05 122.651C174.471 121.174 176.25 119.999 178.257 119.213C180.23 118.471 182.362 118.116 184.506 118.171H205.537C206.516 118.123 207.485 118.363 208.293 118.854C209.089 119.344 209.693 120.041 210.02 120.848C210.282 121.64 210.377 122.467 210.299 123.29V124.499C210.27 124.872 210.27 125.246 210.299 125.619C210.402 126.39 210.765 127.116 211.341 127.702C211.913 128.256 212.661 128.646 213.487 128.822C213.903 128.906 214.33 128.94 214.757 128.923H221.107H239.636H247.815C248.45 128.923 249.085 128.923 249.72 128.923C250.333 128.864 250.923 128.684 251.447 128.397C252.453 127.827 253.161 126.929 253.416 125.899C253.513 125.4 253.547 124.893 253.517 124.387C253.517 123.894 253.517 123.402 253.517 122.909C253.494 122.426 253.516 121.943 253.581 121.464C253.679 121.001 253.859 120.555 254.114 120.142C254.614 119.347 255.407 118.726 256.362 118.384C257.265 118.134 258.215 118.046 259.156 118.126H268.262H273.875H259.321C258.396 118.054 257.463 118.145 256.578 118.395C255.648 118.718 254.879 119.321 254.406 120.098C254.149 120.497 253.973 120.933 253.886 121.386C253.847 121.859 253.847 122.334 253.886 122.808V124.286C253.915 124.8 253.881 125.314 253.784 125.821C253.658 126.353 253.412 126.857 253.061 127.303C252.71 127.749 252.26 128.129 251.739 128.419C251.201 128.719 250.594 128.91 249.961 128.979C249.301 128.979 248.691 128.979 248.031 128.979H215.011C214.584 128.984 214.157 128.943 213.741 128.856C212.856 128.665 212.061 128.234 211.468 127.624C210.863 127.008 210.479 126.248 210.363 125.44C210.332 125.037 210.332 124.633 210.363 124.23V123.312C210.437 122.512 210.342 121.707 210.083 120.938C209.729 120.155 209.096 119.495 208.28 119.056C207.51 118.598 206.591 118.374 205.664 118.418H184.594C182.464 118.346 180.344 118.706 178.396 119.469C176.448 120.232 174.723 121.378 173.355 122.819C171.956 124.313 170.97 126.073 170.472 127.96C170.332 128.43 170.294 128.923 170.193 129.405C170.091 129.886 170.193 130.379 170.116 130.883V159.04C170.116 176.389 170.116 194.936 170.116 214.458V275.699C170.116 286.332 170.116 297.132 170.116 308.101V328.854C170.064 330.235 170.256 331.614 170.688 332.942C171.595 335.62 173.507 337.946 176.111 339.539C178.725 341.1 181.849 341.86 185.001 341.701H213.36H250.088H267.97C270.929 341.701 273.888 341.701 276.784 341.701C279.672 341.549 282.433 340.605 284.683 339.002C285.78 338.199 286.739 337.26 287.528 336.213C288.306 335.18 288.897 334.046 289.281 332.853C289.656 331.653 289.832 330.412 289.801 329.168C289.801 327.902 289.801 326.659 289.801 325.405V310.531C289.801 271.51 289.801 236.365 289.865 206.842C289.928 177.318 289.865 153.44 289.954 136.92V131.04C289.993 129.332 289.647 127.634 288.938 126.045C288.31 124.689 287.416 123.441 286.296 122.36C285.369 121.479 284.299 120.724 283.121 120.12C281.105 119.053 278.816 118.452 276.466 118.373L275.946 118.339Z" fill="#263238"/>
<path d="M278.663 138.41C278.663 138.41 276.339 138.532 273.482 138.543C270.624 138.555 268.288 138.543 268.288 138.543C268.288 138.543 270.612 138.432 273.469 138.41C276.327 138.387 278.663 138.365 278.663 138.41Z" fill="#263238"/>
<path d="M278.689 140.75C278.689 140.75 276.365 140.873 273.494 140.884C270.624 140.895 268.313 140.884 268.313 140.828C268.313 140.772 270.624 140.717 273.494 140.694C276.365 140.672 278.689 140.706 278.689 140.75Z" fill="#263238"/>
<path d="M278.702 143.091C278.702 143.091 276.39 143.214 273.52 143.225C270.65 143.236 268.326 143.225 268.326 143.225C268.326 143.225 270.65 143.113 273.52 143.091C276.39 143.069 278.702 143.046 278.702 143.091Z" fill="#263238"/>
<path d="M184.302 145.768H184.518H185.115H187.338C187.338 145.331 187.338 144.861 187.338 144.357C187.338 144.088 187.338 143.842 187.338 143.539C187.374 143.381 187.466 143.238 187.601 143.129C187.735 143.021 187.906 142.952 188.087 142.934C188.438 142.918 188.79 142.918 189.141 142.934C189.344 142.961 189.529 143.052 189.662 143.19C189.795 143.328 189.867 143.504 189.865 143.685C189.865 144.346 189.865 145.04 189.865 145.746L189.763 145.656H192.557L192.456 145.757C192.456 144.76 192.456 143.73 192.456 142.688V141.904C192.445 141.787 192.403 141.674 192.335 141.573C192.267 141.472 192.174 141.386 192.062 141.322L190.792 140.202L189.611 139.171L189.04 138.678C188.886 138.508 188.685 138.377 188.455 138.298C188.347 138.271 188.233 138.267 188.123 138.286C188.012 138.306 187.909 138.348 187.82 138.41C187.655 138.533 187.465 138.712 187.3 138.858L186.296 139.754C185.661 140.325 185.026 140.874 184.531 141.355C184.389 141.644 184.341 141.962 184.391 142.274V143.136C184.391 143.674 184.391 144.144 184.391 144.536C184.391 144.928 184.391 145.197 184.391 145.432C184.391 145.667 184.391 145.757 184.391 145.757C184.391 145.757 184.391 145.656 184.391 145.466C184.391 145.275 184.391 144.928 184.391 144.581C184.391 144.234 184.391 143.707 184.391 143.17C184.391 142.89 184.391 142.598 184.391 142.285C184.391 141.971 184.391 141.96 184.391 141.803C184.391 141.623 184.443 141.445 184.544 141.288C185.064 140.728 185.687 140.235 186.322 139.642L187.312 138.734C187.49 138.578 187.642 138.432 187.858 138.264C187.972 138.19 188.103 138.14 188.241 138.116C188.38 138.093 188.522 138.098 188.659 138.13C188.923 138.208 189.157 138.352 189.332 138.544L189.903 139.048C190.297 139.373 190.691 139.72 191.084 140.067L192.354 141.187C192.468 141.273 192.571 141.371 192.659 141.478C192.758 141.599 192.811 141.744 192.811 141.893C192.811 142.15 192.811 142.419 192.811 142.677C192.811 143.73 192.811 144.76 192.811 145.757V145.846H192.697H189.903H189.801V145.757C189.801 145.04 189.801 144.346 189.801 143.685C189.806 143.543 189.752 143.404 189.65 143.295C189.547 143.185 189.402 143.113 189.243 143.091C188.912 143.091 188.544 143.091 188.227 143.091C188.081 143.105 187.943 143.159 187.834 143.245C187.724 143.331 187.648 143.446 187.617 143.573C187.617 143.819 187.617 144.11 187.617 144.357V145.835H184.518L184.302 145.768Z" fill="#263238"/>
<path d="M240.792 158.581C240.795 160.217 240.247 161.816 239.218 163.177C238.189 164.538 236.725 165.599 235.012 166.226C233.299 166.853 231.413 167.018 229.594 166.699C227.775 166.381 226.104 165.593 224.792 164.437C223.48 163.28 222.588 161.806 222.226 160.202C221.865 158.597 222.052 156.935 222.763 155.424C223.474 153.913 224.677 152.622 226.22 151.715C227.763 150.807 229.577 150.324 231.432 150.326C233.915 150.326 236.295 151.196 238.051 152.744C239.806 154.292 240.792 156.392 240.792 158.581Z" fill="#FF725E"/>
<path d="M234.645 161.918H228.219V161.28C228.219 160.528 228.558 159.808 229.16 159.276C229.763 158.745 230.58 158.446 231.432 158.446C232.284 158.446 233.102 158.745 233.704 159.276C234.307 159.808 234.645 160.528 234.645 161.28V161.918Z" fill="white"/>
<path d="M233.312 156.923C233.312 157.254 233.2 157.577 232.992 157.851C232.783 158.126 232.487 158.34 232.141 158.466C231.794 158.592 231.413 158.624 231.046 158.559C230.678 158.494 230.341 158.334 230.077 158.099C229.813 157.865 229.633 157.566 229.562 157.242C229.49 156.917 229.53 156.581 229.675 156.277C229.82 155.972 230.065 155.712 230.377 155.53C230.69 155.348 231.057 155.252 231.432 155.254C231.68 155.254 231.925 155.298 232.154 155.382C232.383 155.466 232.591 155.589 232.766 155.744C232.94 155.899 233.079 156.083 233.172 156.285C233.266 156.488 233.313 156.705 233.312 156.923Z" fill="white"/>
<path d="M254.749 180.421C254.749 180.768 243.637 181.059 229.934 181.059C216.23 181.059 205.105 180.768 205.105 180.421C205.105 180.074 216.218 179.771 229.934 179.771C243.65 179.771 254.749 180.062 254.749 180.421Z" fill="#263238"/>
<path d="M179.299 202.169L179.119 230.572L221.981 230.783L222.161 202.38L179.299 202.169Z" fill="#FF725E"/>
<path d="M179.108 230.574L194.196 212.99L203.39 224.078L209.715 218.21L221.971 230.787L179.108 230.574Z" fill="#FF725E"/>
<path d="M207.416 210.896C207.414 211.486 207.213 212.061 206.839 212.55C206.465 213.039 205.935 213.419 205.316 213.642C204.697 213.866 204.017 213.922 203.362 213.804C202.707 213.686 202.106 213.399 201.636 212.979C201.166 212.56 200.847 212.027 200.721 211.448C200.595 210.869 200.666 210.27 200.926 209.727C201.186 209.183 201.623 208.72 202.181 208.396C202.74 208.072 203.395 207.901 204.064 207.906C204.957 207.912 205.812 208.23 206.44 208.79C207.069 209.351 207.42 210.108 207.416 210.896Z" fill="#FF725E"/>
<g opacity="0.2">
<path d="M179.108 230.574L194.196 212.99L203.39 224.078L209.715 218.21L221.971 230.787L179.108 230.574Z" fill="black"/>
</g>
<g opacity="0.2">
<path d="M207.416 210.896C207.414 211.486 207.213 212.061 206.839 212.55C206.465 213.039 205.935 213.419 205.316 213.642C204.697 213.866 204.017 213.922 203.362 213.804C202.707 213.686 202.106 213.399 201.636 212.979C201.166 212.56 200.847 212.027 200.721 211.448C200.595 210.869 200.666 210.27 200.926 209.727C201.186 209.183 201.623 208.72 202.181 208.396C202.74 208.072 203.395 207.901 204.064 207.906C204.957 207.912 205.812 208.23 206.44 208.79C207.069 209.351 207.42 210.108 207.416 210.896Z" fill="black"/>
</g>
<path d="M179.14 239.348L178.724 305.013L277.795 305.501L278.211 239.836L179.14 239.348Z" fill="#FF725E"/>
<path d="M178.727 305.01L213.589 264.354L234.861 290.002L249.479 276.427L277.8 305.491L178.727 305.01Z" fill="#FF725E"/>
<path d="M244.145 259.504C244.137 260.864 243.672 262.192 242.809 263.32C241.945 264.447 240.721 265.323 239.293 265.837C237.864 266.351 236.295 266.48 234.784 266.207C233.272 265.935 231.887 265.273 230.802 264.305C229.717 263.337 228.982 262.108 228.69 260.772C228.398 259.436 228.562 258.054 229.161 256.8C229.76 255.546 230.768 254.477 232.056 253.728C233.344 252.98 234.855 252.585 236.398 252.594C237.421 252.598 238.434 252.78 239.377 253.13C240.321 253.48 241.177 253.99 241.896 254.632C242.616 255.274 243.185 256.035 243.57 256.871C243.956 257.707 244.151 258.601 244.145 259.504Z" fill="#FF725E"/>
<g opacity="0.2">
<path d="M178.727 305.01L213.589 264.354L234.861 290.002L249.479 276.427L277.8 305.491L178.727 305.01Z" fill="black"/>
</g>
<g opacity="0.2">
<path d="M244.145 259.504C244.137 260.864 243.672 262.192 242.809 263.32C241.945 264.447 240.721 265.323 239.293 265.837C237.864 266.351 236.295 266.48 234.784 266.207C233.272 265.935 231.887 265.273 230.802 264.305C229.717 263.337 228.982 262.108 228.69 260.772C228.398 259.436 228.562 258.054 229.161 256.8C229.76 255.546 230.768 254.477 232.056 253.728C233.344 252.98 234.855 252.585 236.398 252.594C237.421 252.598 238.434 252.78 239.377 253.13C240.321 253.48 241.177 253.99 241.896 254.632C242.616 255.274 243.185 256.035 243.57 256.871C243.956 257.707 244.151 258.601 244.145 259.504Z" fill="black"/>
</g>
<path d="M235.876 202.17L235.696 230.572L278.558 230.784L278.738 202.381L235.876 202.17Z" fill="#FF725E"/>
<path d="M235.687 230.574L250.774 212.99L259.969 224.078L266.306 218.21L278.549 230.787L235.687 230.574Z" fill="#FF725E"/>
<path d="M260.617 213.853C262.482 213.853 263.995 212.519 263.995 210.874C263.995 209.228 262.482 207.894 260.617 207.894C258.751 207.894 257.239 209.228 257.239 210.874C257.239 212.519 258.751 213.853 260.617 213.853Z" fill="#FF725E"/>
<g opacity="0.2">
<path d="M235.687 230.574L250.774 212.99L259.969 224.078L266.306 218.21L278.549 230.787L235.687 230.574Z" fill="black"/>
</g>
<g opacity="0.2">
<path d="M260.617 213.853C262.482 213.853 263.995 212.519 263.995 210.874C263.995 209.228 262.482 207.894 260.617 207.894C258.751 207.894 257.239 209.228 257.239 210.874C257.239 212.519 258.751 213.853 260.617 213.853Z" fill="black"/>
</g>
<path d="M534.467 129.528H526.301C525.47 129.467 524.634 129.547 523.837 129.763C523.212 129.996 522.664 130.364 522.244 130.834C521.824 131.304 521.546 131.861 521.437 132.451C521.371 132.874 521.349 133.302 521.373 133.728V135.061C521.402 135.518 521.368 135.977 521.272 136.427C521.156 136.906 520.934 137.359 520.618 137.761C520.302 138.163 519.898 138.505 519.43 138.768C518.943 139.032 518.397 139.201 517.83 139.261C517.246 139.261 516.674 139.261 516.09 139.261H486.474C486.072 139.277 485.67 139.243 485.28 139.16C484.487 138.981 483.777 138.59 483.248 138.04C482.704 137.488 482.36 136.806 482.257 136.08C482.231 135.707 482.231 135.333 482.257 134.96V133.84C482.332 133.124 482.251 132.401 482.016 131.712C481.743 131.027 481.232 130.435 480.555 130.021C479.864 129.609 479.039 129.408 478.206 129.45H459.296C457.387 129.384 455.487 129.706 453.741 130.389C451.995 131.072 450.45 132.1 449.224 133.392C447.984 134.736 447.115 136.316 446.684 138.006C446.578 138.432 446.498 138.862 446.443 139.294C446.443 139.664 446.443 140.034 446.38 140.414V318.394C446.344 319.575 446.515 320.753 446.888 321.888C447.697 324.288 449.408 326.373 451.739 327.802C454.091 329.208 456.903 329.892 459.74 329.75H485.14H518.071H534.124C536.766 329.75 539.42 329.75 542.023 329.75C544.61 329.615 547.084 328.769 549.097 327.331C550.08 326.61 550.936 325.765 551.637 324.822C552.337 323.885 552.869 322.857 553.212 321.776C553.552 320.701 553.711 319.588 553.682 318.472V315.112C553.682 310.632 553.682 306.204 553.682 301.829C553.682 266.84 553.682 235.323 553.682 208.869C553.682 182.414 553.682 160.978 553.758 146.149C553.758 144.301 553.758 142.554 553.758 140.918C553.787 139.386 553.472 137.863 552.831 136.438C551.802 134.202 549.974 132.323 547.624 131.085C546.19 130.313 544.59 129.813 542.925 129.618C542.366 129.528 541.934 129.55 541.655 129.517H541.223H534.48L534.467 129.528Z" fill="#FAFAFA"/>
<path d="M534.899 204.893H463.982V217.672H534.899V204.893Z" fill="#EBEBEB"/>
<path d="M541.452 129.427H541.884C542.309 129.433 542.733 129.463 543.154 129.517C546.077 129.866 548.771 131.101 550.774 133.011C551.789 134 552.601 135.137 553.174 136.371C553.819 137.795 554.139 139.318 554.114 140.851V146.093C554.114 160.888 554.114 182.314 554.114 208.813C554.114 235.312 554.114 266.795 554.114 301.773V318.427C554.14 319.562 553.977 320.694 553.631 321.787C553.286 322.898 552.741 323.953 552.018 324.912C551.295 325.88 550.413 326.748 549.402 327.488C547.329 328.965 544.785 329.834 542.125 329.974C539.483 330.042 536.854 329.974 534.2 329.974H459.93C457.023 330.115 454.142 329.415 451.726 327.981C449.328 326.507 447.568 324.359 446.735 321.888C446.337 320.669 446.157 319.403 446.202 318.136V314.384C446.202 309.396 446.202 304.446 446.202 299.533V270.491C446.202 251.451 446.202 233.072 446.202 215.611C446.202 198.15 446.202 181.485 446.202 165.917C446.202 158.129 446.202 150.625 446.202 143.405C446.202 142.498 446.202 141.602 446.202 140.706C446.202 140.258 446.202 139.81 446.202 139.362C446.202 138.914 446.329 138.466 446.456 138.029C447.113 135.471 448.767 133.198 451.13 131.606C453.492 130.014 456.414 129.203 459.384 129.315H478.244C479.123 129.279 479.992 129.495 480.72 129.931C481.43 130.369 481.967 130.992 482.257 131.712C482.51 132.436 482.597 133.198 482.511 133.952V135.072C482.485 135.423 482.485 135.774 482.511 136.125C482.606 136.816 482.939 137.464 483.464 137.984C483.958 138.507 484.631 138.876 485.381 139.037C485.754 139.121 486.14 139.155 486.524 139.138H492.227H508.838H516.166C516.738 139.138 517.334 139.138 517.881 139.138C518.428 139.083 518.953 138.918 519.417 138.656C519.868 138.408 520.257 138.081 520.561 137.696C520.864 137.311 521.076 136.875 521.183 136.416C521.28 135.973 521.314 135.522 521.284 135.072V133.739C521.272 133.309 521.297 132.878 521.36 132.451C521.438 132.031 521.597 131.626 521.83 131.253C522.28 130.542 522.993 129.989 523.85 129.685C524.67 129.46 525.534 129.38 526.39 129.45H534.556H539.636H526.542C525.711 129.377 524.872 129.457 524.078 129.685C523.248 129.976 522.56 130.515 522.135 131.208C521.912 131.556 521.757 131.935 521.678 132.328C521.633 132.753 521.633 133.18 521.678 133.605V134.938C521.701 135.399 521.666 135.861 521.576 136.315C521.463 136.789 521.245 137.238 520.933 137.636C520.621 138.034 520.222 138.373 519.76 138.634C519.273 138.907 518.721 139.08 518.147 139.138C517.563 139.138 517.004 139.138 516.42 139.138H486.715C486.314 139.143 485.913 139.109 485.521 139.037C484.729 138.847 484.019 138.454 483.481 137.908C482.942 137.361 482.601 136.686 482.498 135.968C482.465 135.595 482.465 135.221 482.498 134.848V133.728C482.566 133.012 482.485 132.29 482.257 131.6C481.983 130.913 481.463 130.323 480.776 129.919C480.089 129.515 479.272 129.319 478.447 129.36H459.537C457.649 129.315 455.773 129.633 454.038 130.29C452.248 130.975 450.667 132.023 449.423 133.349C448.179 134.674 447.306 136.239 446.875 137.917C446.748 138.342 446.71 138.779 446.621 139.216C446.532 139.653 446.557 140.09 446.557 140.538V165.749C446.557 181.317 446.557 197.938 446.557 215.443V270.323C446.557 279.843 446.557 289.527 446.557 299.376V317.979C446.509 319.216 446.68 320.452 447.065 321.642C447.881 324.042 449.596 326.126 451.929 327.555C454.282 328.961 457.093 329.646 459.93 329.504H485.33H518.262H534.302C536.956 329.504 539.598 329.504 542.201 329.504C544.792 329.371 547.27 328.525 549.288 327.085C550.263 326.362 551.119 325.521 551.828 324.587C552.523 323.647 553.054 322.62 553.402 321.541C553.735 320.445 553.893 319.315 553.872 318.181V301.75C553.872 266.762 553.872 235.245 553.936 208.79C553.999 182.336 553.936 160.899 553.999 146.07C553.999 144.211 553.999 142.464 553.999 140.829C554.037 139.297 553.726 137.773 553.085 136.349C552.521 135.136 551.716 134.021 550.71 133.056C549.89 132.242 548.93 131.546 547.865 130.995C546.435 130.228 544.839 129.732 543.179 129.539C542.759 129.477 542.335 129.443 541.909 129.438L541.452 129.427Z" fill="#263238"/>
<path d="M543.878 147.425C543.878 147.425 541.795 147.526 539.229 147.548C536.664 147.57 534.581 147.548 534.581 147.492C534.581 147.436 536.664 147.392 539.229 147.37C541.795 147.347 543.878 147.381 543.878 147.425Z" fill="#263238"/>
<path d="M543.903 149.52C543.903 149.576 541.82 149.62 539.255 149.643C536.689 149.665 534.607 149.643 534.594 149.587C534.581 149.531 536.677 149.486 539.255 149.475C541.833 149.464 543.903 149.475 543.903 149.52Z" fill="#263238"/>
<path d="M543.916 151.625C543.916 151.625 541.846 151.726 539.267 151.748C536.689 151.77 534.619 151.748 534.619 151.692C534.619 151.637 536.702 151.592 539.267 151.57C541.833 151.547 543.916 151.581 543.916 151.625Z" fill="#263238"/>
<path d="M459.283 154.022C459.283 154.022 459.346 154.022 459.473 154.022H460.007H462.001C462.001 153.63 462.001 153.205 462.001 152.757C462.001 152.51 462.001 152.298 462.001 152.018C462.032 151.878 462.113 151.75 462.231 151.654C462.35 151.557 462.501 151.496 462.661 151.48C462.979 151.48 463.258 151.48 463.614 151.48C463.795 151.504 463.961 151.586 464.08 151.709C464.199 151.833 464.263 151.99 464.261 152.152C464.261 152.746 464.261 153.362 464.261 154L464.172 153.922H466.712L466.611 154.011C466.611 153.126 466.611 152.197 466.611 151.256V150.562C466.601 150.456 466.564 150.353 466.502 150.262C466.441 150.171 466.356 150.093 466.255 150.035L465.163 149.083L464.109 148.165L463.588 147.717C463.41 147.571 463.283 147.414 463.067 147.381C462.971 147.356 462.869 147.352 462.77 147.367C462.671 147.383 462.577 147.418 462.496 147.47C462.344 147.582 462.178 147.75 462.026 147.874L461.137 148.68C460.566 149.195 459.981 149.666 459.55 150.114C459.424 150.375 459.38 150.661 459.423 150.942V151.715C459.423 152.197 459.423 152.611 459.423 152.97C459.423 153.328 459.423 153.563 459.423 153.776V154.067C459.411 153.978 459.411 153.888 459.423 153.798C459.423 153.586 459.423 153.328 459.423 153.003V151.749C459.423 151.491 459.423 151.234 459.423 150.954V150.517C459.417 150.355 459.466 150.195 459.562 150.058C460.019 149.554 460.578 149.106 461.15 148.579C461.429 148.31 461.734 148.042 462.039 147.773C462.19 147.623 462.351 147.481 462.521 147.347C462.624 147.281 462.742 147.235 462.868 147.214C462.993 147.193 463.122 147.196 463.245 147.224C463.482 147.296 463.69 147.429 463.842 147.605L464.363 148.042L465.417 148.96L466.522 149.912C466.624 149.994 466.718 150.084 466.801 150.181C466.881 150.291 466.925 150.419 466.928 150.55C466.928 150.786 466.928 151.021 466.928 151.256C466.928 152.197 466.928 153.115 466.928 154.011V154.09H466.827H464.287H464.198V154.011C464.198 153.362 464.198 152.746 464.198 152.152C464.2 152.024 464.15 151.899 464.056 151.8C463.963 151.702 463.833 151.636 463.69 151.614H462.775C462.647 151.626 462.526 151.674 462.43 151.75C462.334 151.827 462.268 151.928 462.242 152.04C462.242 152.264 462.242 152.522 462.242 152.746V154.067H459.473L459.283 154.022Z" fill="#263238"/>
<path d="M535.051 223.944H464.134V236.723H535.051V223.944Z" fill="#EBEBEB"/>
<path d="M535.051 242.48H464.134V255.259H535.051V242.48Z" fill="#EBEBEB"/>
<path d="M518.008 280.65H482.448C480.527 280.647 478.685 279.972 477.328 278.773C475.971 277.573 475.209 275.949 475.209 274.254C475.209 272.561 475.971 270.937 477.329 269.74C478.686 268.543 480.528 267.87 482.448 267.87H518.008C519.928 267.87 521.769 268.543 523.126 269.74C524.484 270.937 525.247 272.561 525.247 274.254C525.247 275.949 524.484 277.573 523.127 278.773C521.77 279.972 519.929 280.647 518.008 280.65Z" fill="#FF725E"/>
<path d="M522.287 191.688C522.287 192.002 512.331 192.259 500.037 192.259C487.744 192.259 477.787 192.002 477.787 191.688C477.787 191.374 487.744 191.117 500.037 191.117C512.331 191.117 522.287 191.374 522.287 191.688Z" fill="#263238"/>
<path d="M476.339 116.312H467.22C466.296 116.23 465.362 116.318 464.477 116.57C463.55 116.896 462.782 117.499 462.305 118.272C462.057 118.674 461.886 119.109 461.797 119.56C461.725 120.035 461.704 120.515 461.734 120.994V122.472C461.752 122.985 461.714 123.499 461.62 124.006C461.492 124.535 461.246 125.035 460.897 125.479C460.548 125.923 460.103 126.302 459.588 126.594C459.044 126.893 458.433 127.085 457.797 127.154C457.149 127.154 456.527 127.154 455.866 127.154H422.846C422.42 127.162 421.993 127.124 421.576 127.042C420.692 126.844 419.898 126.409 419.303 125.798C418.693 125.164 418.308 124.385 418.198 123.558C418.173 123.155 418.173 122.752 418.198 122.349V121.15C418.277 120.351 418.187 119.546 417.932 118.776C417.626 118.014 417.058 117.356 416.306 116.894C415.534 116.431 414.609 116.207 413.677 116.256H392.493C390.366 116.18 388.247 116.537 386.3 117.298C384.354 118.059 382.631 119.205 381.267 120.646C379.862 122.138 378.871 123.899 378.371 125.787C378.231 126.269 378.193 126.75 378.092 127.232C377.99 127.714 378.092 128.061 378.092 128.475V326.939C378.051 328.257 378.244 329.572 378.663 330.837C379.561 333.515 381.47 335.843 384.073 337.434C386.688 338.996 389.81 339.759 392.963 339.606H421.234H457.962H475.856C478.803 339.606 481.762 339.606 484.657 339.606C487.546 339.457 490.308 338.513 492.557 336.907C493.658 336.105 494.621 335.165 495.414 334.118C496.182 333.082 496.769 331.949 497.154 330.758C497.54 329.557 497.72 328.311 497.688 327.062V323.31C497.688 318.308 497.688 313.368 497.688 308.493C497.688 269.461 497.688 234.315 497.751 204.792C497.815 175.269 497.751 151.39 497.827 134.882C497.827 132.81 497.827 130.861 497.827 129.035C497.868 127.326 497.518 125.627 496.799 124.04C496.172 122.687 495.278 121.443 494.157 120.366C491.961 118.233 488.986 116.846 485.75 116.446C485.279 116.381 484.804 116.344 484.327 116.334H483.845H481.94L476.339 116.312Z" fill="#FAFAFA"/>
<path d="M483.946 116.48H484.429C484.905 116.49 485.38 116.524 485.851 116.581C487.717 116.78 489.513 117.326 491.122 118.182C492.314 118.782 493.398 119.537 494.335 120.422C495.466 121.505 496.369 122.756 497.002 124.118C497.736 125.714 498.095 127.425 498.056 129.147C498.056 130.984 498.056 132.933 498.056 134.994C498.056 151.502 498.056 175.392 498.056 204.915C498.056 234.438 498.056 269.584 498.056 308.605V327.174C498.088 328.452 497.909 329.728 497.522 330.96C497.13 332.2 496.521 333.379 495.719 334.454C494.908 335.53 493.924 336.496 492.798 337.322C490.486 338.969 487.65 339.94 484.683 340.099C481.736 340.166 478.815 340.099 475.856 340.099H393.027C389.783 340.258 386.569 339.471 383.883 337.859C381.208 336.222 379.242 333.833 378.308 331.083C377.867 329.718 377.67 328.301 377.723 326.883V306.174C377.723 295.198 377.723 284.398 377.723 273.773C377.723 252.493 377.723 232.042 377.723 212.531C377.723 193.021 377.723 174.451 377.723 157.102C377.723 148.434 377.723 140.045 377.723 131.992V128.99C377.723 128.486 377.723 127.982 377.8 127.478C377.876 126.974 377.952 126.493 378.092 126.011C378.599 124.08 379.612 122.281 381.051 120.758C382.471 119.282 384.251 118.106 386.258 117.32C388.231 116.578 390.362 116.223 392.506 116.278H413.537C414.52 116.232 415.493 116.472 416.306 116.962C417.096 117.455 417.694 118.151 418.02 118.955C418.289 119.746 418.383 120.575 418.3 121.397V122.606C418.268 122.998 418.268 123.391 418.3 123.782C418.412 124.547 418.774 125.267 419.341 125.854C419.91 126.412 420.659 126.803 421.488 126.974C421.902 127.067 422.33 127.105 422.758 127.086H429.108H447.637H455.93C456.565 127.086 457.2 127.086 457.835 127.086C458.448 127.027 459.038 126.847 459.562 126.56C460.568 125.99 461.276 125.092 461.531 124.062C461.626 123.563 461.664 123.056 461.645 122.55V121.072C461.619 120.589 461.645 120.106 461.721 119.627C461.81 119.161 461.986 118.71 462.242 118.294C462.745 117.504 463.538 116.888 464.49 116.547C465.392 116.298 466.342 116.21 467.284 116.29H476.39H482.003H467.36C466.434 116.217 465.502 116.309 464.617 116.558C463.687 116.881 462.917 117.484 462.445 118.261C462.186 118.658 462.014 119.095 461.937 119.549C461.866 120.02 461.841 120.496 461.861 120.971V122.45C461.89 122.963 461.856 123.477 461.759 123.984C461.635 124.513 461.39 125.015 461.041 125.46C460.692 125.904 460.245 126.282 459.727 126.571C459.186 126.874 458.574 127.066 457.937 127.131C457.289 127.131 456.667 127.131 456.006 127.131H422.91C422.483 127.145 422.055 127.108 421.64 127.019C420.757 126.823 419.963 126.393 419.367 125.787C418.751 125.156 418.366 124.375 418.262 123.547C418.231 123.144 418.231 122.74 418.262 122.338V121.128C418.34 120.329 418.25 119.524 417.995 118.754C417.682 117.993 417.11 117.335 416.357 116.872C415.589 116.409 414.669 116.184 413.741 116.234H392.595C390.49 116.178 388.396 116.53 386.461 117.264C384.47 118.036 382.711 119.208 381.324 120.686C379.937 122.164 378.961 123.907 378.473 125.776C378.333 126.246 378.295 126.739 378.193 127.221C378.092 127.702 378.13 128.195 378.117 128.699V131.701C378.117 139.754 378.117 148.142 378.117 156.811V305.883C378.117 311.36 378.117 316.893 378.117 322.448V326.626C378.064 328.01 378.257 329.393 378.689 330.725C379.595 333.402 381.508 335.729 384.111 337.322C386.726 338.881 389.85 339.641 393.001 339.483H475.907C478.853 339.483 481.813 339.483 484.708 339.483C487.563 339.434 490.331 338.609 492.633 337.12C493.731 336.319 494.693 335.383 495.49 334.342C496.257 333.305 496.844 332.173 497.23 330.982C497.605 329.779 497.785 328.534 497.764 327.286V308.638C497.764 269.618 497.764 234.461 497.827 204.949C497.891 175.437 497.891 151.536 497.916 135.027V129.181C497.961 127.476 497.616 125.781 496.9 124.197C496.273 122.841 495.379 121.593 494.259 120.512C493.332 119.631 492.262 118.876 491.084 118.272C489.487 117.413 487.705 116.857 485.851 116.637C485.38 116.572 484.905 116.534 484.429 116.525L483.946 116.48Z" fill="#263238"/>
<path d="M486.664 136.517C486.664 136.517 484.34 136.628 481.482 136.651C478.625 136.673 476.25 136.639 476.25 136.639C476.25 136.639 478.574 136.528 481.444 136.505C484.315 136.483 486.664 136.461 486.664 136.517Z" fill="#263238"/>
<path d="M486.689 138.88C486.689 138.88 484.365 138.991 481.495 139.014C478.625 139.036 476.313 139.014 476.313 139.014C476.313 139.014 478.638 138.902 481.495 138.88C484.353 138.858 486.689 138.802 486.689 138.88Z" fill="#263238"/>
<path d="M486.702 141.198C486.702 141.254 484.391 141.31 481.52 141.332C478.65 141.355 476.339 141.332 476.339 141.332C476.339 141.332 478.65 141.221 481.52 141.198C484.391 141.176 486.702 141.12 486.702 141.198Z" fill="#263238"/>
<path d="M392.303 143.875C392.303 143.875 392.379 143.875 392.519 143.875H393.116H395.338L395.275 143.931C395.275 143.494 395.275 143.024 395.275 142.509C395.275 142.251 395.275 142.005 395.275 141.702C395.311 141.545 395.403 141.401 395.538 141.293C395.673 141.184 395.843 141.116 396.024 141.098C396.38 141.098 396.697 141.098 397.078 141.098C397.282 141.127 397.468 141.22 397.6 141.36C397.733 141.5 397.805 141.677 397.802 141.859C397.802 142.52 397.802 143.203 397.802 143.92L397.7 143.83H400.494L400.393 143.931C400.393 142.934 400.393 141.904 400.393 140.851V140C400.382 139.883 400.341 139.77 400.272 139.669C400.204 139.568 400.111 139.482 399.999 139.418L398.729 138.298L397.548 137.267L396.977 136.774C396.786 136.606 396.621 136.427 396.392 136.394C396.285 136.368 396.172 136.363 396.062 136.381C395.952 136.398 395.848 136.437 395.757 136.494C395.592 136.629 395.402 136.808 395.237 136.954L394.233 137.838C393.598 138.421 392.963 138.958 392.468 139.451C392.325 139.74 392.277 140.058 392.328 140.37V141.232C392.328 141.77 392.328 142.229 392.328 142.632C392.328 143.035 392.328 143.282 392.328 143.528C392.341 143.636 392.341 143.745 392.328 143.853C392.328 143.853 392.328 143.752 392.328 143.55C392.328 143.349 392.328 143.024 392.328 142.677C392.328 142.33 392.328 141.803 392.328 141.266C392.328 140.986 392.328 140.694 392.328 140.381C392.328 140.067 392.328 140.056 392.328 139.899C392.327 139.714 392.385 139.531 392.493 139.373C393.001 138.824 393.624 138.32 394.259 137.726L395.249 136.83C395.422 136.665 395.604 136.508 395.795 136.36C395.91 136.283 396.042 136.23 396.183 136.205C396.324 136.18 396.469 136.183 396.608 136.214C396.866 136.304 397.093 136.451 397.269 136.64L397.84 137.133L399.034 138.163L400.304 139.216C400.419 139.309 400.525 139.41 400.622 139.518C400.711 139.642 400.76 139.786 400.761 139.933C400.761 140.19 400.761 140.459 400.761 140.717C400.761 141.77 400.761 142.8 400.761 143.786V143.886H397.751V143.797C397.751 143.08 397.751 142.397 397.751 141.736C397.757 141.593 397.703 141.452 397.6 141.341C397.498 141.23 397.353 141.155 397.192 141.131C396.875 141.131 396.494 141.131 396.177 141.131C396.031 141.144 395.894 141.197 395.787 141.284C395.679 141.371 395.606 141.486 395.58 141.613C395.561 141.874 395.561 142.136 395.58 142.397V143.875H393.332H392.544H392.303Z" fill="#263238"/>
<path d="M462.716 193.213C464.699 181.916 455.923 171.341 443.113 169.592C430.304 167.844 418.312 175.584 416.329 186.88C414.346 198.176 423.123 208.752 435.932 210.5C448.742 212.249 460.733 204.509 462.716 193.213Z" fill="#FF725E"/>
<path d="M447.599 198.408H431.495V196.661C431.495 194.778 432.343 192.971 433.853 191.64C435.363 190.308 437.412 189.56 439.547 189.56C441.682 189.56 443.73 190.308 445.24 191.64C446.75 192.971 447.599 194.778 447.599 196.661V198.408Z" fill="white"/>
<path d="M439.547 190.064C442.163 190.064 444.284 188.194 444.284 185.886C444.284 183.579 442.163 181.709 439.547 181.709C436.931 181.709 434.81 183.579 434.81 185.886C434.81 188.194 436.931 190.064 439.547 190.064Z" fill="white"/>
<path d="M476.822 234.45H397.726V248.696H476.822V234.45Z" fill="#EBEBEB"/>
<path d="M476.822 255.125H397.726V269.371H476.822V255.125Z" fill="#EBEBEB"/>
<path d="M457.81 297.685H418.109C417.048 297.686 415.997 297.503 415.016 297.146C414.036 296.788 413.145 296.263 412.394 295.602C411.644 294.94 411.049 294.154 410.644 293.289C410.238 292.424 410.031 291.497 410.032 290.562C410.032 289.626 410.241 288.7 410.647 287.836C411.053 286.971 411.648 286.186 412.398 285.525C413.148 284.863 414.038 284.339 415.018 283.981C415.998 283.623 417.049 283.438 418.109 283.438H457.81C458.87 283.438 459.921 283.623 460.901 283.981C461.881 284.339 462.771 284.863 463.521 285.525C464.271 286.186 464.866 286.971 465.272 287.836C465.678 288.7 465.887 289.626 465.887 290.562C465.887 291.497 465.678 292.423 465.272 293.287C464.866 294.152 464.271 294.937 463.521 295.598C462.771 296.26 461.881 296.785 460.901 297.143C459.921 297.501 458.87 297.685 457.81 297.685Z" fill="#FF725E"/>
<path d="M462.75 225.87C462.75 226.218 451.637 226.509 437.934 226.509C424.231 226.509 413.106 226.218 413.106 225.87C413.106 225.523 424.218 225.221 437.934 225.221C451.65 225.221 462.75 225.512 462.75 225.87Z" fill="#263238"/>
<path d="M408.648 244.709H405.13C405.049 244.71 404.968 244.697 404.893 244.671C404.817 244.645 404.749 244.605 404.691 244.555C404.633 244.505 404.587 244.445 404.555 244.38C404.524 244.314 404.508 244.243 404.508 244.171C404.506 243.901 404.565 243.633 404.681 243.383C404.797 243.133 404.968 242.906 405.184 242.715C405.4 242.523 405.657 242.371 405.939 242.267C406.222 242.164 406.526 242.11 406.832 242.11H406.908C407.528 242.11 408.122 242.327 408.56 242.714C408.999 243.1 409.245 243.625 409.245 244.171C409.245 244.312 409.182 244.447 409.071 244.547C408.959 244.648 408.807 244.706 408.648 244.709Z" fill="#E0E0E0"/>
<path d="M408.292 241.035C408.292 241.279 408.21 241.517 408.057 241.72C407.903 241.922 407.685 242.08 407.43 242.173C407.175 242.267 406.894 242.291 406.623 242.243C406.352 242.196 406.103 242.079 405.907 241.906C405.712 241.734 405.579 241.514 405.525 241.276C405.471 241.037 405.499 240.789 405.605 240.564C405.71 240.339 405.889 240.146 406.119 240.011C406.349 239.875 406.619 239.803 406.895 239.803C407.079 239.802 407.262 239.832 407.432 239.894C407.602 239.955 407.757 240.046 407.887 240.161C408.017 240.275 408.12 240.412 408.189 240.562C408.259 240.712 408.294 240.873 408.292 241.035Z" fill="#E0E0E0"/>
<path d="M408.978 262.472H404.813V265.07H408.978V262.472Z" fill="#E0E0E0"/>
<path d="M409.448 263.032H408.051V262.226C408.051 261.949 407.927 261.684 407.705 261.489C407.484 261.294 407.183 261.184 406.87 261.184C406.557 261.184 406.256 261.294 406.035 261.489C405.813 261.684 405.689 261.949 405.689 262.226V263.032H404.292V262.226C404.292 261.623 404.563 261.044 405.047 260.618C405.53 260.192 406.186 259.952 406.87 259.952C407.554 259.952 408.209 260.192 408.693 260.618C409.176 261.044 409.448 261.623 409.448 262.226V263.032Z" fill="#E0E0E0"/>
<path d="M392.57 72.5872H378.993C377.614 72.4725 376.223 72.6058 374.904 72.9792C373.526 73.4647 372.385 74.3603 371.678 75.5104C371.301 76.1052 371.043 76.7532 370.916 77.4256C370.816 78.12 370.79 78.8213 370.84 79.52V81.76C370.882 82.5098 370.827 83.2613 370.675 84C370.488 84.7876 370.125 85.5343 369.606 86.1961C369.086 86.8578 368.422 87.4211 367.652 87.8528C366.845 88.3045 365.934 88.5915 364.985 88.6928C364.02 88.76 363.08 88.6928 362.102 88.6928H312.839C312.177 88.7141 311.515 88.6576 310.871 88.5248C309.552 88.2377 308.37 87.591 307.492 86.6768C306.582 85.7666 306.006 84.6339 305.841 83.4288C305.766 82.8339 305.74 82.235 305.765 81.6368V79.9344C305.881 78.7463 305.743 77.5497 305.359 76.4064C304.902 75.2724 304.054 74.2932 302.933 73.6064C301.782 72.9203 300.408 72.5859 299.021 72.6544H267.703C264.534 72.5466 261.379 73.08 258.48 74.2137C255.581 75.3475 253.014 77.0515 250.977 79.1952C248.885 81.4182 247.411 84.0415 246.672 86.856C246.469 87.5504 246.405 88.2896 246.253 89.0064C246.101 89.7232 246.189 90.2272 246.164 90.8432V386.075C246.104 388.039 246.387 390 247.002 391.888C248.355 395.868 251.198 399.327 255.067 401.699C258.978 404.032 263.65 405.165 268.364 404.925H310.464H365.163H391.833C396.215 404.925 400.621 404.992 404.952 404.925C409.253 404.703 413.366 403.296 416.712 400.904C418.343 399.708 419.771 398.312 420.954 396.76C422.112 395.201 422.99 393.493 423.558 391.698C424.118 389.907 424.383 388.055 424.345 386.198V380.598C424.345 373.132 424.345 365.785 424.345 358.557C424.345 300.462 424.409 248.158 424.434 204.221C424.459 160.283 424.536 124.701 424.561 100.162C424.561 97.0816 424.561 94.1808 424.561 91.4592C424.62 88.9191 424.102 86.3943 423.037 84.0336C422.105 82.0156 420.772 80.1609 419.1 78.5568C417.731 77.2288 416.137 76.0954 414.376 75.1968C411.997 73.9303 409.346 73.1141 406.59 72.8C405.888 72.705 405.18 72.6489 404.47 72.632H403.758H400.914L392.57 72.5872Z" fill="#FAFAFA"/>
<path d="M403.962 72.6544H404.686C405.391 72.6568 406.095 72.7017 406.794 72.7888C409.567 73.0901 412.237 73.9029 414.63 75.1744C416.401 76.0754 418.007 77.2083 419.392 78.5344C421.079 80.1431 422.426 82.0056 423.367 84.0336C424.448 86.4069 424.979 88.9469 424.929 91.504C424.929 94.2256 424.929 97.104 424.929 100.184C424.929 124.712 424.929 160.205 424.929 204.053C424.929 247.901 424.929 300.126 424.929 358.098V385.694C424.967 387.585 424.697 389.471 424.129 391.294C423.543 393.132 422.644 394.88 421.462 396.48C420.256 398.077 418.793 399.51 417.119 400.736C413.686 403.192 409.467 404.638 405.054 404.869C400.685 404.981 396.329 404.869 391.935 404.869H365.468H310.858H268.91C264.081 405.09 259.303 403.91 255.308 401.509C251.336 399.073 248.421 395.518 247.04 391.429C246.383 389.406 246.088 387.305 246.164 385.202V379.12C246.164 370.854 246.164 362.641 246.164 354.48C246.164 338.188 246.164 322.134 246.164 306.32C246.164 274.77 246.164 244.339 246.164 215.342C246.164 186.346 246.164 158.794 246.164 133.011C246.164 120.124 246.164 107.684 246.164 95.6928C246.164 94.2032 246.164 92.7136 246.164 91.2128C246.164 90.4736 246.228 89.7232 246.278 88.9728C246.329 88.2224 246.482 87.4944 246.697 86.7328C247.453 83.8542 248.957 81.17 251.092 78.8928C253.168 76.7127 255.782 74.98 258.733 73.827C261.685 72.674 264.896 72.1312 268.122 72.24H286.309H299.352C300.812 72.169 302.257 72.5232 303.467 73.248C304.643 73.9797 305.531 75.0174 306.007 76.216C306.403 77.3917 306.545 78.6227 306.426 79.8448V81.6368C306.381 82.2222 306.381 82.8097 306.426 83.3952C306.587 84.536 307.131 85.6084 307.988 86.4752C308.819 87.3353 309.933 87.9459 311.175 88.2224C311.792 88.3458 312.423 88.4022 313.055 88.3904H322.517H350.037H362.179C363.131 88.3904 364.109 88.3904 365.023 88.3904C365.925 88.2963 366.792 88.0286 367.563 87.6064C368.307 87.1924 368.949 86.651 369.45 86.0141C369.952 85.3773 370.304 84.6581 370.484 83.8992C370.635 83.1603 370.69 82.4089 370.65 81.6592C370.65 80.9088 370.65 80.1808 370.65 79.4192C370.613 78.7049 370.647 77.9891 370.751 77.28C370.884 76.5881 371.151 75.9215 371.539 75.3088C372.276 74.1271 373.457 73.2085 374.879 72.7104C376.214 72.3343 377.623 72.201 379.019 72.3184C377.645 72.2052 376.259 72.3347 374.942 72.6992C373.571 73.1935 372.432 74.0867 371.716 75.2304C371.347 75.8273 371.094 76.4747 370.967 77.1456C370.856 77.8467 370.822 78.5555 370.865 79.2624V81.5024C370.908 82.2521 370.853 83.0038 370.7 83.7424C370.514 84.53 370.15 85.2767 369.631 85.9384C369.112 86.6002 368.448 87.1635 367.678 87.5952C366.873 88.0404 365.967 88.3234 365.023 88.424C364.058 88.5024 363.118 88.424 362.153 88.424H313.271C312.613 88.4421 311.955 88.3819 311.315 88.2448C310 87.9572 308.819 87.3152 307.937 86.408C307.038 85.4952 306.464 84.3696 306.286 83.1712C306.242 82.5707 306.242 81.9684 306.286 81.368V79.576C306.395 78.388 306.257 77.1924 305.88 76.048C305.423 74.917 304.574 73.9414 303.454 73.2592C302.307 72.5755 300.937 72.2411 299.555 72.3072H268.313C265.153 72.2007 262.007 72.7338 259.116 73.8657C256.226 74.9975 253.668 76.698 251.638 78.8368C249.545 81.0494 248.074 83.6665 247.345 86.4752C247.129 87.1808 247.066 87.9088 246.926 88.6256C246.786 89.3424 246.824 90.0816 246.812 90.8656V95.3456C246.812 107.292 246.812 119.732 246.812 132.664C246.812 158.424 246.812 185.998 246.812 214.995C246.812 243.992 246.812 274.422 246.812 305.973V354.133C246.812 362.279 246.812 370.492 246.812 378.773V385.28C246.744 387.334 247.03 389.384 247.663 391.362C249.011 395.338 251.849 398.793 255.715 401.162C259.613 403.489 264.273 404.619 268.973 404.376H310.972H365.582H392.049C396.431 404.376 400.825 404.443 405.143 404.376C409.43 404.158 413.531 402.755 416.865 400.366C418.499 399.173 419.927 397.777 421.107 396.222C422.244 394.665 423.101 392.961 423.647 391.171C424.212 389.39 424.478 387.544 424.434 385.694V380.094C424.434 372.68 424.434 365.344 424.434 358.086C424.434 300.115 424.498 247.901 424.536 204.042C424.574 160.182 424.625 124.701 424.65 100.173C424.65 97.104 424.65 94.2144 424.65 91.4928C424.712 88.9561 424.193 86.4345 423.126 84.0784C422.198 82.0645 420.869 80.2134 419.202 78.6128C417.833 77.289 416.244 76.1561 414.49 75.2528C412.12 73.9748 409.472 73.1505 406.718 72.8336C406.019 72.7391 405.315 72.683 404.609 72.6656L403.962 72.6544Z" fill="#263238"/>
<path d="M408 102.469C408 102.547 404.559 102.637 400.304 102.67C396.05 102.704 392.595 102.67 392.595 102.581C392.595 102.491 396.037 102.413 400.291 102.379C404.546 102.346 408 102.39 408 102.469Z" fill="#263238"/>
<path d="M408.038 105.952C408.038 106.03 404.584 106.12 400.329 106.142C396.075 106.165 392.62 106.142 392.62 106.064C392.62 105.986 396.075 105.896 400.329 105.862C404.584 105.829 408.038 105.862 408.038 105.952Z" fill="#263238"/>
<path d="M408.064 109.424C408.064 109.502 404.622 109.592 400.367 109.626C396.113 109.659 392.659 109.626 392.659 109.536C392.659 109.446 396.1 109.368 400.355 109.334C404.609 109.301 408.064 109.346 408.064 109.424Z" fill="#263238"/>
<path d="M267.818 113.389H268.148H269.037L272.326 113.322L272.237 113.411C272.237 112.762 272.237 112.056 272.237 111.306C272.237 110.914 272.237 110.544 272.237 110.085C272.292 109.853 272.428 109.643 272.627 109.484C272.825 109.325 273.076 109.226 273.342 109.2C273.875 109.2 274.345 109.2 274.917 109.2C275.22 109.24 275.496 109.376 275.694 109.582C275.893 109.788 276 110.05 275.996 110.32C275.996 111.306 275.996 112.325 275.996 113.389L275.844 113.254H279.997L279.832 113.4C279.832 111.907 279.832 110.383 279.832 108.83C279.832 108.438 279.832 108.058 279.832 107.71C279.812 107.536 279.749 107.368 279.649 107.217C279.548 107.066 279.411 106.936 279.248 106.837L277.431 105.258L275.59 103.611L274.739 102.872C274.447 102.626 274.218 102.368 273.888 102.312C273.726 102.275 273.557 102.27 273.392 102.297C273.228 102.324 273.072 102.383 272.936 102.469C272.682 102.659 272.415 102.928 272.161 103.141L270.675 104.462C269.735 105.325 268.757 106.109 268.046 106.848C267.84 107.279 267.769 107.751 267.843 108.214V109.502C267.843 110.298 267.843 110.992 267.843 111.586C267.843 112.179 267.843 112.56 267.843 112.918C267.862 113.075 267.862 113.232 267.843 113.389C267.843 113.389 267.843 113.254 267.843 112.952C267.843 112.65 267.843 112.168 267.843 111.642C267.843 111.115 267.843 110.342 267.843 109.547C267.843 109.133 267.843 108.696 267.843 108.237C267.843 108.002 267.843 107.755 267.843 107.52C267.829 107.248 267.909 106.979 268.072 106.747C268.834 105.918 269.748 105.179 270.7 104.306L272.174 102.962C272.44 102.738 272.656 102.502 272.974 102.267C273.145 102.156 273.342 102.079 273.55 102.042C273.759 102.005 273.974 102.01 274.18 102.054C274.57 102.178 274.913 102.395 275.171 102.682L276.022 103.421C276.606 103.914 277.19 104.429 277.787 104.944L279.4 106.512C279.568 106.648 279.721 106.798 279.857 106.96C279.997 107.143 280.076 107.356 280.086 107.576V108.696C280.086 110.264 280.086 111.787 280.086 113.254V113.4H279.921H275.768H275.615V113.266C275.615 112.146 275.615 111.182 275.615 110.197C275.616 109.986 275.532 109.782 275.379 109.62C275.226 109.458 275.013 109.349 274.777 109.312C274.295 109.312 273.736 109.312 273.266 109.312C273.051 109.334 272.85 109.415 272.69 109.544C272.53 109.672 272.421 109.842 272.377 110.029C272.377 110.398 272.377 110.824 272.377 111.149V113.389H272.288H268.948H268.072C267.987 113.396 267.902 113.396 267.818 113.389Z" fill="#263238"/>
<path d="M396.037 131.768H272.796C266.631 131.768 261.633 136.176 261.633 141.613V145.275C261.633 150.712 266.631 155.12 272.796 155.12H396.037C402.202 155.12 407.2 150.712 407.2 145.275V141.613C407.2 136.176 402.202 131.768 396.037 131.768Z" fill="#F5F5F5"/>
<path d="M396.024 155.12L396.862 155.064C399.014 154.907 401.067 154.198 402.768 153.026C404.202 152.049 405.34 150.776 406.083 149.318C406.531 148.456 406.827 147.538 406.959 146.597C407.071 145.551 407.105 144.499 407.06 143.45C407.112 142.305 407.057 141.159 406.895 140.022C406.65 138.834 406.16 137.695 405.448 136.662C404.646 135.505 403.579 134.509 402.314 133.738C401.05 132.966 399.617 132.436 398.107 132.182C396.422 132 394.723 131.944 393.027 132.014H387.655L272.783 132.082C270.055 132.087 267.427 132.994 265.419 134.623C263.412 136.253 262.169 138.487 261.937 140.885C261.836 142.005 261.937 143.282 261.937 144.469C261.866 145.638 262.004 146.809 262.344 147.941C263.069 150.172 264.672 152.102 266.865 153.384C267.936 154.01 269.129 154.458 270.383 154.706C271.638 154.919 272.916 155.006 274.193 154.963H296.824H348.463L383.273 155.042H392.748H395.199H396.037C396.037 155.042 395.757 155.042 395.199 155.042H392.748H383.273L348.463 155.109H296.824H274.18C272.857 155.162 271.531 155.075 270.231 154.851C268.914 154.588 267.662 154.118 266.535 153.462C264.225 152.126 262.542 150.097 261.798 147.75C261.44 146.58 261.294 145.366 261.366 144.155C261.366 142.946 261.366 141.781 261.366 140.538C261.602 138.01 262.91 135.655 265.029 133.94C267.147 132.225 269.921 131.278 272.796 131.286L387.667 131.354H393.04C394.736 131.295 396.435 131.359 398.12 131.544C400.387 131.938 402.464 132.933 404.073 134.396C405.682 135.859 406.746 137.721 407.124 139.731C407.28 140.879 407.331 142.037 407.276 143.192C407.306 144.25 407.263 145.308 407.149 146.362C407.002 147.319 406.694 148.251 406.235 149.128C405.464 150.608 404.291 151.897 402.819 152.88C401.745 153.595 400.537 154.137 399.25 154.482C398.459 154.683 397.646 154.807 396.824 154.851C396.316 155.131 396.024 155.12 396.024 155.12Z" fill="#263238"/>
<path d="M398.272 142.89C398.272 142.89 398.272 142.52 398.018 141.882C397.733 140.984 397.116 140.195 396.265 139.642C395.587 139.197 394.782 138.927 393.94 138.862C393.098 138.797 392.252 138.94 391.497 139.274C390.741 139.609 390.106 140.122 389.663 140.757C389.219 141.391 388.984 142.122 388.984 142.867C388.984 143.613 389.219 144.343 389.663 144.978C390.106 145.612 390.741 146.126 391.497 146.46C392.252 146.795 393.098 146.938 393.94 146.873C394.782 146.808 395.587 146.538 396.265 146.093C397.118 145.541 397.735 144.752 398.018 143.853C398.234 143.226 398.221 142.845 398.272 142.845C398.323 142.845 398.272 142.934 398.272 143.114C398.284 143.377 398.259 143.64 398.196 143.898C397.963 144.868 397.346 145.733 396.456 146.339C395.797 146.798 395.016 147.101 394.187 147.221C393.359 147.34 392.509 147.272 391.719 147.022C390.763 146.696 389.942 146.122 389.363 145.377C388.783 144.631 388.474 143.749 388.474 142.845C388.474 141.941 388.783 141.058 389.363 140.313C389.942 139.567 390.763 138.994 391.719 138.667C392.51 138.42 393.359 138.353 394.187 138.472C395.015 138.591 395.796 138.894 396.456 139.35C397.344 139.958 397.96 140.823 398.196 141.792C398.259 142.049 398.284 142.313 398.272 142.576C398.297 142.785 398.297 142.89 398.272 142.89Z" fill="#263238"/>
<path d="M400.914 150.181C400.018 149.672 399.224 149.036 398.564 148.299C397.775 147.657 397.118 146.899 396.621 146.059C397.517 146.571 398.311 147.211 398.97 147.952C399.757 148.592 400.414 149.346 400.914 150.181Z" fill="#263238"/>
<path d="M281.28 141.12H278.74V140.526H284.709V141.12H282.169V147.045H281.381L281.28 141.12Z" fill="#E0E0E0"/>
<path d="M290.005 144.794H285.356C285.372 145.032 285.442 145.265 285.56 145.48C285.679 145.695 285.845 145.887 286.048 146.045C286.251 146.203 286.487 146.324 286.743 146.402C286.999 146.479 287.27 146.511 287.541 146.496C287.861 146.505 288.18 146.452 288.474 146.339C288.768 146.227 289.031 146.059 289.243 145.846L289.662 146.283C289.264 146.66 288.748 146.923 288.18 147.04C287.612 147.157 287.018 147.121 286.472 146.939C285.927 146.756 285.456 146.434 285.119 146.014C284.782 145.594 284.595 145.095 284.582 144.581C284.562 144.257 284.619 143.934 284.747 143.631C284.876 143.327 285.074 143.05 285.328 142.817C285.583 142.584 285.89 142.4 286.229 142.275C286.568 142.151 286.932 142.089 287.299 142.094C287.665 142.089 288.028 142.151 288.365 142.275C288.702 142.4 289.006 142.585 289.258 142.819C289.51 143.052 289.704 143.33 289.828 143.633C289.952 143.936 290.004 144.259 289.979 144.581L290.005 144.794ZM285.356 144.301H289.293C289.293 143.84 289.086 143.399 288.717 143.073C288.348 142.748 287.847 142.565 287.325 142.565C286.803 142.565 286.302 142.748 285.933 143.073C285.564 143.399 285.356 143.84 285.356 144.301Z" fill="#E0E0E0"/>
<path d="M294.919 147.034L293.154 144.984L291.376 147.034H290.538L292.735 144.48L290.64 142.094H291.49L293.154 144.01L294.818 142.094H295.643L293.561 144.48L295.77 146.989L294.919 147.034Z" fill="#E0E0E0"/>
<path d="M299.949 146.72C299.614 146.955 299.195 147.078 298.768 147.067C298.549 147.088 298.329 147.066 298.121 147.002C297.914 146.938 297.726 146.834 297.57 146.698C297.414 146.562 297.295 146.396 297.221 146.214C297.147 146.032 297.12 145.837 297.142 145.645V142.688H296.151V142.128H297.18V141.008H297.929V142.128H299.618V142.688H297.929V145.6C297.912 145.717 297.924 145.836 297.966 145.948C298.007 146.06 298.077 146.163 298.17 146.248C298.263 146.333 298.376 146.398 298.501 146.439C298.627 146.48 298.761 146.496 298.895 146.485C299.194 146.491 299.486 146.404 299.72 146.238L299.949 146.72Z" fill="#E0E0E0"/>
<path d="M360.921 177.363C360.921 177.498 350.266 177.598 337.134 177.598C324.002 177.598 313.334 177.498 313.334 177.363C313.334 177.229 323.99 177.117 337.134 177.117C350.279 177.117 360.921 177.229 360.921 177.363Z" fill="#FF725E"/>
<path d="M398.869 185.976C398.869 186.11 379.717 186.211 356.108 186.211C332.499 186.211 313.334 186.11 313.334 185.976C313.334 185.842 332.486 185.73 356.108 185.73C379.73 185.73 398.869 185.842 398.869 185.976Z" fill="#263238"/>
<path d="M397.866 192.125C397.866 192.259 378.943 192.36 355.6 192.36C332.257 192.36 313.334 192.259 313.334 192.125C313.334 191.99 332.257 191.89 355.6 191.89C378.943 191.89 397.866 191.99 397.866 192.125Z" fill="#263238"/>
<path d="M363.22 197.994C363.22 198.128 352.044 198.229 338.264 198.229C324.485 198.229 313.309 198.128 313.309 197.994C313.309 197.859 324.485 197.758 338.264 197.758C352.044 197.758 363.22 197.859 363.22 197.994Z" fill="#263238"/>
<path d="M360.921 224.179C360.921 224.302 350.266 224.414 337.134 224.414C324.002 224.414 313.334 224.302 313.334 224.179C313.334 224.056 323.99 223.933 337.134 223.933C350.279 223.933 360.921 224 360.921 224.179Z" fill="#FF725E"/>
<path d="M398.869 232.792C398.869 232.915 379.717 233.027 356.108 233.027C332.499 233.027 313.334 232.915 313.334 232.792C313.334 232.669 332.486 232.546 356.108 232.546C379.73 232.546 398.869 232.658 398.869 232.792Z" fill="#263238"/>
<path d="M397.866 238.941C397.866 239.075 378.943 239.176 355.6 239.176C332.257 239.176 313.334 239.075 313.334 238.941C313.334 238.806 332.257 238.694 355.6 238.694C378.943 238.694 397.866 238.806 397.866 238.941Z" fill="#263238"/>
<path d="M363.22 244.81C363.22 244.933 352.044 245.045 338.264 245.045C324.485 245.045 313.309 244.933 313.309 244.81C313.309 244.686 324.485 244.563 338.264 244.563C352.044 244.563 363.22 244.675 363.22 244.81Z" fill="#263238"/>
<path d="M360.921 271.04C360.921 271.174 350.266 271.286 337.134 271.286C324.002 271.286 313.334 271.174 313.334 271.04C313.334 270.906 323.99 270.805 337.134 270.805C350.279 270.805 360.921 270.861 360.921 271.04Z" fill="#FF725E"/>
<path d="M398.869 279.597C398.869 279.731 379.717 279.843 356.108 279.843C332.499 279.843 313.334 279.731 313.334 279.597C313.334 279.462 332.486 279.362 356.108 279.362C379.73 279.362 398.869 279.474 398.869 279.597Z" fill="#263238"/>
<path d="M397.866 285.757C397.866 285.88 378.943 285.992 355.6 285.992C332.257 285.992 313.334 285.88 313.334 285.757C313.334 285.634 332.257 285.51 355.6 285.51C378.943 285.51 397.866 285.6 397.866 285.757Z" fill="#263238"/>
<path d="M363.22 291.614C363.22 291.749 352.044 291.861 338.264 291.861C324.485 291.861 313.309 291.749 313.309 291.614C313.309 291.48 324.485 291.379 338.264 291.379C352.044 291.379 363.22 291.491 363.22 291.614Z" fill="#263238"/>
<path d="M360.921 317.8C360.921 317.934 350.266 318.035 337.134 318.035C324.002 318.035 313.334 317.934 313.334 317.8C313.334 317.666 323.99 317.565 337.134 317.565C350.279 317.565 360.921 317.666 360.921 317.8Z" fill="#FF725E"/>
<path d="M398.869 326.413C398.869 326.547 379.717 326.648 356.108 326.648C332.499 326.648 313.334 326.547 313.334 326.413C313.334 326.278 332.486 326.178 356.108 326.178C379.73 326.178 398.869 326.278 398.869 326.413Z" fill="#263238"/>
<path d="M397.866 332.562C397.866 332.696 378.943 332.808 355.6 332.808C332.257 332.808 313.334 332.696 313.334 332.562C313.334 332.427 332.257 332.326 355.6 332.326C378.943 332.326 397.866 332.438 397.866 332.562Z" fill="#263238"/>
<path d="M363.22 338.43C363.22 338.565 352.044 338.677 338.264 338.677C324.485 338.677 313.309 338.565 313.309 338.43C313.309 338.296 324.485 338.195 338.264 338.195C352.044 338.195 363.22 338.296 363.22 338.43Z" fill="#263238"/>
<path d="M360.921 364.291C360.921 364.414 350.266 364.526 337.134 364.526C324.002 364.526 313.334 364.414 313.334 364.291C313.334 364.168 323.99 364.045 337.134 364.045C350.279 364.045 360.921 364.157 360.921 364.291Z" fill="#FF725E"/>
<path d="M398.869 372.96C398.869 373.083 379.717 373.195 356.108 373.195C332.499 373.195 313.334 373.083 313.334 372.96C313.334 372.837 332.486 372.714 356.108 372.714C379.73 372.714 398.869 372.77 398.869 372.96Z" fill="#263238"/>
<path d="M397.866 379.053C397.866 379.187 378.943 379.288 355.6 379.288C332.257 379.288 313.334 379.187 313.334 379.053C313.334 378.918 332.257 378.818 355.6 378.818C378.943 378.818 397.866 378.918 397.866 379.053Z" fill="#263238"/>
<path d="M363.22 384.922C363.22 385.056 352.044 385.157 338.264 385.157C324.485 385.157 313.309 385.056 313.309 384.922C313.309 384.787 324.485 384.675 338.264 384.675C352.044 384.675 363.22 384.787 363.22 384.922Z" fill="#263238"/>
<path d="M262.37 177.011L262.207 202.703L300.967 202.894L301.13 177.202L262.37 177.011Z" fill="#FF725E"/>
<path d="M262.204 202.709L275.844 186.805L284.175 196.84L289.89 191.52L300.977 202.899L262.204 202.709Z" fill="#FF725E"/>
<path d="M287.807 184.901C287.807 185.436 287.627 185.958 287.29 186.403C286.952 186.847 286.473 187.193 285.912 187.397C285.351 187.6 284.735 187.652 284.14 187.546C283.546 187.44 283 187.181 282.573 186.801C282.146 186.422 281.857 185.939 281.742 185.414C281.627 184.888 281.691 184.345 281.926 183.852C282.162 183.359 282.558 182.939 283.065 182.646C283.571 182.352 284.166 182.197 284.772 182.202C285.172 182.203 285.568 182.274 285.938 182.41C286.307 182.547 286.642 182.746 286.924 182.997C287.206 183.247 287.429 183.545 287.58 183.871C287.732 184.198 287.809 184.548 287.807 184.901Z" fill="#FF725E"/>
<g opacity="0.2">
<path d="M262.204 202.709L275.844 186.805L284.175 196.84L289.89 191.52L300.977 202.899L262.204 202.709Z" fill="black"/>
</g>
<g opacity="0.2">
<path d="M287.807 184.901C287.807 185.436 287.627 185.958 287.29 186.403C286.952 186.847 286.473 187.193 285.912 187.397C285.351 187.6 284.735 187.652 284.14 187.546C283.546 187.44 283 187.181 282.573 186.801C282.146 186.422 281.857 185.939 281.742 185.414C281.627 184.888 281.691 184.345 281.926 183.852C282.162 183.359 282.558 182.939 283.065 182.646C283.571 182.352 284.166 182.197 284.772 182.202C285.172 182.203 285.568 182.274 285.938 182.41C286.307 182.547 286.642 182.746 286.924 182.997C287.206 183.247 287.429 183.545 287.58 183.871C287.732 184.198 287.809 184.548 287.807 184.901Z" fill="black"/>
</g>
<path d="M262.382 223.234L262.219 248.926L300.979 249.117L301.141 223.425L262.382 223.234Z" fill="#FF725E"/>
<path d="M262.204 248.92L275.844 233.016L284.175 243.051L289.89 237.742L300.977 249.122L262.204 248.92Z" fill="#FF725E"/>
<path d="M287.807 231.123C287.805 231.658 287.623 232.179 287.284 232.622C286.945 233.065 286.464 233.409 285.903 233.611C285.342 233.813 284.726 233.863 284.132 233.756C283.539 233.649 282.995 233.389 282.569 233.009C282.143 232.628 281.855 232.145 281.741 231.621C281.627 231.096 281.692 230.553 281.928 230.061C282.164 229.569 282.56 229.149 283.066 228.856C283.573 228.563 284.166 228.408 284.772 228.413C285.173 228.414 285.571 228.486 285.941 228.623C286.311 228.76 286.646 228.96 286.928 229.212C287.21 229.464 287.433 229.762 287.584 230.09C287.735 230.418 287.811 230.769 287.807 231.123Z" fill="#FF725E"/>
<g opacity="0.2">
<path d="M262.204 248.92L275.844 233.016L284.175 243.051L289.89 237.742L300.977 249.122L262.204 248.92Z" fill="black"/>
</g>
<g opacity="0.2">
<path d="M287.807 231.123C287.805 231.658 287.623 232.179 287.284 232.622C286.945 233.065 286.464 233.409 285.903 233.611C285.342 233.813 284.726 233.863 284.132 233.756C283.539 233.649 282.995 233.389 282.569 233.009C282.143 232.628 281.855 232.145 281.741 231.621C281.627 231.096 281.692 230.553 281.928 230.061C282.164 229.569 282.56 229.149 283.066 228.856C283.573 228.563 284.166 228.408 284.772 228.413C285.173 228.414 285.571 228.486 285.941 228.623C286.311 228.76 286.646 228.96 286.928 229.212C287.21 229.464 287.433 229.762 287.584 230.09C287.735 230.418 287.811 230.769 287.807 231.123Z" fill="black"/>
</g>
<path d="M262.368 269.457L262.205 295.149L300.965 295.34L301.128 269.648L262.368 269.457Z" fill="#FF725E"/>
<path d="M262.204 295.142L275.844 279.238L284.175 289.274L289.89 283.954L300.977 295.333L262.204 295.142Z" fill="#FF725E"/>
<path d="M287.807 277.346C287.805 277.88 287.623 278.402 287.284 278.844C286.945 279.287 286.464 279.632 285.903 279.833C285.342 280.035 284.726 280.086 284.132 279.979C283.539 279.871 282.995 279.611 282.569 279.231C282.143 278.851 281.855 278.368 281.741 277.843C281.627 277.318 281.692 276.775 281.928 276.283C282.164 275.791 282.56 275.372 283.066 275.078C283.573 274.785 284.166 274.631 284.772 274.635C285.581 274.644 286.353 274.934 286.921 275.441C287.489 275.948 287.807 276.633 287.807 277.346Z" fill="#FF725E"/>
<g opacity="0.2">
<path d="M262.204 295.142L275.844 279.238L284.175 289.274L289.89 283.954L300.977 295.333L262.204 295.142Z" fill="black"/>
</g>
<g opacity="0.2">
<path d="M287.807 277.346C287.805 277.88 287.623 278.402 287.284 278.844C286.945 279.287 286.464 279.632 285.903 279.833C285.342 280.035 284.726 280.086 284.132 279.979C283.539 279.871 282.995 279.611 282.569 279.231C282.143 278.851 281.855 278.368 281.741 277.843C281.627 277.318 281.692 276.775 281.928 276.283C282.164 275.791 282.56 275.372 283.066 275.078C283.573 274.785 284.166 274.631 284.772 274.635C285.581 274.644 286.353 274.934 286.921 275.441C287.489 275.948 287.807 276.633 287.807 277.346Z" fill="black"/>
</g>
<path d="M262.38 315.669L262.217 341.361L300.977 341.552L301.14 315.86L262.38 315.669Z" fill="#FF725E"/>
<path d="M262.204 341.365L275.844 325.461L284.175 335.496L289.89 330.176L300.977 341.555L262.204 341.365Z" fill="#FF725E"/>
<path d="M287.807 323.557C287.807 324.092 287.627 324.614 287.29 325.059C286.952 325.503 286.473 325.849 285.912 326.053C285.351 326.256 284.735 326.308 284.14 326.202C283.546 326.096 283 325.837 282.573 325.457C282.146 325.078 281.857 324.594 281.742 324.069C281.627 323.544 281.691 323.001 281.926 322.508C282.162 322.015 282.558 321.595 283.065 321.301C283.571 321.008 284.166 320.853 284.772 320.858C285.172 320.859 285.568 320.93 285.938 321.066C286.307 321.203 286.642 321.402 286.924 321.653C287.206 321.903 287.429 322.201 287.58 322.527C287.732 322.854 287.809 323.204 287.807 323.557Z" fill="#FF725E"/>
<g opacity="0.2">
<path d="M262.204 341.365L275.844 325.461L284.175 335.496L289.89 330.176L300.977 341.555L262.204 341.365Z" fill="black"/>
</g>
<g opacity="0.2">
<path d="M287.807 323.557C287.807 324.092 287.627 324.614 287.29 325.059C286.952 325.503 286.473 325.849 285.912 326.053C285.351 326.256 284.735 326.308 284.14 326.202C283.546 326.096 283 325.837 282.573 325.457C282.146 325.078 281.857 324.594 281.742 324.069C281.627 323.544 281.691 323.001 281.926 322.508C282.162 322.015 282.558 321.595 283.065 321.301C283.571 321.008 284.166 320.853 284.772 320.858C285.172 320.859 285.568 320.93 285.938 321.066C286.307 321.203 286.642 321.402 286.924 321.653C287.206 321.903 287.429 322.201 287.58 322.527C287.732 322.854 287.809 323.204 287.807 323.557Z" fill="black"/>
</g>
<path d="M262.366 361.666L262.204 387.359L300.964 387.55L301.126 361.857L262.366 361.666Z" fill="#FF725E"/>
<path d="M262.204 387.352L275.844 371.448L284.175 381.483L289.89 376.174L300.977 387.542L262.204 387.352Z" fill="#FF725E"/>
<path d="M287.807 369.6C287.805 370.134 287.623 370.656 287.284 371.099C286.945 371.542 286.464 371.886 285.903 372.088C285.342 372.29 284.726 372.34 284.132 372.233C283.539 372.126 282.995 371.865 282.569 371.485C282.143 371.105 281.855 370.622 281.741 370.097C281.627 369.573 281.692 369.03 281.928 368.538C282.164 368.045 282.56 367.626 283.066 367.333C283.573 367.039 284.166 366.885 284.772 366.889C285.581 366.898 286.353 367.188 286.921 367.695C287.489 368.202 287.807 368.887 287.807 369.6Z" fill="#FF725E"/>
<g opacity="0.2">
<path d="M262.204 387.352L275.844 371.448L284.175 381.483L289.89 376.174L300.977 387.542L262.204 387.352Z" fill="black"/>
</g>
<g opacity="0.2">
<path d="M287.807 369.6C287.805 370.134 287.623 370.656 287.284 371.099C286.945 371.542 286.464 371.886 285.903 372.088C285.342 372.29 284.726 372.34 284.132 372.233C283.539 372.126 282.995 371.865 282.569 371.485C282.143 371.105 281.855 370.622 281.741 370.097C281.627 369.573 281.692 369.03 281.928 368.538C282.164 368.045 282.56 367.626 283.066 367.333C283.573 367.039 284.166 366.885 284.772 366.889C285.581 366.898 286.353 367.188 286.921 367.695C287.489 368.202 287.807 368.887 287.807 369.6Z" fill="black"/>
</g>
<path d="M567.206 135.764C568.951 129.212 564.343 122.654 556.914 121.115C549.485 119.575 542.048 123.639 540.303 130.19C538.558 136.742 543.165 143.301 550.594 144.84C558.023 146.379 565.461 142.315 567.206 135.764Z" fill="#FF725E"/>
<path d="M552.907 136.954C552.762 136.953 552.622 136.905 552.513 136.819L547.853 133.459C547.721 133.364 547.638 133.227 547.621 133.078C547.605 132.929 547.656 132.78 547.764 132.664C547.871 132.548 548.027 132.475 548.196 132.46C548.365 132.445 548.534 132.491 548.665 132.586L552.818 135.61L558.724 129.237C558.834 129.125 558.989 129.054 559.157 129.04C559.325 129.025 559.492 129.068 559.625 129.158C559.754 129.252 559.836 129.387 559.853 129.534C559.869 129.681 559.82 129.828 559.714 129.942L553.364 136.752C553.312 136.81 553.247 136.858 553.172 136.893C553.098 136.927 553.016 136.948 552.933 136.954H552.907Z" fill="white"/>
<path d="M494.119 132.989C504.584 132.989 513.067 125.507 513.067 116.278C513.067 107.049 504.584 99.568 494.119 99.568C483.654 99.568 475.171 107.049 475.171 116.278C475.171 125.507 483.654 132.989 494.119 132.989Z" fill="#FF725E"/>
<path d="M492.976 122.08C492.685 122.081 492.403 121.994 492.176 121.834L485.826 117.197C485.568 117.009 485.405 116.739 485.371 116.445C485.338 116.151 485.437 115.858 485.648 115.629C485.754 115.515 485.884 115.42 486.031 115.35C486.179 115.28 486.34 115.237 486.506 115.222C486.673 115.208 486.841 115.222 487.001 115.265C487.161 115.308 487.31 115.378 487.439 115.472L492.823 119.381L500.647 110.88C500.86 110.653 501.166 110.509 501.499 110.479C501.832 110.45 502.165 110.538 502.425 110.723C502.554 110.816 502.662 110.931 502.741 111.061C502.82 111.191 502.869 111.334 502.885 111.48C502.902 111.627 502.885 111.775 502.837 111.916C502.788 112.057 502.709 112.189 502.602 112.302L493.967 121.632C493.746 121.857 493.438 122.001 493.103 122.035L492.976 122.08Z" fill="white"/>
<path d="M413.753 343.19C404.199 340.802 396.016 335.325 390.837 327.852C385.659 320.378 383.865 311.458 385.813 302.87C385.458 303.722 385.115 304.595 384.823 305.491C382.185 314.313 383.577 323.694 388.7 331.62C393.822 339.546 402.267 345.383 412.217 347.877C422.168 350.371 432.831 349.323 441.915 344.957C450.998 340.592 457.777 333.257 460.794 324.531C461.086 323.635 461.315 322.728 461.518 321.832C458.059 330.036 451.223 336.789 442.371 340.748C433.519 344.706 423.302 345.578 413.753 343.19Z" fill="#263238"/>
<path d="M433.222 281.635C442.774 284.028 450.953 289.506 456.131 296.978C461.308 304.45 463.105 313.368 461.162 321.955C461.518 321.093 461.861 320.219 462.14 319.323C463.59 314.916 464.038 310.3 463.459 305.74C462.879 301.179 461.283 296.765 458.762 292.751C456.241 288.736 452.846 285.201 448.77 282.348C444.695 279.495 440.02 277.38 435.015 276.125C430.01 274.871 424.773 274.501 419.606 275.037C414.438 275.574 409.441 277.005 404.903 279.25C400.365 281.495 396.375 284.509 393.162 288.119C389.949 291.728 387.577 295.862 386.182 300.283C385.889 301.179 385.661 302.075 385.458 302.982C388.919 294.781 395.756 288.03 404.608 284.074C413.459 280.118 423.676 279.247 433.222 281.635Z" fill="#455A64"/>
<path d="M462.572 319.099C462.572 319.099 462.572 318.909 462.686 318.539C462.801 318.17 462.902 317.61 463.067 316.926C463.156 316.568 463.258 316.165 463.372 315.728C463.486 315.291 463.499 314.798 463.575 314.272C463.778 313.063 463.884 311.843 463.893 310.621C464.009 307.268 463.551 303.919 462.534 300.686C461.086 295.947 458.515 291.531 454.991 287.732C451.466 283.932 447.068 280.835 442.087 278.645C440.589 277.997 439.045 277.435 437.464 276.965C436.664 276.741 435.864 276.461 435.038 276.27L432.498 275.755C432.079 275.677 431.66 275.576 431.228 275.52L429.958 275.374C429.082 275.285 428.206 275.162 427.304 275.106C425.49 274.999 423.67 274.999 421.856 275.106C419.999 275.22 418.154 275.445 416.331 275.778C415.417 275.968 414.515 276.214 413.588 276.427C412.663 276.646 411.755 276.919 410.87 277.245C409.049 277.85 407.276 278.561 405.562 279.373C403.845 280.251 402.199 281.231 400.634 282.307C397.395 284.507 394.582 287.154 392.303 290.147C387.522 296.301 385.145 303.662 385.534 311.114C385.701 314.708 386.524 318.256 387.972 321.619C388.66 323.259 389.479 324.853 390.423 326.39C391.392 327.88 392.474 329.309 393.662 330.669C394.219 331.359 394.83 332.014 395.491 332.629C396.151 333.234 396.761 333.872 397.434 334.454C398.789 335.583 400.227 336.63 401.739 337.59C403.213 338.53 404.753 339.387 406.349 340.155C407.137 340.514 407.962 340.816 408.762 341.152L409.969 341.634C410.375 341.79 410.794 341.891 411.239 342.026L413.702 342.765C414.515 342.978 415.366 343.123 416.179 343.302C417.801 343.64 419.447 343.876 421.107 344.008C426.65 344.451 432.238 343.855 437.502 342.259C442.766 340.663 447.588 338.102 451.65 334.746C454.447 332.465 456.832 329.821 458.724 326.906C459.447 325.861 460.084 324.772 460.629 323.646C460.883 323.165 461.137 322.728 461.327 322.314L461.785 321.194C462.064 320.533 462.267 320.006 462.42 319.637C462.572 319.267 462.661 319.11 462.661 319.11C462.661 319.11 462.661 319.301 462.483 319.659C462.305 320.018 462.153 320.555 461.912 321.238C461.785 321.586 461.645 321.966 461.48 322.358C461.315 322.75 461.048 323.232 460.807 323.714C460.285 324.855 459.665 325.959 458.953 327.018C457.072 329.964 454.696 332.641 451.904 334.958C447.822 338.383 442.96 341.001 437.64 342.639C432.321 344.276 426.668 344.896 421.056 344.456C419.375 344.324 417.708 344.088 416.065 343.75C415.226 343.571 414.376 343.437 413.525 343.213L410.985 342.474C410.578 342.339 410.146 342.238 409.715 342.082L408.445 341.589C407.632 341.253 406.794 340.95 405.994 340.581C404.377 339.812 402.816 338.956 401.32 338.016C399.779 337.045 398.316 335.982 396.938 334.835C396.253 334.242 395.668 333.603 394.957 332.987C394.288 332.365 393.668 331.703 393.103 331.005C391.892 329.624 390.789 328.172 389.801 326.659C388.834 325.094 387.985 323.474 387.261 321.81C385.764 318.393 384.906 314.784 384.721 311.125C384.307 303.559 386.721 296.083 391.592 289.845C393.916 286.815 396.781 284.137 400.075 281.915C401.668 280.825 403.344 279.833 405.092 278.947C406.834 278.129 408.633 277.407 410.477 276.786C411.378 276.46 412.303 276.187 413.245 275.968C414.185 275.755 415.099 275.498 416.039 275.318C417.89 274.976 419.766 274.748 421.653 274.635C423.492 274.529 425.338 274.529 427.177 274.635C428.092 274.691 428.981 274.826 429.882 274.915L431.152 275.061C431.597 275.117 432.029 275.229 432.422 275.318L434.962 275.834C435.8 276.035 436.613 276.315 437.426 276.55C439.026 277.033 440.587 277.609 442.1 278.275C447.134 280.508 451.571 283.66 455.116 287.522C458.661 291.385 461.233 295.868 462.661 300.675C463.667 303.935 464.095 307.313 463.931 310.688C463.911 311.919 463.783 313.147 463.55 314.362C463.461 314.888 463.41 315.381 463.309 315.829C463.207 316.277 463.08 316.658 462.991 317.016C462.788 317.703 462.636 318.241 462.534 318.629C462.636 318.92 462.572 319.099 462.572 319.099Z" fill="#263238"/>
<path d="M447.561 338.957C448.069 339.259 485.457 369.667 499.224 381.046C500.347 381.976 501.833 382.488 503.373 382.475C504.913 382.463 506.389 381.927 507.492 380.979C508.077 380.482 508.542 379.884 508.856 379.223C509.171 378.562 509.33 377.851 509.323 377.134C509.316 376.417 509.143 375.709 508.815 375.053C508.487 374.397 508.011 373.807 507.416 373.318L456.095 331.52L447.561 338.957Z" fill="#263238"/>
</svg>
